<?xml version="1.0" encoding="UTF-8"?>
<svg version="1.1" xmlns="http://www.w3.org/2000/svg" width="408" height="159">
<path d="M0 0 C134.64 0 269.28 0 408 0 C408 52.47 408 104.94 408 159 C273.36 159 138.72 159 0 159 C0 106.53 0 54.06 0 0 Z " fill="#FBFBFA" transform="translate(0,0)"/>
<path d="M0 0 C0.67417969 0.2784375 1.34835938 0.556875 2.04296875 0.84375 C12.49604558 5.53449241 17.60230368 12.59161148 22 23 C24.9065302 31.71959059 23.86414801 43.30960896 20.2578125 51.64453125 C15.22149936 61.07588784 7.75196789 69.02487723 -2.6171875 72.33203125 C-13.51439067 74.48378846 -24.75183693 74.67298948 -34.4921875 68.8125 C-43.56782848 62.25315823 -49.80894629 53.394793 -52.671875 42.42578125 C-54.07109157 32.08157304 -53.05825082 23.006889 -47.12890625 14.23046875 C-42.94446317 8.82787022 -38.54346592 4.28859686 -32.5625 0.875 C-32.02753906 0.56304688 -31.49257812 0.25109375 -30.94140625 -0.0703125 C-21.13631857 -4.7657066 -9.83518911 -4.43060946 0 0 Z " fill="#4F76AF" transform="translate(227,20)"/>
<path d="M0 0 C3.69316678 3.35853059 6.91820673 7.1202244 10.125 10.9375 C10.59800537 11.49816162 11.07101074 12.05882324 11.55834961 12.63647461 C15.45102937 17.280791 19.19870333 22.03029606 22.92407227 26.80908203 C26.08381443 30.85496163 29.29109234 34.85628167 32.5625 38.8125 C33.36816406 39.78832031 34.17382812 40.76414063 35.00390625 41.76953125 C36.80232493 44.05460796 36.80232493 44.05460796 39 45 C38.98428955 44.34926514 38.9685791 43.69853027 38.95239258 43.02807617 C38.89005351 40.08130576 38.85101316 37.13467402 38.8125 34.1875 C38.78736328 33.16333984 38.76222656 32.13917969 38.73632812 31.08398438 C38.72666016 30.10107422 38.71699219 29.11816406 38.70703125 28.10546875 C38.6913208 27.19949951 38.67561035 26.29353027 38.65942383 25.36010742 C39.06538638 22.54688877 39.75675526 21.68764444 42 20 C43.9375 19.6015625 43.9375 19.6015625 46 19.625 C46.680625 19.61726563 47.36125 19.60953125 48.0625 19.6015625 C50.59863559 20.12310651 51.38665574 20.99634155 53 23 C53.38768005 24.99752808 53.38768005 24.99752808 53.40405273 27.30029297 C53.41673691 28.164841 53.42942108 29.02938904 53.44248962 29.9201355 C53.43955399 30.85141266 53.43661835 31.78268982 53.43359375 32.7421875 C53.4388356 33.70271027 53.44407745 34.66323303 53.44947815 35.65286255 C53.4559031 37.68539463 53.45455525 39.71796386 53.44604492 41.75048828 C53.43755067 44.85647124 53.46626453 47.96060581 53.49804688 51.06640625 C53.49965939 53.04166612 53.4990804 55.01692923 53.49609375 56.9921875 C53.51294472 58.38303055 53.51294472 58.38303055 53.53013611 59.80197144 C53.48465044 64.02449686 53.35954925 66.39862749 51.15380859 70.08789062 C49 72 49 72 46.04296875 72.6015625 C42.07355347 71.81685139 40.91601642 70.44264073 38.3125 67.375 C37.89025146 66.88499512 37.46800293 66.39499023 37.03295898 65.89013672 C33.28451542 61.48724671 29.72612999 56.92119393 26.18798828 52.34863281 C22.15120467 47.1362945 17.91203775 42.12348096 13.60546875 37.1328125 C11.58728223 34.75647003 9.70100087 32.3033298 7.8371582 29.80419922 C7.30379349 29.08996796 6.77042877 28.37573669 6.22090149 27.63986206 C5.818004 27.09870758 5.41510651 26.5575531 5 26 C4.9906543 27.25135742 4.98130859 28.50271484 4.97167969 29.79199219 C4.93179518 34.4365595 4.86604059 39.08046335 4.79248047 43.72460938 C4.76426193 45.73428827 4.74305179 47.74407834 4.72900391 49.75390625 C4.70758665 52.64380849 4.66094297 55.5323729 4.609375 58.421875 C4.60753204 59.76895538 4.60753204 59.76895538 4.60565186 61.14324951 C4.46006448 67.34937627 4.46006448 67.34937627 2.18457031 70.56738281 C-1.02487352 72.67210078 -3.25717156 72.54441141 -7 72 C-9.38896265 69.70886538 -9.96174211 68.31672351 -10.36076355 65.0133667 C-10.35410172 63.84976624 -10.34743988 62.68616577 -10.34057617 61.48730469 C-10.34101425 60.84298492 -10.34145233 60.19866516 -10.34190369 59.53482056 C-10.33982024 57.41352619 -10.31651181 55.29303062 -10.29296875 53.171875 C-10.28737118 51.69786002 -10.28310184 50.22383945 -10.28010559 48.74981689 C-10.26866941 44.87646994 -10.23921314 41.00346224 -10.20599365 37.13024902 C-10.17526611 33.17542103 -10.16159454 29.22053804 -10.14648438 25.265625 C-10.11434196 17.51026226 -10.06316085 9.75517873 -10 2 C-6.42383387 0.08502072 -4.1055374 -0.58650534 0 0 Z " fill="#E27934" transform="translate(52,19)"/>
<path d="M0 0 C3.25260192 0.63637864 4.73436276 1.01020176 6.875 3.5625 C7.34413089 7.94105495 7.34443529 9.85834707 4.875 13.5625 C4.215 13.5625 3.555 13.5625 2.875 13.5625 C2.441875 14.490625 2.441875 14.490625 2 15.4375 C0.875 17.5625 0.875 17.5625 -1.125 19.5625 C-3.832554 26.48180466 -4.51564552 34.25328942 -2.21484375 41.3828125 C0.92184261 48.14030402 4.26005733 52.2068965 11.375 54.875 C17.4264453 56.13965751 23.72989611 55.71785375 29.875 55.5625 C29.875 54.9025 29.875 54.2425 29.875 53.5625 C34.25961538 50.5625 34.25961538 50.5625 36.875 50.5625 C37.30425781 49.69431641 37.30425781 49.69431641 37.7421875 48.80859375 C38.4472568 47.41061151 39.17756797 46.02472409 39.9453125 44.66015625 C43.33570625 38.11795202 43.94187236 31.83746587 42.875 24.5625 C41.13066889 20.10873655 38.6129236 17.21843209 35.0625 14.0625 C32.73187257 11.39892579 32.50331436 10.79811423 32.375 7.4375 C32.875 3.5625 32.875 3.5625 34 1.5625 C36.9458343 -0.00861163 38.56639624 -0.01014296 41.875 0.5625 C49.3621132 5.01429704 54.27941924 12.8263029 56.75 21 C59.57034517 32.96560645 57.68900088 43.42105511 51.56640625 53.984375 C45.63946217 63.01851609 37.15633771 67.6596845 26.875 70.5625 C16.37157663 71.57629844 6.79848964 70.96474911 -1.84765625 64.5390625 C-10.32972959 57.21874589 -15.85436424 49.6292923 -18.125 38.5625 C-18.93670235 25.68852326 -17.39014709 16.64701909 -9.125 6.5625 C-8.60292969 5.91539063 -8.08085937 5.26828125 -7.54296875 4.6015625 C-5.14604041 1.90738974 -3.58168679 0.64470362 0 0 Z " fill="#E27934" transform="translate(333.125,22.4375)"/>
<path d="M0 0 C1.20205078 0.01289063 2.40410156 0.02578125 3.64257812 0.0390625 C4.88845703 0.07257812 6.13433594 0.10609375 7.41796875 0.140625 C8.68318359 0.15867187 9.94839844 0.17671875 11.25195312 0.1953125 C14.3705621 0.24238584 17.48762848 0.30813406 20.60546875 0.390625 C20.60546875 1.050625 20.60546875 1.710625 20.60546875 2.390625 C21.59546875 2.720625 22.58546875 3.050625 23.60546875 3.390625 C24.97790091 6.13548932 24.75547758 8.35689803 24.7824707 11.42919922 C24.80172356 13.33159866 24.80172356 13.33159866 24.82136536 15.27243042 C24.82953209 16.66338715 24.83697595 18.05434829 24.84375 19.4453125 C24.84782553 20.14456974 24.85190105 20.84382698 24.85610008 21.56427383 C24.87695796 25.26468867 24.89126138 28.96506644 24.90063477 32.66552734 C24.91170456 36.48795801 24.94611085 40.30980736 24.98580647 44.13203239 C25.0119466 47.07114751 25.02032417 50.01012349 25.02391624 52.94934464 C25.02878828 54.35836848 25.04042001 55.76738587 25.05895424 57.17629623 C25.08328751 59.14847561 25.0799666 61.12093743 25.07543945 63.09326172 C25.08130569 64.21529999 25.08717194 65.33733826 25.09321594 66.49337769 C24.49309819 70.0581128 23.45128851 71.22596292 20.60546875 73.390625 C17.60546875 73.953125 17.60546875 73.953125 14.60546875 73.390625 C11.91818888 71.17923024 10.73901911 69.3568852 10.25964355 65.88851929 C10.14138881 62.68767537 10.15651435 59.51111941 10.21484375 56.30859375 C10.22050354 55.13927811 10.22616333 53.96996246 10.23199463 52.76521301 C10.25435939 49.03576475 10.30455875 45.3072822 10.35546875 41.578125 C10.3755335 39.04753993 10.3937843 36.51693978 10.41015625 33.98632812 C10.45422466 27.78743172 10.52113904 21.58909736 10.60546875 15.390625 C8.97738281 15.46023437 8.97738281 15.46023437 7.31640625 15.53125 C5.87112144 15.56878987 4.42580664 15.60518764 2.98046875 15.640625 C2.26761719 15.67414062 1.55476563 15.70765625 0.8203125 15.7421875 C-4.35440638 15.83713647 -7.35671896 14.92136319 -11.39453125 11.390625 C-12.08203125 7.890625 -12.08203125 7.890625 -11.39453125 4.390625 C-7.7076966 0.61601857 -5.20410128 -0.09865595 0 0 Z " fill="#E27731" transform="translate(126.39453125,17.609375)"/>
<path d="M0 0 C1.21601364 0.55084379 2.44587383 1.07210983 3.6875 1.5625 C6.71244319 2.8752112 7.86714979 3.67325432 10 6 C10.825 6.474375 11.65 6.94875 12.5 7.4375 C15.1678408 9.1049005 16.34801986 10.34838415 18 13 C18.79893471 17.03462028 18.92775262 21.19603657 17.015625 24.9140625 C14.72706244 27.78182917 12.39170618 29.69286427 9 31 C4.74199021 31.41912175 0.487691 31.41391692 -3.78955078 31.42553711 C-5.8622082 31.43742662 -7.93187729 31.48662614 -10.00390625 31.53710938 C-21.19083242 31.59737195 -21.19083242 31.59737195 -24.8203125 28.72265625 C-28.49103828 24.1375382 -29.50041599 21.09109934 -29.39453125 15.2578125 C-28.72202988 11.40924032 -26.79323112 9.66022012 -24 7 C-23.34 6.67 -22.68 6.34 -22 6 C-21.566875 4.8553125 -21.566875 4.8553125 -21.125 3.6875 C-19.84981892 0.64123409 -18.53905691 -0.90901195 -16 -3 C-9.63063258 -5.54774697 -5.32219975 -3.80157125 0 0 Z " fill="#F5F8FA" transform="translate(218,42)"/>
<path d="M0 0 C1.24007813 -0.00257812 2.48015625 -0.00515625 3.7578125 -0.0078125 C5.05460937 -0.00007813 6.35140625 0.00765625 7.6875 0.015625 C9.63269531 0.00402344 9.63269531 0.00402344 11.6171875 -0.0078125 C12.85726563 -0.00523438 14.09734375 -0.00265625 15.375 0 C16.51324219 0.00225586 17.65148437 0.00451172 18.82421875 0.00683594 C21.6875 0.265625 21.6875 0.265625 24.6875 2.265625 C25.07518005 4.98483276 25.07518005 4.98483276 25.09155273 8.48779297 C25.10423691 9.79610077 25.11692108 11.10440857 25.12998962 12.45236206 C25.12793797 13.8875138 25.12494976 15.32266447 25.12109375 16.7578125 C25.12565312 18.2251103 25.13095796 19.69240595 25.13697815 21.15969849 C25.14592339 24.23822694 25.1434713 27.3164962 25.13354492 30.39501953 C25.12206805 34.33859454 25.14223861 38.28127243 25.17146206 42.22472954 C25.1898204 45.25653767 25.18953217 48.28813085 25.18382454 51.31998062 C25.1836712 52.77363466 25.1897263 54.22730315 25.20211601 55.68090439 C25.21700982 57.71544228 25.20372728 59.75012736 25.18920898 61.78466797 C25.18904282 62.94223602 25.18887665 64.09980408 25.18870544 65.29244995 C24.57984768 68.90422379 23.57801759 70.08032375 20.6875 72.265625 C17.6875 72.828125 17.6875 72.828125 14.6875 72.265625 C12.00022013 70.05423024 10.82105036 68.2318852 10.3416748 64.76351929 C10.22342006 61.56267537 10.2385456 58.38611941 10.296875 55.18359375 C10.30253479 54.01427811 10.30819458 52.84496246 10.31402588 51.64021301 C10.33639064 47.91076475 10.38659 44.1822822 10.4375 40.453125 C10.45756475 37.92253993 10.47581555 35.39193978 10.4921875 32.86132812 C10.53625591 26.66243172 10.60317029 20.46409736 10.6875 14.265625 C9.59050781 14.32363281 8.49351562 14.38164063 7.36328125 14.44140625 C5.90889686 14.48832188 4.45446626 14.53382011 3 14.578125 C2.27876953 14.62001953 1.55753906 14.66191406 0.81445312 14.70507812 C-3.35469576 14.80026417 -4.88262708 14.59150537 -8.33203125 11.9765625 C-10.3125 9.265625 -10.3125 9.265625 -10.3125 5.578125 C-8.57740547 -0.16937563 -5.39041107 0.01068315 0 0 Z " fill="#E4752F" transform="translate(265.3125,18.734375)"/>
<path d="M0 0 C3.375 -0.125 3.375 -0.125 7 0 C9 2 9 2 9.25 4.5 C9 7 9 7 7 9 C9.31 9 11.62 9 14 9 C14.33 10.32 14.66 11.64 15 13 C15.66 12.67 16.32 12.34 17 12 C17.33 11.01 17.66 10.02 18 9 C21.96 9.33 25.92 9.66 30 10 C30 12.31 30 14.62 30 17 C29.34 17 28.68 17 28 17 C28 16.01 28 15.02 28 14 C24.1334716 17.222107 23.11940982 20.14922412 22 25 C26.46454981 23.635832 28.2095137 21.65649929 31 18 C31.66 18 32.32 18 33 18 C32.7153924 21.41529114 32.20339329 22.78498424 29.8125 25.3125 C26.46023078 27.32386153 24.83874899 27.73507959 21 27 C18.625 24.5 18.625 24.5 17 22 C16.21625 22.639375 15.4325 23.27875 14.625 23.9375 C10.77567924 26.96196631 8.86593799 27.19463752 4 27 C1.625 26.5 1.625 26.5 0 26 C0 25.01 0 24.02 0 23 C-3.12197478 24.3089572 -3.12197478 24.3089572 -5 27 C-6.66611905 27.042721 -8.33382885 27.04063832 -10 27 C-10.33 26.67 -10.66 26.34 -11 26 C-10.73299692 17.9899075 -8.07476581 11.34086154 -5 4 C-9.64586892 4.48484276 -9.64586892 4.48484276 -14 6 C-13.67 4.35 -13.34 2.7 -13 1 C-11.56208484 1.14168137 -10.1246763 1.28851043 -8.6875 1.4375 C-7.88699219 1.51871094 -7.08648437 1.59992188 -6.26171875 1.68359375 C-4 2 -4 2 -1 3 C-0.67 2.01 -0.34 1.02 0 0 Z " fill="#E8EFF7" transform="translate(200,116)"/>
<path d="M0 0 C2.73951593 2.81507411 3.3784291 4.84623837 3.40405273 8.72094727 C3.41673691 9.65193741 3.42942108 10.58292755 3.44248962 11.54212952 C3.43955399 12.54014084 3.43661835 13.53815216 3.43359375 14.56640625 C3.4388356 15.59684555 3.44407745 16.62728485 3.44947815 17.68894958 C3.45589648 19.86513366 3.45456382 22.04135243 3.44604492 24.2175293 C3.4375221 27.55384703 3.46632087 30.88846024 3.49804688 34.22460938 C3.4996586 36.33854115 3.49908191 38.45247597 3.49609375 40.56640625 C3.51294472 42.06645958 3.51294472 42.06645958 3.53013611 43.59681702 C3.52075516 44.524655 3.51137421 45.45249298 3.50170898 46.40844727 C3.50154282 47.22467056 3.50137665 48.04089386 3.50120544 48.8818512 C3 51 3 51 1.15614319 52.75572205 C-1.82453027 54.47582407 -3.61556645 54.56407226 -7 54 C-9.44267905 51.85213659 -10.8125557 50.08679994 -11.37329102 46.83566284 C-11.53001686 44.15199794 -11.55425928 41.49677285 -11.53125 38.80859375 C-11.5350769 37.82633316 -11.53890381 36.84407257 -11.54284668 35.83204651 C-11.54556328 33.76017224 -11.53821976 31.68826353 -11.52148438 29.61645508 C-11.50004865 26.44469893 -11.5213068 23.27520203 -11.546875 20.10351562 C-11.54423213 18.08853667 -11.53910799 16.07355912 -11.53125 14.05859375 C-11.54339539 12.63660927 -11.54339539 12.63660927 -11.55578613 11.18589783 C-11.46281441 4.66395396 -11.46281441 4.66395396 -9.18945312 1.40258789 C-5.97126031 -0.65902203 -3.72970246 -0.54250218 0 0 Z " fill="#E27B37" transform="translate(19,37)"/>
<path d="M0 0 C2.25 0.4375 2.25 0.4375 3.25 1.4375 C3.01007803 7.55551014 1.43655481 10.25094519 -2.75 14.4375 C-3.74 14.7675 -4.73 15.0975 -5.75 15.4375 C-6.08 17.7475 -6.41 20.0575 -6.75 22.4375 C-4.80000871 22.24278889 -4.80000871 22.24278889 -2.75 21.4375 C-2.05062468 20.12102881 -1.38270867 18.78727849 -0.75 17.4375 C0.24 17.1075 1.23 16.7775 2.25 16.4375 C2.95151152 15.1221659 3.61525925 13.78632408 4.25 12.4375 C5.5 10.6875 5.5 10.6875 7.25 9.4375 C10.3125 9.125 10.3125 9.125 13.25 9.4375 C15.25 11.4375 15.25 11.4375 15.375 15.0625 C15.33375 16.17625 15.2925 17.29 15.25 18.4375 C16.9 17.7775 18.55 17.1175 20.25 16.4375 C20 18.30078125 20 18.30078125 19.25 20.4375 C17.4375 21.66796875 17.4375 21.66796875 15.25 22.625 C12.54302945 23.72704461 12.54302945 23.72704461 10.25 25.4375 C7.3125 25.625 7.3125 25.625 4.25 25.4375 C3.59 24.7775 2.93 24.1175 2.25 23.4375 C2.25 22.4475 2.25 21.4575 2.25 20.4375 C1.80269531 20.7984375 1.35539062 21.159375 0.89453125 21.53125 C-4.08071439 25.35020188 -4.08071439 25.35020188 -7.625 25.8125 C-9.75 25.4375 -9.75 25.4375 -10.75 24.4375 C-11.65325006 16.65565335 -10.08415527 9.20339162 -5.375 2.875 C-2.75 0.4375 -2.75 0.4375 0 0 Z " fill="#5F7FAC" transform="translate(306.75,117.5625)"/>
<path d="M0 0 C1.92578125 0.2734375 1.92578125 0.2734375 2.92578125 1.2734375 C3.10001726 5.10662979 2.80381493 8.54179436 1.92578125 12.2734375 C2.37953125 11.6134375 2.83328125 10.9534375 3.30078125 10.2734375 C3.83703125 9.6134375 4.37328125 8.9534375 4.92578125 8.2734375 C5.58578125 8.2734375 6.24578125 8.2734375 6.92578125 8.2734375 C6.36708756 11.71381443 5.45322563 12.97054383 2.67578125 15.0234375 C-0.78246782 17.8027665 -2.73358179 20.70942079 -4.9609375 24.50390625 C-6.38250897 26.7634567 -7.67969938 28.07617781 -10.07421875 29.2734375 C-12.76171875 29.5234375 -12.76171875 29.5234375 -15.07421875 29.2734375 C-16.07421875 28.2734375 -16.07421875 28.2734375 -16.41796875 25.91796875 C-16.07421875 23.2734375 -16.07421875 23.2734375 -14.10546875 21.47265625 C-13.27015625 20.97378906 -12.43484375 20.47492188 -11.57421875 19.9609375 C-10.73890625 19.44917969 -9.90359375 18.93742187 -9.04296875 18.41015625 C-8.39328125 18.03503906 -7.74359375 17.65992188 -7.07421875 17.2734375 C-8.72421875 16.2834375 -10.37421875 15.2934375 -12.07421875 14.2734375 C-11.8822099 9.86683447 -11.53190921 6.20788885 -9.57421875 2.2109375 C-6.2924051 -0.33246808 -4.04676017 -0.17220256 0 0 Z " fill="#577AAA" transform="translate(340.07421875,126.7265625)"/>
<path d="M0 0 C1.65 0.33 3.3 0.66 5 1 C4.25749403 5.08378283 3.17076699 9.01939223 2 13 C2.7425 12.195625 3.485 11.39125 4.25 10.5625 C7 8 7 8 9.125 7.5 C11.29236458 7.14329772 11.29236458 7.14329772 12.625 4.5625 C13.07875 3.716875 13.5325 2.87125 14 2 C16 0 16 0 18.5625 -0.1875 C21 0 21 0 22 1 C22.46153846 6.30769231 22.46153846 6.30769231 20.75 8.875 C19 10 19 10 15 10 C15 11.32 15 12.64 15 14 C19.11543159 12.17091929 21.45106117 10.69596131 24 7 C24.66 7 25.32 7 26 7 C25.4568634 10.80195622 23.84334437 12.50130343 21 15 C18.26094655 16.36952673 16.02912668 16.12621361 13 16 C11 15 11 15 10 12 C7.53199953 13.15173355 5.95216435 14.04783565 4 16 C-0.55555556 15.44444444 -0.55555556 15.44444444 -2 14 C-1.9356887 12.20512995 -1.79860014 10.41261222 -1.625 8.625 C-1.53476562 7.64789063 -1.44453125 6.67078125 -1.3515625 5.6640625 C-1 3 -1 3 0 0 Z " fill="#6585B1" transform="translate(351,127)"/>
<path d="M0 0 C1.65 0.66 3.3 1.32 5 2 C5.0926956 10.53619235 5.16376219 19.07217429 5.20724869 27.60874557 C5.22812052 31.57267793 5.25642999 35.53626587 5.30175781 39.5 C5.34523119 43.32552727 5.36914015 47.15072334 5.37950897 50.97647858 C5.38689778 52.43575505 5.40132665 53.89501346 5.42292023 55.35414886 C5.45197624 57.398932 5.45595541 59.4423482 5.45410156 61.48730469 C5.46298401 62.65090515 5.47186646 63.81450562 5.48101807 65.0133667 C4.89611534 68.64501814 3.90493002 69.809498 1 72 C-2 72.5625 -2 72.5625 -5 72 C-7.68727987 69.78860524 -8.86644964 67.9662602 -9.3458252 64.49789429 C-9.46407994 61.29705037 -9.4489544 58.12049441 -9.390625 54.91796875 C-9.38496521 53.74865311 -9.37930542 52.57933746 -9.37347412 51.37458801 C-9.35110936 47.64513975 -9.30091 43.9166572 -9.25 40.1875 C-9.22993525 37.65691493 -9.21168445 35.12631478 -9.1953125 32.59570312 C-9.15124378 26.39676414 -9.08221302 20.19854572 -9 14 C-14.28 14 -19.56 14 -25 14 C-25 13.67 -25 13.34 -25 13 C-22.18743719 12.97315688 -19.37512759 12.95323812 -16.5625 12.9375 C-15.76005859 12.92912109 -14.95761719 12.92074219 -14.13085938 12.91210938 C-12.08704779 12.9034857 -10.04316098 12.9477185 -8 13 C-6.34003132 14.65996868 -6.84130492 16.64721948 -6.81054688 18.93115234 C-6.79382935 19.98249359 -6.77711182 21.03383484 -6.7598877 22.11703491 C-6.74631226 23.26177277 -6.73273682 24.40651062 -6.71875 25.5859375 C-6.69113586 27.33772812 -6.69113586 27.33772812 -6.66296387 29.12490845 C-6.60399635 32.87488594 -6.55128574 36.62491004 -6.5 40.375 C-6.4324622 45.29957832 -6.35874868 50.22400704 -6.28125 55.1484375 C-6.26767456 56.28912689 -6.25409912 57.42981628 -6.2401123 58.60507202 C-6.22339478 59.66271759 -6.20667725 60.72036316 -6.18945312 61.81005859 C-6.17692505 62.74191986 -6.16439697 63.67378113 -6.15148926 64.63388062 C-6.09128592 67.15108706 -6.09128592 67.15108706 -5 70 C-2.69 70 -0.38 70 2 70 C2 68.68 2 67.36 2 66 C2.66 66 3.32 66 4 66 C3.93881048 58.09814788 3.86172093 50.19667975 3.76428509 42.29519939 C3.71954286 38.62626526 3.68029566 34.95744315 3.65356445 31.28833008 C3.62756926 27.74789938 3.58719483 24.20789888 3.53681374 20.66773415 C3.51199022 18.65868965 3.50209019 16.64947883 3.49235535 14.64030457 C3.47256119 13.41926529 3.45276703 12.19822601 3.43237305 10.94018555 C3.42126999 9.86318893 3.41016693 8.78619232 3.39872742 7.67655945 C2.94726481 4.64600161 2.26829726 3.93068323 0 2 C0 1.34 0 0.68 0 0 Z " fill="#DD9257" transform="translate(285,19)"/>
<path d="M0 0 C1.32 0.33 2.64 0.66 4 1 C3.835 1.9075 3.67 2.815 3.5 3.75 C2.89862854 7.11087503 2.89862854 7.11087503 3 11 C3.66 10.34 4.32 9.68 5 9 C6.32 9 7.64 9 9 9 C8 17.57142857 8 17.57142857 7 21 C8.175625 19.7625 8.175625 19.7625 9.375 18.5 C12 16 12 16 14 16 C13.65657251 19.09084737 12.74044345 20.32444569 10.75 22.8125 C8 25 8 25 5.1875 24.8125 C4.465625 24.544375 3.74375 24.27625 3 24 C2.875 17.25 2.875 17.25 4 15 C3.34 15 2.68 15 2 15 C1.5978125 15.804375 1.5978125 15.804375 1.1875 16.625 C-0.20833333 19.41666667 -1.60416667 22.20833333 -3 25 C-3.99 25 -4.98 25 -6 25 C-6.3908344 18.93392435 -5.03396206 14.24751558 -3 8.5625 C-2.71382812 7.73556641 -2.42765625 6.90863281 -2.1328125 6.05664062 C-1.43146095 4.03441032 -0.71705448 2.01671572 0 0 Z " fill="#5D7FB0" transform="translate(240,118)"/>
<path d="M0 0 C3.375 -0.125 3.375 -0.125 7 0 C7.66 0.66 8.32 1.32 9 2 C8.46428571 5.53571429 8.46428571 5.53571429 7 7 C4.32941149 7.14115161 1.67567762 7.04247107 -1 7 C-1.12246094 7.66386719 -1.24492187 8.32773438 -1.37109375 9.01171875 C-2.13656055 12.64887465 -3.09131076 16.22630652 -4.0625 19.8125 C-4.24876953 20.50537109 -4.43503906 21.19824219 -4.62695312 21.91210938 C-5.08321198 23.60845641 -5.54140954 25.3042818 -6 27 C-7.65 26.67 -9.3 26.34 -11 26 C-10.59200675 17.97613274 -8.08963187 11.37635358 -5 4 C-9.64586892 4.48484276 -9.64586892 4.48484276 -14 6 C-13.67 4.35 -13.34 2.7 -13 1 C-11.56208484 1.14168137 -10.1246763 1.28851043 -8.6875 1.4375 C-7.88699219 1.51871094 -7.08648437 1.59992188 -6.26171875 1.68359375 C-4 2 -4 2 -1 3 C-0.67 2.01 -0.34 1.02 0 0 Z " fill="#567BAE" transform="translate(200,116)"/>
<path d="M0 0 C2.4375 0.375 2.4375 0.375 5 1 C5.33 1.66 5.66 2.32 6 3 C6.391875 2.484375 6.78375 1.96875 7.1875 1.4375 C7.785625 0.963125 8.38375 0.48875 9 0 C11.6875 0.3125 11.6875 0.3125 14 1 C13.68950274 2.43793392 13.3765224 3.8753318 13.0625 5.3125 C12.88847656 6.11300781 12.71445312 6.91351563 12.53515625 7.73828125 C12 10 12 10 11 13 C13.87420123 10.28395285 13.87420123 10.28395285 16 7 C16.66 7 17.32 7 18 7 C17.65544802 10.10096781 17.15182706 11.79937138 15.25 14.3125 C12.5752155 16.31858838 11.26880947 16.44173101 8 16 C7 15 7 15 6.90234375 13.15234375 C6.95117188 10.07617188 6.95117188 10.07617188 7 7 C3.53028623 11.02347588 3.53028623 11.02347588 2 16 C0.35 15.67 -1.3 15.34 -3 15 C-2.125 9.125 -2.125 9.125 -1 8 C-0.76924918 6.65252916 -0.58846937 5.29622435 -0.4375 3.9375 C-0.2209375 1.9884375 -0.2209375 1.9884375 0 0 Z " fill="#6382B1" transform="translate(257,127)"/>
<path d="M0 0 C1.20205078 0.01289063 2.40410156 0.02578125 3.64257812 0.0390625 C4.88845703 0.07257812 6.13433594 0.10609375 7.41796875 0.140625 C8.68318359 0.15867187 9.94839844 0.17671875 11.25195312 0.1953125 C14.3705621 0.24238584 17.48762848 0.30813406 20.60546875 0.390625 C20.60546875 0.720625 20.60546875 1.050625 20.60546875 1.390625 C12.35546875 1.390625 4.10546875 1.390625 -4.39453125 1.390625 C-4.39453125 2.050625 -4.39453125 2.710625 -4.39453125 3.390625 C-5.38453125 3.390625 -6.37453125 3.390625 -7.39453125 3.390625 C-7.39453125 6.360625 -7.39453125 9.330625 -7.39453125 12.390625 C-6.10675781 12.45121094 -4.81898437 12.51179688 -3.4921875 12.57421875 C-1.81378966 12.65860747 -0.13540489 12.7432563 1.54296875 12.828125 C2.39310547 12.86744141 3.24324219 12.90675781 4.11914062 12.94726562 C5.3324707 13.01010742 5.3324707 13.01010742 6.5703125 13.07421875 C7.69360962 13.12920532 7.69360962 13.12920532 8.83959961 13.18530273 C10.60546875 13.390625 10.60546875 13.390625 11.60546875 14.390625 C11.69900038 16.07864485 11.72291666 17.77057707 11.71899414 19.46118164 C11.71891861 20.54222672 11.71884308 21.62327179 11.71876526 22.73707581 C11.71360397 23.9130986 11.70844269 25.0891214 11.703125 26.30078125 C11.70171005 27.49795273 11.7002951 28.69512421 11.69883728 29.92857361 C11.69321854 33.77011566 11.68066286 37.61160043 11.66796875 41.453125 C11.66295616 44.05012937 11.65839284 46.64713465 11.65429688 49.24414062 C11.64324302 55.62632179 11.62648667 62.0084693 11.60546875 68.390625 C11.27546875 68.390625 10.94546875 68.390625 10.60546875 68.390625 C10.60546875 50.900625 10.60546875 33.410625 10.60546875 15.390625 C5.32546875 15.390625 0.04546875 15.390625 -5.39453125 15.390625 C-7.37453125 14.070625 -9.35453125 12.750625 -11.39453125 11.390625 C-12.08203125 7.890625 -12.08203125 7.890625 -11.39453125 4.390625 C-7.7076966 0.61601857 -5.20410128 -0.09865595 0 0 Z " fill="#E79F66" transform="translate(126.39453125,17.609375)"/>
<path d="M0 0 C2.375 1.625 2.375 1.625 4 4 C4.61195145 7.6717087 4.48706506 9.28813568 2.375 12.375 C-0.71186432 14.48706506 -2.3282913 14.61195145 -6 14 C-8.4375 12.4375 -8.4375 12.4375 -10 10 C-9.93866496 6.5039028 -9.65265114 4.06485186 -7.8125 1.0625 C-5.04411529 -0.56034621 -3.14454533 -0.44922076 0 0 Z " fill="#587CB0" transform="translate(308,18)"/>
<path d="M0 0 C1.9375 1.125 1.9375 1.125 3 3 C3.4375 6.5 3.4375 6.5 3 10 C1.4375 11.9375 1.4375 11.9375 -1 13 C-4.625 13.375 -4.625 13.375 -8 13 C-10.54440716 9.18338925 -10.57622479 6.4703891 -10 2 C-7.76091709 -2.34645507 -4.19256591 -1.04814148 0 0 Z " fill="#5A7BAC" transform="translate(102,19)"/>
<path d="M0 0 C2.5 0.5625 2.5 0.5625 4.8125 2.6875 C6.77372261 6.02884223 7.07977821 7.75252893 6.5 11.5625 C5.4375 13.4375 5.4375 13.4375 3.5 14.5625 C0 15 0 15 -3.5 14.5625 C-6.12541413 12.36053976 -6.4445448 10.94276421 -6.9375 7.5625 C-6.5 4.5625 -6.5 4.5625 -4.8125 2.1875 C-2.5 0.5625 -2.5 0.5625 0 0 Z " fill="#4F76AE" transform="translate(352.5,15.4375)"/>
<path d="M0 0 C2.5 0.5625 2.5 0.5625 4.8125 2.6875 C6.77372261 6.02884223 7.07977821 7.75252893 6.5 11.5625 C5.4375 13.4375 5.4375 13.4375 3.5 14.5625 C0 15 0 15 -3.5 14.5625 C-6.12541413 12.36053976 -6.4445448 10.94276421 -6.9375 7.5625 C-6.5 4.5625 -6.5 4.5625 -4.8125 2.1875 C-2.5 0.5625 -2.5 0.5625 0 0 Z " fill="#4A74AE" transform="translate(165.5,17.4375)"/>
<path d="M0 0 C3.625 0.3125 3.625 0.3125 6.0625 1.4375 C7.625 3.3125 7.625 3.3125 8.125 6.25 C7.625 9.3125 7.625 9.3125 6 11.6875 C2.94714079 13.77629841 1.25531776 13.85318562 -2.375 13.3125 C-4.25 12.3125 -4.25 12.3125 -5.375 10.3125 C-5.73595911 7.51076973 -5.60216238 5.17474598 -5.375 2.3125 C-3.375 0.3125 -3.375 0.3125 0 0 Z " fill="#4B74B0" transform="translate(14.375,16.6875)"/>
<path d="M0 0 C2.5625 0.1875 2.5625 0.1875 4.5625 2.1875 C4.34534397 5.01052844 3.94682599 6.69835783 2.1875 8.9375 C0.5625 10.1875 0.5625 10.1875 -2.4375 11.1875 C-2.7675 12.1775 -3.0975 13.1675 -3.4375 14.1875 C0.13177631 12.52183772 2.85203038 11.0334931 5.5625 8.1875 C6.2225 8.1875 6.8825 8.1875 7.5625 8.1875 C7.4375 9.9375 7.4375 9.9375 6.5625 12.1875 C3.44826561 14.794766 1.35816256 16.08039158 -2.6875 16.625 C-4.04875 16.4084375 -4.04875 16.4084375 -5.4375 16.1875 C-7.4375 13.1875 -7.4375 13.1875 -7.25 9.8125 C-6.27133145 5.4461326 -4.97026199 0.38232785 0 0 Z " fill="#527AAD" transform="translate(209.4375,126.8125)"/>
<path d="M0 0 C1.32 0 2.64 0 4 0 C4.33 3.63 4.66 7.26 5 11 C5.99 11 6.98 11 8 11 C8.33 10.01 8.66 9.02 9 8 C9.66 8.33 10.32 8.66 11 9 C10.1875 10.9375 10.1875 10.9375 9 13 C8.01 13.33 7.02 13.66 6 14 C5.40929986 15.94603274 5.40929986 15.94603274 5 18 C3 20 3 20 -0.125 20.125 C-1.548125 20.063125 -1.548125 20.063125 -3 20 C-3.33 18.68 -3.66 17.36 -4 16 C-3.33355469 15.63132813 -2.66710937 15.26265625 -1.98046875 14.8828125 C0.32703581 13.12350517 0.32703581 13.12350517 0.13671875 10.1171875 C-0.01152344 9.04726562 -0.15976562 7.97734375 -0.3125 6.875 C-0.56801868 4.91993043 -0.80380887 2.96191127 -1 1 C-0.67 0.67 -0.34 0.34 0 0 Z " fill="#4D71A7" transform="translate(380,126)"/>
<path d="M0 0 C0.68707555 2.49064888 1 4.37886292 1 7 C1.99 7.33 2.98 7.66 4 8 C4.33 5.36 4.66 2.72 5 0 C5.66 0.33 6.32 0.66 7 1 C7 3.31 7 5.62 7 8 C7.45375 7.505 7.9075 7.01 8.375 6.5 C10 5 10 5 12 5 C11.64899307 7.73785408 11.31993294 8.74881298 9.109375 10.484375 C8.33078125 10.90203125 7.5521875 11.3196875 6.75 11.75 C5.98171875 12.17796875 5.2134375 12.6059375 4.421875 13.046875 C1.72129206 14.10968506 -0.12375475 14.32816221 -3 14 C-5.3920839 11.6079161 -5.34576948 10.84861114 -5.4375 7.5625 C-5.40234375 5.1328125 -5.40234375 5.1328125 -5 3 C-2.5 0.9375 -2.5 0.9375 0 0 Z " fill="#5777A8" transform="translate(282,129)"/>
<path d="M0 0 C3.0625 0.1875 3.0625 0.1875 5.0625 2.1875 C5.1875 5.8125 5.1875 5.8125 5.0625 9.1875 C6.7125 8.5275 8.3625 7.8675 10.0625 7.1875 C9.8125 9.05078125 9.8125 9.05078125 9.0625 11.1875 C7.25 12.41796875 7.25 12.41796875 5.0625 13.375 C2.35552945 14.47704461 2.35552945 14.47704461 0.0625 16.1875 C-2.9375 16.3125 -2.9375 16.3125 -5.9375 16.1875 C-6.9375 15.1875 -6.9375 15.1875 -7 12.625 C-6.979375 11.820625 -6.95875 11.01625 -6.9375 10.1875 C-5.9475 10.5175 -4.9575 10.8475 -3.9375 11.1875 C-4.2675 12.1775 -4.5975 13.1675 -4.9375 14.1875 C-3.6175 14.1875 -2.2975 14.1875 -0.9375 14.1875 C-0.9375 13.5275 -0.9375 12.8675 -0.9375 12.1875 C-1.5975 12.1875 -2.2575 12.1875 -2.9375 12.1875 C-2.9375 11.5275 -2.9375 10.8675 -2.9375 10.1875 C-1.2875 10.1875 0.3625 10.1875 2.0625 10.1875 C2.0625 7.8775 2.0625 5.5675 2.0625 3.1875 C1.0725 3.1875 0.0825 3.1875 -0.9375 3.1875 C-1.5975 4.8375 -2.2575 6.4875 -2.9375 8.1875 C-3.9275 7.8575 -4.9175 7.5275 -5.9375 7.1875 C-3.7193854 0.23740758 -3.7193854 0.23740758 0 0 Z " fill="#6686B4" transform="translate(316.9375,126.8125)"/>
<path d="M0 0 C1.9375 0.3125 1.9375 0.3125 4 1 C4.90653701 3.71961104 5.1442617 5.40334946 5.19287109 8.20849609 C5.20893402 9.05302338 5.22499695 9.89755066 5.24154663 10.76766968 C5.28612179 14.61951759 5.32704271 18.47119669 5.35009766 22.32324219 C5.36667095 24.35428311 5.39397897 26.38526539 5.43212891 28.41601562 C5.48690051 31.34796321 5.50876974 34.27854723 5.5234375 37.2109375 C5.54610687 38.11629242 5.56877625 39.02164734 5.59213257 39.95443726 C5.57691736 44.49668707 5.47754768 46.38504955 2.60717773 50.08129883 C-1.27140156 52.93566297 -3.32238908 52.3964077 -8 52 C-7.67 51.34 -7.34 50.68 -7 50 C-6.071875 50.0825 -5.14375 50.165 -4.1875 50.25 C-0.96946074 50.35226294 -0.96946074 50.35226294 0.67219543 48.26519775 C2.14152766 45.75855774 2.39102162 44.38489547 2.43237305 41.50683594 C2.45216721 40.62622498 2.47196136 39.74561401 2.49235535 38.83831787 C2.49874527 37.89651672 2.50513519 36.95471558 2.51171875 35.984375 C2.52966995 35.01340881 2.54762115 34.04244263 2.56611633 33.04205322 C2.62024273 29.94474615 2.65412283 26.8475934 2.6875 23.75 C2.72067098 21.64841602 2.75516043 19.5468524 2.79101562 17.4453125 C2.87597073 12.29698629 2.94277108 7.14870605 3 2 C2.01 1.67 1.02 1.34 0 1 C0 0.67 0 0.34 0 0 Z " fill="#FBE9D0" transform="translate(102,40)"/>
<path d="M0 0 C2.8125 0.375 2.8125 0.375 3.8125 1.375 C3.85313832 3.04117115 3.855221 4.70888095 3.8125 6.375 C3.1525 6.375 2.4925 6.375 1.8125 6.375 C1.8125 5.385 1.8125 4.395 1.8125 3.375 C-2.0540284 6.597107 -3.06809018 9.52422412 -4.1875 14.375 C0.27704981 13.010832 2.0220137 11.03149929 4.8125 7.375 C5.4725 7.375 6.1325 7.375 6.8125 7.375 C6.5278924 10.79029114 6.01589329 12.15998424 3.625 14.6875 C0.3467501 16.65444994 -1.42786658 16.87628446 -5.1875 16.375 C-7.56974928 13.99275072 -7.50767149 13.3247963 -7.5625 10.0625 C-7.47637177 6.72503098 -7.17495346 5.3513546 -5.5625 2.3125 C-3.1875 0.375 -3.1875 0.375 0 0 Z " fill="#6984AC" transform="translate(226.1875,126.625)"/>
<path d="M0 0 C2.63492038 3.95238057 1.88135788 6.57222587 1 11 C0.06557894 15.01801055 -0.94331552 19.01251139 -2 23 C-3.65 22.67 -5.3 22.34 -7 22 C-6.58638429 15.83855222 -5.61296011 10.62791409 -3 5 C-2.01 4.67 -1.02 4.34 0 4 C0 2.68 0 1.36 0 0 Z " fill="#5377AB" transform="translate(196,120)"/>
<path d="M0 0 C0.66 0 1.32 0 2 0 C2.33 2.31 2.66 4.62 3 7 C5.31 7.33 7.62 7.66 10 8 C10 8.33 10 8.66 10 9 C9.0925 9.226875 8.185 9.45375 7.25 9.6875 C3.42316293 11.23295343 2.44756272 12.73658304 0 16 C-6.25411765 22 -6.25411765 22 -9 22 C-9.375 18.75 -9.375 18.75 -9 15 C-6.1875 12.875 -6.1875 12.875 -3 11 C-0.07324013 7.29277083 0.3259948 4.67259219 0 0 Z " fill="#E8EFF8" transform="translate(309,118)"/>
<path d="M0 0 C0.33 0.66 0.66 1.32 1 2 C0.67 2.66 0.34 3.32 0 4 C3.12197478 2.6910428 3.12197478 2.6910428 5 0 C5.99 0 6.98 0 8 0 C8 2.31 8 4.62 8 7 C6.35 7 4.7 7 3 7 C3 7.66 3 8.32 3 9 C3.66 9 4.32 9 5 9 C5 9.66 5 10.32 5 11 C3.68 11 2.36 11 1 11 C1 10.01 1 9.02 1 8 C0.34 7.67 -0.32 7.34 -1 7 C-1.33 8.32 -1.66 9.64 -2 11 C-2 10.01 -2 9.02 -2 8 C-2.9075 8.680625 -3.815 9.36125 -4.75 10.0625 C-8 12 -8 12 -10.375 11.75 C-10.91125 11.5025 -11.4475 11.255 -12 11 C-11.67 9.68 -11.34 8.36 -11 7 C-11 7.99 -11 8.98 -11 10 C-9.05000871 9.80528889 -9.05000871 9.80528889 -7 9 C-6.30062468 7.68352881 -5.63270867 6.34977849 -5 5 C-4.01 4.67 -3.02 4.34 -2 4 C-0.79117904 1.99983534 -0.79117904 1.99983534 0 0 Z " fill="#7595C1" transform="translate(311,130)"/>
<path d="M0 0 C3.96 0.33 7.92 0.66 12 1 C11.67 1.66 11.34 2.32 11 3 C10.071875 2.9175 9.14375 2.835 8.1875 2.75 C5.01961416 2.69091195 5.01961416 2.69091195 3.1875 4.5 C1.52293788 8.00434131 1.32191367 11.13703594 1 15 C-1 12 -1 12 -1 10 C-1.54269531 10.433125 -2.08539063 10.86625 -2.64453125 11.3125 C-3.35996094 11.869375 -4.07539063 12.42625 -4.8125 13 C-5.87404297 13.8353125 -5.87404297 13.8353125 -6.95703125 14.6875 C-9 16 -9 16 -12 16 C-11.8125 14.1875 -11.8125 14.1875 -11 12 C-9.33720673 10.9935725 -7.67016516 9.99414593 -6 9 C-4.94895617 7.36504293 -3.94011682 5.70116376 -3 4 C-2.34 3.67 -1.68 3.34 -1 3 C-0.67 2.01 -0.34 1.02 0 0 Z " fill="#E5EDF6" transform="translate(218,125)"/>
<path d="M0 0 C0.66 0 1.32 0 2 0 C2.07408447 6.21131774 2.12857114 12.42237905 2.16479492 18.6340332 C2.1798936 20.74768554 2.20037426 22.86130648 2.22631836 24.97485352 C2.26265397 28.01065815 2.27971544 31.04604906 2.29296875 34.08203125 C2.30845261 35.02899368 2.32393646 35.97595612 2.33988953 36.95161438 C2.34011612 37.83230087 2.34034271 38.71298737 2.34057617 39.62036133 C2.34723801 40.39535477 2.35389984 41.17034821 2.36076355 41.96882629 C2 44 2 44 -1 47 C-0.67 31.49 -0.34 15.98 0 0 Z " fill="#D48346" transform="translate(103,42)"/>
<path d="M0 0 C1.32 0 2.64 0 4 0 C4.08912219 3.83225427 3.87867729 7.26562152 3 11 C3.45375 10.34 3.9075 9.68 4.375 9 C4.91125 8.34 5.4475 7.68 6 7 C6.66 7 7.32 7 8 7 C7.61094382 9.72339328 6.93262433 11.08903214 5.25 13.3125 C3 15 3 15 0.25 14.75 C-0.4925 14.5025 -1.235 14.255 -2 14 C-1.67 12.68 -1.34 11.36 -1 10 C-1.66 10 -2.32 10 -3 10 C-2.69201674 8.51988629 -2.378482 7.04092675 -2.0625 5.5625 C-1.88847656 4.73878906 -1.71445312 3.91507813 -1.53515625 3.06640625 C-1 1 -1 1 0 0 Z " fill="#5377AA" transform="translate(339,128)"/>
<path d="M0 0 C0.33 0.33 0.66 0.66 1 1 C0.75988223 7.12300326 -0.93734237 9.72900096 -5 14 C-5.66 13.34 -6.32 12.68 -7 12 C-6.63910592 8.51135721 -4.8589578 5.90967307 -3 3 C-6.33537489 4.11179163 -7.63707344 5.47411298 -10 8 C-7.99078039 2.28145189 -6.46880038 -0.68092636 0 0 Z " fill="#6684B2" transform="translate(309,118)"/>
<path d="M0 0 C0.12375 0.639375 0.2475 1.27875 0.375 1.9375 C0.58125 2.618125 0.7875 3.29875 1 4 C1.66 4.33 2.32 4.66 3 5 C0.66666667 7.33333333 -1.66666667 9.66666667 -4 12 C-5.32 12 -6.64 12 -8 12 C-7.25531915 4.25531915 -7.25531915 4.25531915 -4 1 C-3.34 1 -2.68 1 -2 1 C-2 1.99 -2 2.98 -2 4 C-1.34 4 -0.68 4 0 4 C0 2.68 0 1.36 0 0 Z " fill="#C2D4E8" transform="translate(230,129)"/>
<path d="M0 0 C3.625 0.3125 3.625 0.3125 6.0625 1.4375 C7.625 3.3125 7.625 3.3125 8.125 6.25 C7.625 9.3125 7.625 9.3125 6 11.6875 C3.0212104 13.7256192 1.16177664 13.63402515 -2.375 13.3125 C-2.375 12.6525 -2.375 11.9925 -2.375 11.3125 C0.625 10.3125 0.625 10.3125 3.625 11.3125 C3.625 10.3225 3.625 9.3325 3.625 8.3125 C4.285 8.3125 4.945 8.3125 5.625 8.3125 C5.295 6.6625 4.965 5.0125 4.625 3.3125 C2.315 2.6525 0.005 1.9925 -2.375 1.3125 C-3.035 4.2825 -3.695 7.2525 -4.375 10.3125 C-4.705 10.3125 -5.035 10.3125 -5.375 10.3125 C-5.5703125 4.2578125 -5.5703125 4.2578125 -5.375 2.3125 C-3.375 0.3125 -3.375 0.3125 0 0 Z " fill="#607DAB" transform="translate(14.375,16.6875)"/>
<path d="M0 0 C1.32 0.66 2.64 1.32 4 2 C3.67 4.31 3.34 6.62 3 9 C0.6739143 9.38063221 -1.66055264 9.71269945 -4 10 C-5 9 -5 9 -5.375 6.6875 C-5 4 -5 4 -2.5 1.6875 C-1.2625 0.8521875 -1.2625 0.8521875 0 0 Z " fill="#718BB0" transform="translate(329,146)"/>
<path d="M0 0 C0.33 0 0.66 0 1 0 C1 2.31 1 4.62 1 7 C1.66 7 2.32 7 3 7 C3 7.99 3 8.98 3 10 C2.195625 10.309375 1.39125 10.61875 0.5625 10.9375 C-1.89080405 11.76335345 -1.89080405 11.76335345 -3 13 C-6 13.125 -6 13.125 -9 13 C-10 12 -10 12 -10.0625 9.4375 C-10.041875 8.633125 -10.02125 7.82875 -10 7 C-9.01 7.33 -8.02 7.66 -7 8 C-7.33 8.99 -7.66 9.98 -8 11 C-6.68 11 -5.36 11 -4 11 C-4 10.34 -4 9.68 -4 9 C-4.66 9 -5.32 9 -6 9 C-6 8.34 -6 7.68 -6 7 C-4.35 7 -2.7 7 -1 7 C-0.67 4.69 -0.34 2.38 0 0 Z " fill="#5D7CAB" transform="translate(320,130)"/>
<path d="M0 0 C0.99 0.33 1.98 0.66 3 1 C3.061875 1.94875 3.12375 2.8975 3.1875 3.875 C3.455625 4.90625 3.72375 5.9375 4 7 C6.46255685 8.45291273 6.46255685 8.45291273 9 9 C7.18887927 11.28773145 6.39279457 11.95209822 3.4375 12.3125 C1 12 1 12 -1 10 C-1.23046875 7.87109375 -1.23046875 7.87109375 -1.1875 5.4375 C-1.18105469 4.63183594 -1.17460937 3.82617188 -1.16796875 2.99609375 C-1 1 -1 1 0 0 Z " fill="#5F7DB2" transform="translate(278,131)"/>
<path d="M0 0 C0.99 0.495 0.99 0.495 2 1 C1.99555878 1.55488098 1.99111755 2.10976196 1.98654175 2.68145752 C1.94229643 8.45639471 1.91212858 14.23128373 1.89013672 20.00634766 C1.8800789 22.16164099 1.86643101 24.31692068 1.84912109 26.47216797 C1.82486338 29.57002124 1.81351468 32.66769409 1.8046875 35.765625 C1.79436493 36.72929993 1.78404236 37.69297485 1.77340698 38.68585205 C1.77325592 39.58648376 1.77310486 40.48711548 1.77294922 41.41503906 C1.768508 42.20557678 1.76406677 42.9961145 1.75949097 43.81060791 C2.02803153 46.25517547 2.78117843 47.88156035 4 50 C2.68 50 1.36 50 0 50 C0 33.5 0 17 0 0 Z " fill="#FDF9E7" transform="translate(7,40)"/>
<path d="M0 0 C0.99 0.33 1.98 0.66 3 1 C2.67 1.66 2.34 2.32 2 3 C2.66 3 3.32 3 4 3 C3.29445932 6.66881155 1.72264494 9.70450534 0 13 C-0.99 13 -1.98 13 -3 13 C-3.31563182 7.73946963 -2.66590937 4.55426184 0 0 Z " fill="#5377A9" transform="translate(237,130)"/>
<path d="M0 0 C1.65 1.65 3.3 3.3 5 5 C4.01 5.66 3.02 6.32 2 7 C1.66207464 9.61677492 1.51113911 12.00936392 1.48828125 14.6328125 C1.47033005 15.38464813 1.45237885 16.13648376 1.43388367 16.91110229 C1.37964219 19.31567756 1.34584208 21.72005285 1.3125 24.125 C1.27933898 25.75393417 1.24485045 27.3828419 1.20898438 29.01171875 C1.12390838 33.00766846 1.05716422 37.00355746 1 41 C0.67 41 0.34 41 0 41 C0 27.47 0 13.94 0 0 Z " fill="#FBECD0" transform="translate(56,44)"/>
<path d="M0 0 C0.33 0.66 0.66 1.32 1 2 C1.66 2 2.32 2 3 2 C1.66666667 5.33333333 0.33333333 8.66666667 -1 12 C-2.65 11.67 -4.3 11.34 -6 11 C-5.62671065 5.64951939 -4.0042343 3.49087093 0 0 Z " fill="#597DB1" transform="translate(260,131)"/>
<path d="M0 0 C1.18626961 4.08216305 0.81799857 6.06100309 -1 10 C-3.19492574 12.80181765 -5.55045985 15.4194684 -8 18 C-9.32 17.67 -10.64 17.34 -12 17 C-11.46890625 16.443125 -10.9378125 15.88625 -10.390625 15.3125 C-5.89590089 10.45688564 -2.64719747 6.06649419 0 0 Z " fill="#F9E6CF" transform="translate(388,68)"/>
<path d="M0 0 C0.94875 0.04125 1.8975 0.0825 2.875 0.125 C2.875 3.73529169 1.91407418 6.68306676 0.875 10.125 C-0.445 9.795 -1.765 9.465 -3.125 9.125 C-3.125 7.145 -3.125 5.165 -3.125 3.125 C-3.785 2.795 -4.445 2.465 -5.125 2.125 C-3.125 0.125 -3.125 0.125 0 0 Z " fill="#7B96C0" transform="translate(285.125,126.875)"/>
<path d="M0 0 C0.33 0 0.66 0 1 0 C3.58108108 7.74324324 3.58108108 7.74324324 2 12 C1.01 12.66 0.02 13.32 -1 14 C-1.99 15.485 -1.99 15.485 -3 17 C-3.33 16.01 -3.66 15.02 -4 14 C-4.66 13.67 -5.32 13.34 -6 13 C-5.01 12.67 -4.02 12.34 -3 12 C-1.96683512 9.20827761 -1.96683512 9.20827761 -1.3125 5.9375 C-1.06113281 4.83277344 -0.80976563 3.72804687 -0.55078125 2.58984375 C-0.36902344 1.73519531 -0.18726563 0.88054687 0 0 Z " fill="#DAE7F4" transform="translate(378,128)"/>
<path d="M0 0 C3 0.125 3 0.125 4 1.125 C4.04063832 2.79117115 4.042721 4.45888095 4 6.125 C3.34 6.125 2.68 6.125 2 6.125 C2 5.135 2 4.145 2 3.125 C1.38125 3.74375 0.7625 4.3625 0.125 5 C-1.25 6.375 -2.625 7.75 -4 9.125 C-4 7.805 -4 6.485 -4 5.125 C-4.66 5.125 -5.32 5.125 -6 5.125 C-3.59259259 0.14969136 -3.59259259 0.14969136 0 0 Z " fill="#5D7DB0" transform="translate(226,126.875)"/>
<path d="M0 0 C0.33 0 0.66 0 1 0 C1 6.93 1 13.86 1 21 C-3 19 -3 19 -4 17 C-3.34 17 -2.68 17 -2 17 C-1.93941406 15.85660156 -1.87882812 14.71320312 -1.81640625 13.53515625 C-1.73201572 12.04425695 -1.64736698 10.55337225 -1.5625 9.0625 C-1.50352539 7.93038086 -1.50352539 7.93038086 -1.44335938 6.77539062 C-1.11328125 1.11328125 -1.11328125 1.11328125 0 0 Z " fill="#FBEDDA" transform="translate(90,43)"/>
<path d="M0 0 C1.65 0 3.3 0 5 0 C5.48309179 6.40096618 5.48309179 6.40096618 3.4375 8.9375 C0.19917389 10.34907805 -2.50813979 10.20145347 -6 10 C-4.33333333 8.33333333 -2.66666667 6.66666667 -1 5 C-0.01 5 0.98 5 2 5 C2 4.01 2 3.02 2 2 C1.34 2 0.68 2 0 2 C0 1.34 0 0.68 0 0 Z " fill="#6182B0" transform="translate(100,22)"/>
<path d="M0 0 C3.5625 0.1875 3.5625 0.1875 5.5625 2.1875 C5.02678571 5.72321429 5.02678571 5.72321429 3.5625 7.1875 C1.22952567 7.22842937 -1.10455225 7.22991723 -3.4375 7.1875 C-2.7775 6.8575 -2.1175 6.5275 -1.4375 6.1875 C-0.78536708 4.16286745 -0.78536708 4.16286745 -0.4375 2.1875 C-1.7575 1.8575 -3.0775 1.5275 -4.4375 1.1875 C-3.4375 0.1875 -3.4375 0.1875 0 0 Z " fill="#7C98C1" transform="translate(203.4375,115.8125)"/>
<path d="M0 0 C0.66 0 1.32 0 2 0 C1.4568634 3.80195622 -0.15665563 5.50130343 -3 8 C-5.70879335 9.35439668 -8.00933268 9.06501451 -11 9 C-11.33 7.02 -11.66 5.04 -12 3 C-11.34 3 -10.68 3 -10 3 C-10 4.32 -10 5.64 -10 7 C-5.35216858 5.24610135 -2.77997978 4.24312703 0 0 Z " fill="#5E7CA8" transform="translate(375,134)"/>
<path d="M0 0 C0.66 0 1.32 0 2 0 C2 1.65 2 3.3 2 5 C2.639375 5.12375 3.27875 5.2475 3.9375 5.375 C4.618125 5.58125 5.29875 5.7875 6 6 C7.35439668 8.70879335 7.06501451 11.00933268 7 14 C5 11 5 11 5 8 C2.03 10.475 2.03 10.475 -1 13 C-0.67 8.71 -0.34 4.42 0 0 Z " fill="#D2E0F1" transform="translate(342,127)"/>
<path d="M0 0 C1.32 0.33 2.64 0.66 4 1 C3.49287967 4.71888239 2.88391785 7.73454239 1 11 C0.01 11 -0.98 11 -2 11 C-1.34 7.37 -0.68 3.74 0 0 Z " fill="#5174AA" transform="translate(240,118)"/>
<path d="M0 0 C0.66 0 1.32 0 2 0 C3.52016163 8.41518047 4.27733386 16.4488728 4 25 C3.01 25.33 2.02 25.66 1 26 C1.00523682 25.39003174 1.01047363 24.78006348 1.01586914 24.15161133 C1.03673335 21.37191815 1.04969013 18.59224149 1.0625 15.8125 C1.07087891 14.85279297 1.07925781 13.89308594 1.08789062 12.90429688 C1.09111328 11.97294922 1.09433594 11.04160156 1.09765625 10.08203125 C1.10289307 9.22843018 1.10812988 8.3748291 1.11352539 7.49536133 C0.99579323 4.90753253 0.57107044 2.52338047 0 0 Z " fill="#BCD0EB" transform="translate(248,41)"/>
<path d="M0 0 C0.36122881 1.31057393 0.71380311 2.62353624 1.0625 3.9375 C1.25972656 4.66839844 1.45695312 5.39929688 1.66015625 6.15234375 C1.77230469 6.76207031 1.88445312 7.37179688 2 8 C1 9 1 9 -2.0625 9.0625 C-3.031875 9.041875 -4.00125 9.02125 -5 9 C-5.8125 7.3125 -5.8125 7.3125 -6 5 C-1.68181818 0 -1.68181818 0 0 0 Z " fill="#5C779F" transform="translate(382,137)"/>
<path d="M0 0 C0.66 0 1.32 0 2 0 C1.67 2.64 1.34 5.28 1 8 C0.34 7.34 -0.32 6.68 -1 6 C-1.391875 6.804375 -1.78375 7.60875 -2.1875 8.4375 C-4 11 -4 11 -6.6875 11.8125 C-7.450625 11.874375 -8.21375 11.93625 -9 12 C-10.125 4.25 -10.125 4.25 -9 2 C-8.34 2.33 -7.68 2.66 -7 3 C-7.33 5.31 -7.66 7.62 -8 10 C-7.01 10 -6.02 10 -5 10 C-4.9175 9.46375 -4.835 8.9275 -4.75 8.375 C-3.72418729 5.12659309 -2.03436106 2.71248141 0 0 Z " fill="#C3D4EA" transform="translate(242,133)"/>
<path d="M0 0 C0.71542969 0.27714844 1.43085938 0.55429688 2.16796875 0.83984375 C9.828315 3.6245233 16.86752182 4.73766199 25 5 C25 5.33 25 5.66 25 6 C22.8750734 6.16759984 20.75005624 6.33405201 18.625 6.5 C16.84996094 6.63921875 16.84996094 6.63921875 15.0390625 6.78125 C13.36213157 6.90195454 11.68126944 7 10 7 C10 6.34 10 5.68 10 5 C9.0925 4.87625 8.185 4.7525 7.25 4.625 C4.41029677 4.07890323 2.47409409 3.42736197 0 2 C0 1.34 0 0.68 0 0 Z " fill="#FBEDD6" transform="translate(333,88)"/>
<path d="M0 0 C0.33 0 0.66 0 1 0 C2.40361095 4.91263832 2.40361095 4.91263832 2 8 C0.2026558 10.41211276 -1.75565573 12.2628996 -4.01953125 14.23828125 C-6.20393844 16.03181978 -6.20393844 16.03181978 -8 19 C-8.8125 17.375 -8.8125 17.375 -9 15 C-6.91215337 12.15820876 -4.91623858 9.78534735 -2.25 7.5 C-0.36019864 5.23223837 -0.31870626 2.86835633 0 0 Z " fill="#F9E6CE" transform="translate(340,27)"/>
<path d="M0 0 C-0.309375 0.7425 -0.61875 1.485 -0.9375 2.25 C-2.08046414 5.20826013 -3 7.81934985 -3 11 C-3.99 11.33 -4.98 11.66 -6 12 C-7 11 -7 11 -7.3125 8.25 C-6.8526795 3.4678668 -5.10186106 0 0 0 Z " fill="#4F74AB" transform="translate(306,121)"/>
<path d="M0 0 C1.65 1.32 3.3 2.64 5 4 C5.45375 3.34 5.9075 2.68 6.375 2 C6.91125 1.34 7.4475 0.68 8 0 C8.66 0 9.32 0 10 0 C9.61094382 2.72339328 8.93262433 4.08903214 7.25 6.3125 C5 8 5 8 2.25 7.75 C1.5075 7.5025 0.765 7.255 0 7 C0.33 5.68 0.66 4.36 1 3 C0.34 3 -0.32 3 -1 3 C-0.67 2.01 -0.34 1.02 0 0 Z " fill="#5D81B3" transform="translate(337,135)"/>
<path d="M0 0 C0.33 0 0.66 0 1 0 C1.875 3.1875 1.875 3.1875 2 7 C0.2442389 9.38029358 -1.43104338 10.36970061 -4 12 C-4.99 12 -5.98 12 -7 12 C-7 10.68 -7 9.36 -7 8 C-6.21625 7.79375 -5.4325 7.5875 -4.625 7.375 C-1.69083714 6.19323388 -1.69083714 6.19323388 -0.6875 2.875 C-0.460625 1.92625 -0.23375 0.9775 0 0 Z " fill="#CADBEE" transform="translate(373,129)"/>
<path d="M0 0 C0.66 0 1.32 0 2 0 C2.75 2.1875 2.75 2.1875 3 5 C1.1875 7.8125 1.1875 7.8125 -1 10 C-1.66 10 -2.32 10 -3 10 C-2.25 3.375 -2.25 3.375 0 0 Z " fill="#D4E4F3" transform="translate(335,130)"/>
<path d="M0 0 C2.625 0.5 2.625 0.5 4.9375 2.625 C6.88702646 5.94641546 7.21409219 7.71297878 6.625 11.5 C5.635 12.16 4.645 12.82 3.625 13.5 C3.810625 12.5925 3.99625 11.685 4.1875 10.75 C4.58234621 7.81685676 4.57191572 6.2355343 3.625 3.5 C0.985 3.5 -1.655 3.5 -4.375 3.5 C-2.375 0.5 -2.375 0.5 0 0 Z " fill="#6683B0" transform="translate(165.375,17.5)"/>
<path d="M0 0 C1.23556641 0.01740234 1.23556641 0.01740234 2.49609375 0.03515625 C3.32238281 0.04417969 4.14867187 0.05320312 5 0.0625 C5.63808594 0.07410156 6.27617187 0.08570312 6.93359375 0.09765625 C5.94359375 0.75765625 4.95359375 1.41765625 3.93359375 2.09765625 C2.94359375 3.58265625 2.94359375 3.58265625 1.93359375 5.09765625 C1.93359375 4.43765625 1.93359375 3.77765625 1.93359375 3.09765625 C1.33546875 3.61328125 0.73734375 4.12890625 0.12109375 4.66015625 C-0.60078125 5.13453125 -1.32265625 5.60890625 -2.06640625 6.09765625 C-3.05640625 5.76765625 -4.04640625 5.43765625 -5.06640625 5.09765625 C-2.6606399 0.12573913 -2.6606399 0.12573913 0 0 Z " fill="#718EB7" transform="translate(335.06640625,126.90234375)"/>
<path d="M0 0 C0.845625 0.144375 1.69125 0.28875 2.5625 0.4375 C2.5625 0.7675 2.5625 1.0975 2.5625 1.4375 C1.799375 1.499375 1.03625 1.56125 0.25 1.625 C-3.31836963 2.70380942 -3.62993904 4.27426831 -5.4375 7.4375 C-8.125 9.25 -8.125 9.25 -10.4375 10.4375 C-10.4375 6.79862192 -9.77506705 6.29252052 -7.3125 3.75 C-4.61443825 1.13436377 -3.84804502 0.48975118 0 0 Z " fill="#E29155" transform="translate(333.4375,22.5625)"/>
<path d="M0 0 C0.33 0.66 0.66 1.32 1 2 C-0.98 2.33 -2.96 2.66 -5 3 C-5.144375 4.093125 -5.28875 5.18625 -5.4375 6.3125 C-6 10 -6 10 -7 13 C-9.32749345 9.50875983 -9.50299316 8.10777749 -9 4 C-6.36160394 0.28670185 -4.49495424 -0.49943936 0 0 Z " fill="#7792B6" transform="translate(355,16)"/>
<path d="M0 0 C0.6875 1.8125 0.6875 1.8125 1 4 C0 5.8125 0 5.8125 -2 7 C-5.625 6.8125 -5.625 6.8125 -9 6 C-9.33 5.34 -9.66 4.68 -10 4 C-8.906875 3.896875 -7.81375 3.79375 -6.6875 3.6875 C-3.14440371 3.02692273 -2.06756277 2.7972908 0 0 Z " fill="#FCEED7" transform="translate(55,87)"/>
<path d="M0 0 C1.38609004 3.15020465 0.89180331 4.31918022 -0.25 7.6875 C-2 11 -2 11 -5 12 C-5.33 12.66 -5.66 13.32 -6 14 C-7.65 13.67 -9.3 13.34 -11 13 C-10.01 12.34 -9.02 11.68 -8 11 C-4.27609945 7.64848951 -2.02518305 4.58330901 0 0 Z " fill="#CADAEC" transform="translate(256,131)"/>
<path d="M0 0 C0.78375 0.04125 1.5675 0.0825 2.375 0.125 C2.125 3 2.125 3 1.375 6.125 C-0.6875 7.5 -0.6875 7.5 -2.625 8.125 C-2.625 6.475 -2.625 4.825 -2.625 3.125 C-3.285 2.795 -3.945 2.465 -4.625 2.125 C-2.625 0.125 -2.625 0.125 0 0 Z " fill="#8AA7CE" transform="translate(369.625,126.875)"/>
<path d="M0 0 C0.66 0 1.32 0 2 0 C2.33 2.31 2.66 4.62 3 7 C5.31 7.33 7.62 7.66 10 8 C10 8.33 10 8.66 10 9 C9.05125 9.309375 8.1025 9.61875 7.125 9.9375 C4.13919592 10.87394742 4.13919592 10.87394742 2 12 C2 11.01 2 10.02 2 9 C1.01 9.33 0.02 9.66 -1 10 C-0.67 6.7 -0.34 3.4 0 0 Z " fill="#DBE6F2" transform="translate(309,118)"/>
<path d="M0 0 C0.66 0.99 1.32 1.98 2 3 C-3.625 8 -3.625 8 -7 8 C-6.8125 6.1875 -6.8125 6.1875 -6 4 C-3.5 2.3125 -3.5 2.3125 -1 1 C-0.67 0.67 -0.34 0.34 0 0 Z " fill="#D1E2F1" transform="translate(213,133)"/>
<path d="M0 0 C1.32 0 2.64 0 4 0 C4.33 2.64 4.66 5.28 5 8 C4.34 8 3.68 8 3 8 C2.67 7.01 2.34 6.02 2 5 C0.68 5.33 -0.64 5.66 -2 6 C-1.125 1.125 -1.125 1.125 0 0 Z " fill="#89A5C7" transform="translate(359,134)"/>
<path d="M0 0 C0.66 0 1.32 0 2 0 C2.625 2.3125 2.625 2.3125 3 5 C2.01 6.485 2.01 6.485 1 8 C1.66 8.33 2.32 8.66 3 9 C1.625 11 1.625 11 0 13 C-0.66 13 -1.32 13 -2 13 C-1.44670876 8.96887814 -0.820444 4.98501371 0 1 C0 0.67 0 0.34 0 0 Z " fill="#DDE6F4" transform="translate(355,127)"/>
<path d="M0 0 C0.33 0 0.66 0 1 0 C1 1.65 1 3.3 1 5 C2.32 5.33 3.64 5.66 5 6 C3.37660195 7.70884005 1.70680947 9.37446717 0 11 C-0.66 11 -1.32 11 -2 11 C-1 3.57142857 -1 3.57142857 0 0 Z " fill="#D8E7F5" transform="translate(249,128)"/>
<path d="M0 0 C2.00720923 0.28674418 4.0085944 0.61866701 6 1 C5.67 2.98 5.34 4.96 5 7 C3.68 5.68 2.36 4.36 1 3 C0.67 3.99 0.34 4.98 0 6 C-0.33 6 -0.66 6 -1 6 C-1.042721 4.33388095 -1.04063832 2.66617115 -1 1 C-0.67 0.67 -0.34 0.34 0 0 Z " fill="#4974B2" transform="translate(163,20)"/>
<path d="M0 0 C0.66 0 1.32 0 2 0 C2.3125 2.25 2.3125 2.25 2 5 C-0.75253132 7.99540173 -2.22687285 8.94165078 -6.3125 9.25 C-7.199375 9.1675 -8.08625 9.085 -9 9 C-8.4225 8.7525 -7.845 8.505 -7.25 8.25 C-3.51402637 6.17445909 -1.35608685 4.06826056 0 0 Z " fill="#D2E2F2" transform="translate(275,135)"/>
<path d="M0 0 C0.66 0 1.32 0 2 0 C1.69381595 3.67420866 1.24228216 4.78135513 -1.5625 7.3125 C-2.366875 7.869375 -3.17125 8.42625 -4 9 C-4 8.34 -4 7.68 -4 7 C-4.66 7 -5.32 7 -6 7 C-5.67 5.68 -5.34 4.36 -5 3 C-5 3.99 -5 4.98 -5 6 C-2.12579877 3.28395285 -2.12579877 3.28395285 0 0 Z " fill="#728BB5" transform="translate(273,134)"/>
<path d="M0 0 C0.99 0 1.98 0 3 0 C3 2.97 3 5.94 3 9 C2.01 9 1.02 9 0 9 C0 6.03 0 3.06 0 0 Z " fill="#567DB0" transform="translate(219,132)"/>
<path d="M0 0 C1.32 0 2.64 0 4 0 C4 2.31 4 4.62 4 7 C3.01 6.67 2.02 6.34 1 6 C0.01 6.495 0.01 6.495 -1 7 C-1.04254356 5.00045254 -1.04080783 2.99958364 -1 1 C-0.67 0.67 -0.34 0.34 0 0 Z " fill="#6687B2" transform="translate(380,126)"/>
<path d="M0 0 C1.65 0 3.3 0 5 0 C5.36625971 4.51720311 5.36625971 4.51720311 3.625 6.8125 C2 8 2 8 0 8 C0 5.33333333 0 2.66666667 0 0 Z " fill="#92AED2" transform="translate(207,127)"/>
<path d="M0 0 C0.66 0.33 1.32 0.66 2 1 C2.61538462 8.26153846 2.61538462 8.26153846 -0.5 12 C-1.325 12.66 -2.15 13.32 -3 14 C-5.475 13.01 -5.475 13.01 -8 12 C-8 11.67 -8 11.34 -8 11 C-6.865625 10.690625 -5.73125 10.38125 -4.5625 10.0625 C-1.21224901 9.37075469 -1.21224901 9.37075469 0 8 C0.07148199 6.64756083 0.08399454 5.29165633 0.0625 3.9375 C0.041875 2.638125 0.02125 1.33875 0 0 Z " fill="#C5D5E9" transform="translate(358,19)"/>
<path d="M0 0 C0.33 0 0.66 0 1 0 C1.66 3.3 2.32 6.6 3 10 C4.98 10 6.96 10 9 10 C9 10.33 9 10.66 9 11 C2.57789614 11.48468708 2.57789614 11.48468708 0.0625 9.375 C-1.26287757 6.4123913 -1.28551032 4.2119911 -1 1 C-0.67 0.67 -0.34 0.34 0 0 Z " fill="#6D89AF" transform="translate(160,21)"/>
<path d="M0 0 C-0.54226981 3.79588866 -2.20127563 5.47211993 -5 8 C-5.99 7.67 -6.98 7.34 -8 7 C-7.67 5.68 -7.34 4.36 -7 3 C-7 3.66 -7 4.32 -7 5 C-5.824375 3.7625 -5.824375 3.7625 -4.625 2.5 C-2 0 -2 0 0 0 Z " fill="#7A94B7" transform="translate(254,134)"/>
<path d="M0 0 C0.33 0.99 0.66 1.98 1 3 C1.99 3 2.98 3 4 3 C4.33 2.01 4.66 1.02 5 0 C5.66 0.33 6.32 0.66 7 1 C6.1875 2.9375 6.1875 2.9375 5 5 C4.01 5.33 3.02 5.66 2 6 C1.67 6.99 1.34 7.98 1 9 C0.67 6.03 0.34 3.06 0 0 Z " fill="#6784A9" transform="translate(384,134)"/>
<path d="M0 0 C-0.57344937 2.86724686 -0.8614515 3.8614515 -3 6 C-4.32 6 -5.64 6 -7 6 C-6.1875 3.5625 -6.1875 3.5625 -5 1 C-2 0 -2 0 0 0 Z " fill="#F0F5FB" transform="translate(230,134)"/>
<path d="M0 0 C2.475 0.99 2.475 0.99 5 2 C4.01 2.495 4.01 2.495 3 3 C2.690625 3.825 2.38125 4.65 2.0625 5.5 C1.711875 6.325 1.36125 7.15 1 8 C0.01 8.33 -0.98 8.66 -2 9 C-1.34 6.03 -0.68 3.06 0 0 Z " fill="#DCE9F6" transform="translate(270,131)"/>
<path d="M0 0 C2.64 0 5.28 0 8 0 C8.33 0.99 8.66 1.98 9 3 C7.9275 2.938125 6.855 2.87625 5.75 2.8125 C1.89133813 3.00543309 0.71182212 3.39665076 -2 6 C-1.34 4.02 -0.68 2.04 0 0 Z " fill="#DA8C51" transform="translate(94,39)"/>
<path d="M0 0 C2.125 0.375 2.125 0.375 4 1 C3.67 1.66 3.34 2.32 3 3 C3.66 3 4.32 3 5 3 C5 3.99 5 4.98 5 6 C1.73045798 5.43628586 0.17424117 4.50037734 -2 2 C-1.34 1.34 -0.68 0.68 0 0 Z " fill="#4975B9" transform="translate(97,21)"/>
<path d="M0 0 C0.33 0 0.66 0 1 0 C1 2.64 1 5.28 1 8 C1.66 8 2.32 8 3 8 C3.33 7.01 3.66 6.02 4 5 C4 6.65 4 8.3 4 10 C2.35 9.67 0.7 9.34 -1 9 C-0.67 6.03 -0.34 3.06 0 0 Z " fill="#6B87B0" transform="translate(190,133)"/>
<path d="M0 0 C0.99 0 1.98 0 3 0 C3 2.31 3 4.62 3 7 C1.68 6.67 0.36 6.34 -1 6 C-0.67 4.02 -0.34 2.04 0 0 Z " fill="#D1DFEF" transform="translate(316,130)"/>
<path d="M0 0 C1.32 0 2.64 0 4 0 C3.50168276 3.68754757 2.89932357 5.60490662 0 8 C-1.43088528 5.13822943 -0.59991697 3.06624227 0 0 Z " fill="#577BAB" transform="translate(352,128)"/>
<path d="M0 0 C1.485 0.99 1.485 0.99 3 2 C5.05709596 2.24055468 5.05709596 2.24055468 7.1875 2.125 C8.445625 2.08375 9.70375 2.0425 11 2 C10.01 3.485 10.01 3.485 9 5 C2.86454183 5.66932271 2.86454183 5.66932271 0.0625 3.5 C-0.4634375 2.7575 -0.4634375 2.7575 -1 2 C-0.67 1.34 -0.34 0.68 0 0 Z " fill="#FAE8D0" transform="translate(138,88)"/>
<path d="M0 0 C0.66 0 1.32 0 2 0 C2 2.64 2 5.28 2 8 C0.68 7.67 -0.64 7.34 -2 7 C-1.42415568 4.61435923 -0.77772405 2.33317216 0 0 Z " fill="#D6E5F3" transform="translate(284,129)"/>
<path d="M0 0 C0.66 0 1.32 0 2 0 C2 0.66 2 1.32 2 2 C3.32 2.33 4.64 2.66 6 3 C5.01 3.99 4.02 4.98 3 6 C2.34 5.67 1.68 5.34 1 5 C-0.32860925 4.64830932 -1.66158328 4.31229724 -3 4 C-2.34 3.34 -1.68 2.68 -1 2 C-0.67 1.34 -0.34 0.68 0 0 Z " fill="#6482B3" transform="translate(334,141)"/>
<path d="M0 0 C0.66 0 1.32 0 2 0 C2 1.32 2 2.64 2 4 C2.99 4 3.98 4 5 4 C5.33 3.01 5.66 2.02 6 1 C6.33 1.99 6.66 2.98 7 4 C6.34 4.66 5.68 5.32 5 6 C2.375 5.625 2.375 5.625 0 5 C0 3.35 0 1.7 0 0 Z " fill="#5A77A7" transform="translate(350,137)"/>
<path d="M0 0 C-0.1875 1.8125 -0.1875 1.8125 -1 4 C-3.5625 5.75 -3.5625 5.75 -6 7 C-6.66 6.34 -7.32 5.68 -8 5 C-2.25 0 -2.25 0 0 0 Z " fill="#6986AF" transform="translate(217,135)"/>
<path d="M0 0 C0.99 0.33 1.98 0.66 3 1 C0.75 3.5625 0.75 3.5625 -2 6 C-4.3125 5.8125 -4.3125 5.8125 -6 5 C-5.67 3.68 -5.34 2.36 -5 1 C-5 1.99 -5 2.98 -5 4 C-3.01508358 3.73323796 -3.01508358 3.73323796 -1 3 C-0.67 2.01 -0.34 1.02 0 0 Z " fill="#7191B8" transform="translate(305,136)"/>
<path d="M0 0 C1.09658936 3.28976808 0.79953138 4.71303767 0 8 C-1.66666667 8 -3.33333333 8 -5 8 C-3.8141763 4.62496331 -2.72426311 2.35277269 0 0 Z " fill="#C8DAEF" transform="translate(264,133)"/>
<path d="M0 0 C0 0.66 0 1.32 0 2 C-1.36125 2.37125 -1.36125 2.37125 -2.75 2.75 C-6.10351489 4.03981342 -7.67708236 5.31971042 -10 8 C-7.95662621 2.18424383 -6.49689233 -0.52677505 0 0 Z " fill="#6E87B2" transform="translate(309,118)"/>
<path d="M0 0 C0.66 0.33 1.32 0.66 2 1 C-0.06756277 3.7972908 -1.14440371 4.02692273 -4.6875 4.6875 C-5.780625 4.790625 -6.87375 4.89375 -8 5 C-8 4.01 -8 3.02 -8 2 C-6.865625 1.855625 -5.73125 1.71125 -4.5625 1.5625 C-1.19222799 1.38828522 -1.19222799 1.38828522 0 0 Z " fill="#FDF8ED" transform="translate(103,90)"/>
<path d="M0 0 C0.99 0.33 1.98 0.66 3 1 C3.125 4.375 3.125 4.375 3 8 C2.34 8.66 1.68 9.32 1 10 C0.63720544 8.71073008 0.28503302 7.41846728 -0.0625 6.125 C-0.35833984 5.04605469 -0.35833984 5.04605469 -0.66015625 3.9453125 C-1 2 -1 2 0 0 Z " fill="#D87D3C" transform="translate(337,25)"/>
<path d="M0 0 C0.99 0 1.98 0 3 0 C1.84826645 2.46800047 0.95216435 4.04783565 -1 6 C-1.99 6 -2.98 6 -4 6 C-2.84826645 3.53199953 -1.95216435 1.95216435 0 0 Z " fill="#CDE1F2" transform="translate(330,148)"/>
<path d="M0 0 C3 3.75 3 3.75 3 6 C3.99 6.33 4.98 6.66 6 7 C4.34385343 7.38218767 2.67542976 7.71395102 1 8 C0 7 0 7 -0.0625 3.4375 C-0.041875 2.303125 -0.02125 1.16875 0 0 Z " fill="#5777A3" transform="translate(243,135)"/>
<path d="M0 0 C0.33 0 0.66 0 1 0 C1 2.31 1 4.62 1 7 C2.65 6.34 4.3 5.68 6 5 C5.6875 6.9375 5.6875 6.9375 5 9 C4.01 9.33 3.02 9.66 2 10 C2 9.34 2 8.68 2 8 C1.34 8 0.68 8 0 8 C0 5.36 0 2.72 0 0 Z " fill="#869EC1" transform="translate(321,129)"/>
<path d="M0 0 C0 3 0 3 -1 5 C-3.76276177 4.47731534 -6.3260876 3.89130413 -9 3 C-8.67 2.34 -8.34 1.68 -8 1 C-7.05125 1.020625 -6.1025 1.04125 -5.125 1.0625 C-2.09333717 1.22551826 -2.09333717 1.22551826 0 0 Z " fill="#FBEAD1" transform="translate(20,89)"/>
<path d="M0 0 C0.33 0 0.66 0 1 0 C2.56659619 6.02536998 2.56659619 6.02536998 0.953125 8.80078125 C-0.29161056 10.26579304 -1.64065712 11.64065712 -3 13 C-3 9.90124328 -2.41738748 7.75578485 -1.5 4.8125 C-1.2215625 3.91144531 -0.943125 3.01039062 -0.65625 2.08203125 C-0.4396875 1.39496094 -0.223125 0.70789063 0 0 Z " fill="#FDF7EE" transform="translate(23,81)"/>
<path d="M0 0 C2.09782787 2.09782787 2.6509396 3.3799207 3.625 6.125 C4.01558594 7.21167969 4.01558594 7.21167969 4.4140625 8.3203125 C4.70410156 9.15175781 4.70410156 9.15175781 5 10 C4.01 10.495 4.01 10.495 3 11 C2.34 10.67 1.68 10.34 1 10 C0.5859375 7.71484375 0.5859375 7.71484375 0.375 4.9375 C0.30023438 4.01839844 0.22546875 3.09929687 0.1484375 2.15234375 C0.09945313 1.44207031 0.05046875 0.73179688 0 0 Z " fill="#DE8D4F" transform="translate(329,61)"/>
<path d="M0 0 C0.99 0.33 1.98 0.66 3 1 C2 4 2 4 0 5 C-1.99960012 5.039992 -4.00047242 5.04346799 -6 5 C-6 4.34 -6 3.68 -6 3 C-3 2 -3 2 0 3 C0 2.01 0 1.02 0 0 Z " fill="#5A7CAA" transform="translate(18,25)"/>
<path d="M0 0 C0.391875 0.474375 0.78375 0.94875 1.1875 1.4375 C3.40808374 3.35179633 5.13375709 3.61266988 8 4 C7.67 4.66 7.34 5.32 7 6 C5.02 6 3.04 6 1 6 C0.67 4.02 0.34 2.04 0 0 Z " fill="#5974A7" transform="translate(203,137)"/>
<path d="M0 0 C1.485 0.99 1.485 0.99 3 2 C4.32567199 2.68177416 5.65753688 3.35191436 7 4 C6.01 4.33 5.02 4.66 4 5 C3.34 5.66 2.68 6.32 2 7 C1.67 6.34 1.34 5.68 1 5 C0.34 5.66 -0.32 6.32 -1 7 C-0.67 4.69 -0.34 2.38 0 0 Z " fill="#6685B3" transform="translate(203,133)"/>
<path d="M0 0 C1.65 0 3.3 0 5 0 C5.33 1.65 5.66 3.3 6 5 C4.68 5.99 3.36 6.98 2 8 C2 4.89448334 2.5393715 3.64738916 4 1 C2.68 0.67 1.36 0.34 0 0 Z " fill="#6581AA" transform="translate(208,128)"/>
<path d="M0 0 C1.99954746 -0.04254356 4.00041636 -0.04080783 6 0 C7 1 7 1 7.0625 3.5625 C7.041875 4.366875 7.02125 5.17125 7 6 C6.34 6 5.68 6 5 6 C5 5.01 5 4.02 5 3 C2.03 2.505 2.03 2.505 -1 2 C-0.67 1.34 -0.34 0.68 0 0 Z " fill="#7993B6" transform="translate(223,127)"/>
<path d="M0 0 C1.670625 0.061875 1.670625 0.061875 3.375 0.125 C3.375 0.455 3.375 0.785 3.375 1.125 C1.395 1.125 -0.585 1.125 -2.625 1.125 C-3.285 4.095 -3.945 7.065 -4.625 10.125 C-4.955 10.125 -5.285 10.125 -5.625 10.125 C-5.8203125 4.0703125 -5.8203125 4.0703125 -5.625 2.125 C-3.625 0.125 -3.625 0.125 0 0 Z " fill="#6B86AC" transform="translate(14.625,16.875)"/>
<path d="M0 0 C0 1.98 0 3.96 0 6 C-1.98 6.99 -1.98 6.99 -4 8 C-4.36780384 3.46375267 -4.36780384 3.46375267 -2.5625 1.1875 C-1 0 -1 0 0 0 Z " fill="#7F9FCD" transform="translate(382,137)"/>
<path d="M0 0 C0.33 0 0.66 0 1 0 C1.04898437 0.60328125 1.09796875 1.2065625 1.1484375 1.828125 C1.22320312 2.62734375 1.29796875 3.4265625 1.375 4.25 C1.44460938 5.03890625 1.51421875 5.8278125 1.5859375 6.640625 C2.01507113 9.085877 2.78600638 10.84836903 4 13 C2.68 13 1.36 13 0 13 C0 8.71 0 4.42 0 0 Z " fill="#FDF3DC" transform="translate(7,77)"/>
<path d="M0 0 C0.33 0 0.66 0 1 0 C1 3.96 1 7.92 1 12 C0.01 12.33 -0.98 12.66 -2 13 C-1.48041715 8.62065881 -0.94324258 4.31196609 0 0 Z " fill="#D6E5F3" transform="translate(251,54)"/>
<path d="M0 0 C2.31 0.66 4.62 1.32 7 2 C6.01 2.99 5.02 3.98 4 5 C2.68 4.34 1.36 3.68 0 3 C0 2.01 0 1.02 0 0 Z " fill="#81A0C6" transform="translate(280,138)"/>
<path d="M0 0 C0.33 0 0.66 0 1 0 C1 2.31 1 4.62 1 7 C1.66 7 2.32 7 3 7 C3 7.66 3 8.32 3 9 C1.35 9 -0.3 9 -2 9 C-1.34 6.03 -0.68 3.06 0 0 Z " fill="#5176A8" transform="translate(320,130)"/>
<path d="M0 0 C0.66 0.66 1.32 1.32 2 2 C2.66 1.67 3.32 1.34 4 1 C4.33 2.98 4.66 4.96 5 7 C2.525 6.01 2.525 6.01 0 5 C0 3.35 0 1.7 0 0 Z " fill="#708EBC" transform="translate(261,128)"/>
<path d="M0 0 C0.66 0 1.32 0 2 0 C1.67 2.31 1.34 4.62 1 7 C0.34 7 -0.32 7 -1 7 C-1 6.34 -1 5.68 -1 5 C-1.66 4.67 -2.32 4.34 -3 4 C-1.625 2 -1.625 2 0 0 Z " fill="#EAF5FB" transform="translate(349,128)"/>
<path d="M0 0 C1.32 0.33 2.64 0.66 4 1 C4 2.32 4 3.64 4 5 C2.68 5 1.36 5 0 5 C0 3.35 0 1.7 0 0 Z " fill="#7B92BA" transform="translate(353,120)"/>
<path d="M0 0 C1.98 0 3.96 0 6 0 C6 0.66 6 1.32 6 2 C5.21625 2.309375 4.4325 2.61875 3.625 2.9375 C1.07669872 3.92875038 1.07669872 3.92875038 -1 5 C-0.67 3.35 -0.34 1.7 0 0 Z " fill="#627FAC" transform="translate(187,117)"/>
<path d="M0 0 C-0.6875 2.375 -0.6875 2.375 -2 5 C-4.625 6.3125 -4.625 6.3125 -7 7 C-3.86206897 0 -3.86206897 0 0 0 Z " fill="#DAE7F5" transform="translate(204,39)"/>
<path d="M0 0 C1.98 0.495 1.98 0.495 4 1 C4 2.32 4 3.64 4 5 C2.35 5 0.7 5 -1 5 C-0.67 3.35 -0.34 1.7 0 0 Z " fill="#647FAB" transform="translate(240,118)"/>
<path d="M0 0 C0.66 0 1.32 0 2 0 C1.67 1.32 1.34 2.64 1 4 C0.34 4 -0.32 4 -1 4 C-1 4.66 -1 5.32 -1 6 C-1.99 6.33 -2.98 6.66 -4 7 C-2.92598892 4.08482708 -2.22189824 2.22189824 0 0 Z " fill="#6685B2" transform="translate(182,32)"/>
<path d="M0 0 C1.0625 1.8125 1.0625 1.8125 2 4 C1.67 4.99 1.34 5.98 1 7 C1.66 7.33 2.32 7.66 3 8 C2.01 8 1.02 8 0 8 C-0.33 7.67 -0.66 7.34 -1 7 C-0.71269945 4.66055264 -0.38063221 2.3260857 0 0 Z " fill="#6F8BB4" transform="translate(299,21)"/>
<path d="M0 0 C2.19191368 2.19191368 2.27869352 3.11477408 3 6 C3.66 6.66 4.32 7.32 5 8 C3.35 7.67 1.7 7.34 0 7 C0 4.69 0 2.38 0 0 Z " fill="#5474A5" transform="translate(278,135)"/>
<path d="M0 0 C0.33 0 0.66 0 1 0 C1.33 2.31 1.66 4.62 2 7 C0.02 6.34 -1.96 5.68 -4 5 C-2.69254251 3.31295807 -1.35827971 1.64639965 0 0 Z " fill="#DAEAF8" transform="translate(327,135)"/>
<path d="M0 0 C0.66 0 1.32 0 2 0 C1.60196439 2.88575819 1.20990931 3.82189513 -1.0625 5.75 C-1.701875 6.1625 -2.34125 6.575 -3 7 C-2.38722388 4.03824877 -1.74627478 2.61941217 0 0 Z " fill="#607BA7" transform="translate(345,135)"/>
<path d="M0 0 C0.33 0 0.66 0 1 0 C1.66 2.97 2.32 5.94 3 9 C2.01 9.33 1.02 9.66 0 10 C-1.2380014 6.42355152 -0.74926071 3.66305234 0 0 Z " fill="#D1E0F0" transform="translate(378,128)"/>
<path d="M0 0 C0.66 0 1.32 0 2 0 C0.375 5.75 0.375 5.75 -3 8 C-2.45276317 4.62537285 -1.9451 2.91765 0 0 Z " fill="#A8C5EA" transform="translate(306,121)"/>
<path d="M0 0 C1.32 0 2.64 0 4 0 C4 0.99 4 1.98 4 3 C4.66 3 5.32 3 6 3 C5.67 4.32 5.34 5.64 5 7 C3.35 4.69 1.7 2.38 0 0 Z " fill="#FBEBD4" transform="translate(78,50)"/>
</svg>
