<?xml version="1.0" encoding="UTF-8"?>
<svg version="1.1" xmlns="http://www.w3.org/2000/svg" width="460" height="159">
<path d="M0 0 C144.21 0 288.42 0 437 0 C437 52.47 437 104.94 437 159 C292.79 159 148.58 159 0 159 C0 106.53 0 54.06 0 0 Z " fill="#FDFDFD" transform="translate(0,0)"/>
<path d="M0 0 C9.05913094 0.74543706 18.64776932 1.65118472 24.875 8.8125 C30.41845608 19.0024128 32.19952755 31.42086394 28.8984375 42.71484375 C26.12650409 50.13784335 23.3104005 56.07148879 15.875 59.5625 C15.029375 59.96984375 14.18375 60.3771875 13.3125 60.796875 C8.73495029 62.70418738 4.87717957 62.93484429 -0.09667969 62.92602539 C-0.7897673 62.92617142 -1.48285492 62.92631744 -2.19694519 62.9264679 C-4.48028733 62.92577307 -6.76354717 62.91800085 -9.046875 62.91015625 C-10.63299515 62.90829054 -12.21911588 62.90686736 -13.80523682 62.90586853 C-17.97436115 62.90205538 -22.1434505 62.89223537 -26.31256104 62.88116455 C-30.56904629 62.87092457 -34.82553722 62.86636537 -39.08203125 62.86132812 C-47.42970353 62.85061202 -55.77734741 62.83355004 -64.125 62.8125 C-63.32869235 59.30995428 -62.03103465 56.63231715 -60.25 53.5 C-58.49614975 50.35646411 -56.80625739 47.26789899 -55.4375 43.9375 C-54.17518798 40.93199518 -53.07676383 38.42392424 -51.125 35.8125 C-48.69641113 35.1867218 -48.69641113 35.1867218 -45.78320312 35.18481445 C-44.69197144 35.17162674 -43.60073975 35.15843903 -42.47644043 35.14485168 C-41.29827759 35.15505844 -40.12011475 35.1652652 -38.90625 35.17578125 C-37.69682739 35.16540329 -36.48740479 35.15502533 -35.24133301 35.14433289 C-31.36893516 35.11455698 -27.49749212 35.11804113 -23.625 35.125 C-19.75277583 35.11612205 -15.88080976 35.10021468 -12.00866699 35.0735321 C-9.59700858 35.05856115 -7.18524961 35.05484632 -4.77355957 35.06330872 C-3.68232788 35.05957748 -2.59109619 35.05584625 -1.46679688 35.05200195 C-0.50543823 35.05375931 0.45592041 35.05551666 1.44641113 35.05732727 C4.13440308 34.97788705 4.13440308 34.97788705 6.875 32.8125 C7.31327201 30.90792071 7.31327201 30.90792071 7.1875 28.8125 C7.18363281 28.11125 7.17976563 27.41 7.17578125 26.6875 C7.02412946 24.5708423 7.02412946 24.5708423 4.875 22.8125 C2.74639338 22.44297951 2.74639338 22.44297951 0.3046875 22.3984375 C-0.59121094 22.35976562 -1.48710938 22.32109375 -2.41015625 22.28125 C-3.34730469 22.2503125 -4.28445312 22.219375 -5.25 22.1875 C-6.19488281 22.14882812 -7.13976562 22.11015625 -8.11328125 22.0703125 C-10.45032375 21.97588654 -12.78735501 21.89031606 -15.125 21.8125 C-16.125 19.8125 -16.125 19.8125 -15.55859375 18 C-14.45736015 15.58160465 -13.29468832 13.19852065 -12.125 10.8125 C-11.74601562 9.88308594 -11.36703125 8.95367187 -10.9765625 7.99609375 C-8.31226037 2.32032286 -6.45517991 0.15424564 0 0 Z " fill="#CA452C" transform="translate(75.125,62.1875)"/>
<path d="M0 0 C1.46401022 0.00560928 2.92802615 0.00987307 4.39204407 0.01286316 C8.20775454 0.02420732 12.02311139 0.05358169 15.83868408 0.0869751 C19.74722513 0.11790372 23.65582445 0.13141672 27.56445312 0.14648438 C35.20588875 0.17846388 42.84703507 0.22953025 50.48828125 0.29296875 C50.48828125 1.28296875 50.48828125 2.27296875 50.48828125 3.29296875 C49.82828125 3.29296875 49.16828125 3.29296875 48.48828125 3.29296875 C48.15828125 4.46859375 47.82828125 5.64421875 47.48828125 6.85546875 C45.93909529 11.57493968 43.7298334 15.78725201 41.36328125 20.1328125 C40.99074219 20.82370972 40.61820312 21.51460693 40.234375 22.22644043 C39.32221083 23.91701393 38.40568768 25.60523427 37.48828125 27.29296875 C36.56199921 27.30842995 36.56199921 27.30842995 35.61700439 27.32420349 C29.19313107 27.43233621 22.76939609 27.54692886 16.34570312 27.6652832 C13.9479461 27.7086103 11.55015865 27.75028697 9.15234375 27.7902832 C5.70693799 27.84803938 2.261685 27.91171881 -1.18359375 27.9765625 C-2.79315948 28.00163124 -2.79315948 28.00163124 -4.4352417 28.02720642 C-5.93634491 28.05712425 -5.93634491 28.05712425 -7.46777344 28.08764648 C-8.34713562 28.10319077 -9.2264978 28.11873505 -10.13250732 28.13475037 C-12.38129646 28.28429562 -14.35162373 28.66835047 -16.51171875 29.29296875 C-16.56571611 30.75089759 -16.60451052 32.20939587 -16.63671875 33.66796875 C-16.65992187 34.48007812 -16.683125 35.2921875 -16.70703125 36.12890625 C-16.72541926 38.50639118 -16.72541926 38.50639118 -14.51171875 40.29296875 C-11.79556011 40.66504229 -11.79556011 40.66504229 -8.62890625 40.70703125 C-7.46230469 40.74570312 -6.29570313 40.784375 -5.09375 40.82421875 C-3.25876953 40.870625 -3.25876953 40.870625 -1.38671875 40.91796875 C-0.15566406 40.95664062 1.07539062 40.9953125 2.34375 41.03515625 C5.39177501 41.12966865 8.43978987 41.21522369 11.48828125 41.29296875 C10.92596782 44.58437672 10.16190693 47.31112814 8.640625 50.28125 C8.28291016 50.98701172 7.92519531 51.69277344 7.55664062 52.41992188 C7.18345703 53.14115234 6.81027344 53.86238281 6.42578125 54.60546875 C6.04873047 55.34603516 5.67167969 56.08660156 5.28320312 56.84960938 C4.35699968 58.66684397 3.42337496 60.48029279 2.48828125 62.29296875 C-0.96975606 62.41092856 -4.42726432 62.48079627 -7.88671875 62.54296875 C-9.33498047 62.59324219 -9.33498047 62.59324219 -10.8125 62.64453125 C-18.73252252 62.75084028 -25.69858826 61.47987781 -31.9140625 56.28515625 C-39.59953408 45.68585448 -40.49607498 35.60527216 -39.265625 22.71484375 C-38.05678398 15.58642044 -34.14796446 10.15517837 -29.32421875 4.91796875 C-20.26220632 -0.31786065 -10.15300061 -0.11568588 0 0 Z " fill="#495464" transform="translate(52.51171875,21.70703125)"/>
<path d="M0 0 C9.05913094 0.74543706 18.64776932 1.65118472 24.875 8.8125 C30.41845608 19.0024128 32.19952755 31.42086394 28.8984375 42.71484375 C26.12650409 50.13784335 23.3104005 56.07148879 15.875 59.5625 C15.029375 59.96984375 14.18375 60.3771875 13.3125 60.796875 C8.73495029 62.70418738 4.87717957 62.93484429 -0.09667969 62.92602539 C-0.7897673 62.92617142 -1.48285492 62.92631744 -2.19694519 62.9264679 C-4.48028733 62.92577307 -6.76354717 62.91800085 -9.046875 62.91015625 C-10.63299515 62.90829054 -12.21911588 62.90686736 -13.80523682 62.90586853 C-17.97436115 62.90205538 -22.1434505 62.89223537 -26.31256104 62.88116455 C-30.56904629 62.87092457 -34.82553722 62.86636537 -39.08203125 62.86132812 C-47.42970353 62.85061202 -55.77734741 62.83355004 -64.125 62.8125 C-63.40133685 59.46819263 -62.30784504 57.46987657 -60.125 54.8125 C-59.125 57.8125 -59.125 57.8125 -60.125 60.8125 C-52.21374557 60.72770978 -44.30270556 60.63268096 -36.39173317 60.52497292 C-32.71741046 60.47526029 -29.04311308 60.42893059 -25.36865234 60.390625 C-21.81531334 60.35345271 -18.26220014 60.30701167 -14.70905685 60.25443649 C-12.70972908 60.22718495 -10.71028106 60.20926279 -8.71084595 60.19155884 C2.06190273 60.01901085 13.12538473 59.56218218 21.75 52.4375 C25.33231874 47.68065052 24.79323567 41.51084506 24.875 35.8125 C24.91560547 33.99878906 24.91560547 33.99878906 24.95703125 32.1484375 C25.3177391 26.30481977 25.3177391 26.30481977 23.875 20.8125 C23.58625 21.781875 23.2975 22.75125 23 23.75 C21.875 26.8125 21.875 26.8125 19.875 27.8125 C19.40545739 30.85831269 19.40545739 30.85831269 19.25 34.375 C19.17523438 35.57253906 19.10046875 36.77007812 19.0234375 38.00390625 C18.94996094 39.39416016 18.94996094 39.39416016 18.875 40.8125 C15.1485915 41.85952186 11.74486958 41.88692057 7.875 41.8125 C8.060625 41.02875 8.24625 40.245 8.4375 39.4375 C9.13462266 36.84160225 9.13462266 36.84160225 7.875 34.8125 C7.545 35.8025 7.215 36.7925 6.875 37.8125 C5.98749557 37.80916908 5.98749557 37.80916908 5.08206177 37.80577087 C-1.11553337 37.78352546 -7.31311702 37.76851359 -13.51074219 37.75756836 C-15.81901511 37.75256161 -18.1272849 37.74575426 -20.43554688 37.73706055 C-23.76693499 37.72483395 -27.09828092 37.71923495 -30.4296875 37.71484375 C-31.44988983 37.70968246 -32.47009216 37.70452118 -33.52120972 37.69920349 C-39.78357806 37.69872096 -45.90765344 38.05887091 -52.125 38.8125 C-51.795 37.8225 -51.465 36.8325 -51.125 35.8125 C-50.44261765 35.80441315 -49.76023529 35.79632629 -49.05717468 35.78799438 C-41.9683436 35.7020772 -34.87979631 35.60257931 -27.79125977 35.49511719 C-25.14417275 35.45678421 -22.49703287 35.42193906 -19.84985352 35.390625 C-16.04944944 35.34506855 -12.24941068 35.28705803 -8.44921875 35.2265625 C-6.66785774 35.20923569 -6.66785774 35.20923569 -4.85050964 35.19155884 C-3.74959488 35.17168915 -2.64868011 35.15181946 -1.5144043 35.13134766 C-0.54399704 35.11802399 0.42641022 35.10470032 1.42622375 35.0909729 C4.13030402 34.97244947 4.13030402 34.97244947 6.875 32.8125 C7.31327201 30.90792071 7.31327201 30.90792071 7.1875 28.8125 C7.18363281 28.11125 7.17976563 27.41 7.17578125 26.6875 C7.02412946 24.5708423 7.02412946 24.5708423 4.875 22.8125 C2.74639338 22.44297951 2.74639338 22.44297951 0.3046875 22.3984375 C-0.59121094 22.35976562 -1.48710938 22.32109375 -2.41015625 22.28125 C-3.34730469 22.2503125 -4.28445312 22.219375 -5.25 22.1875 C-6.19488281 22.14882812 -7.13976562 22.11015625 -8.11328125 22.0703125 C-10.45032375 21.97588654 -12.78735501 21.89031606 -15.125 21.8125 C-16.125 19.8125 -16.125 19.8125 -15.55859375 18 C-14.45736015 15.58160465 -13.29468832 13.19852065 -12.125 10.8125 C-11.74601562 9.88308594 -11.36703125 8.95367187 -10.9765625 7.99609375 C-8.31226037 2.32032286 -6.45517991 0.15424564 0 0 Z " fill="#C9452C" transform="translate(75.125,62.1875)"/>
<path d="M0 0 C5.07208152 2.43850073 7.96982312 5.79722339 10 11 C10.55725889 14.4963387 10.56028162 17.90348998 10.5 21.4375 C10.51546875 22.34048828 10.5309375 23.24347656 10.546875 24.17382812 C10.51155636 30.27070851 9.44471036 34.90874651 6 40 C2.23252339 43.54586034 -1.66747574 43.32357099 -6.59765625 43.30078125 C-9.20501145 42.9743319 -10.79872306 42.42518571 -13 41 C-18.41676615 32.95223314 -18.77904847 24.54608687 -18 15 C-16.79942724 9.47050487 -15.33154515 5.30128276 -11.25 1.3125 C-7.26694209 -0.29604262 -4.22764823 -0.82016376 0 0 Z " fill="#525D6B" transform="translate(340,81)"/>
<path d="M0 0 C3.14917328 1.25502109 3.8239681 2.1770397 6 5 C7.72853434 10.61173476 8.3389722 15.71214278 8.3125 21.5625 C8.32861328 22.27857422 8.34472656 22.99464844 8.36132812 23.73242188 C8.36692041 29.87834577 7.06433486 34.62288713 2.9375 39.375 C-0.89358669 42.58816948 -4.36220122 42.45234508 -9.23046875 42.4140625 C-12.92214211 41.8621339 -14.48040025 40.55514868 -16.87890625 37.80078125 C-20.15812786 32.53346013 -20.38619737 27.80836785 -20.375 21.75 C-20.37411377 20.90115234 -20.37322754 20.05230469 -20.37231445 19.17773438 C-20.23854352 12.12114767 -18.96170822 7.02345267 -14.7578125 1.3125 C-10.74321889 -1.68506323 -4.72243673 -0.60335801 0 0 Z " fill="#576170" transform="translate(177,82)"/>
<path d="M0 0 C3.4359921 1.41121104 5.10956542 2.51480951 7.0234375 5.70703125 C9.10265515 10.69524607 9.26942286 15.78097349 9.3125 21.125 C9.31813965 21.79370117 9.3237793 22.46240234 9.32958984 23.15136719 C9.2620296 27.79813764 8.42530767 31.6275422 7 36 C6.34 36 5.68 36 5 36 C4.731875 36.61875 4.46375 37.2375 4.1875 37.875 C3 40 3 40 0 42 C-5.2505971 42.77214663 -9.59547033 42.99487518 -14 39.875 C-18.46094656 33.46238932 -19.50010308 28.78534099 -19.4375 21.125 C-19.45748047 20.26519531 -19.47746094 19.40539062 -19.49804688 18.51953125 C-19.49277068 11.56551276 -18.01040458 6.10255982 -13.0859375 1.02734375 C-8.92088627 -1.02398298 -4.5082677 -0.56190003 0 0 Z " fill="#C6523D" transform="translate(176,23)"/>
<path d="M0 0 C3.36786012 1.561813 5.3145613 3.76240234 7.125 7.03125 C8.42735307 11.44994791 8.36860314 15.72914681 8.375 20.3125 C8.39949219 21.22451172 8.42398437 22.13652344 8.44921875 23.07617188 C8.4799908 30.23067329 7.16117076 35.73539625 2.08984375 40.97265625 C-2.06747074 43.01634543 -6.5013032 42.58155516 -11 42 C-15.47263794 39.76368103 -16.71348412 36.90351335 -18.37597656 32.28710938 C-19.44639779 28.3639067 -19.43340693 24.5430572 -19.375 20.5 C-19.38660156 19.69691406 -19.39820313 18.89382812 -19.41015625 18.06640625 C-19.37959336 11.78063844 -18.62425675 5.83825193 -14.1796875 1.03125 C-9.68650392 -1.09455729 -4.82594457 -0.69034234 0 0 Z " fill="#C94731" transform="translate(340,23)"/>
<path d="M0 0 C0.83265381 0.00523682 1.66530762 0.01047363 2.52319336 0.01586914 C3.42231445 0.0190918 4.32143555 0.02231445 5.24780273 0.02563477 C6.66609375 0.03820312 6.66609375 0.03820312 8.11303711 0.05102539 C9.06243164 0.05553711 10.01182617 0.06004883 10.98999023 0.06469727 C13.34356776 0.07652429 15.69702188 0.09300514 18.05053711 0.11352539 C17.47786339 4.21768703 16.62365171 7.18073889 15.05053711 11.11352539 C9.77053711 11.11352539 4.49053711 11.11352539 -0.94946289 11.11352539 C-0.61946289 12.76352539 -0.28946289 14.41352539 0.05053711 16.11352539 C1.09854492 16.1509082 2.14655273 16.18829102 3.22631836 16.22680664 C4.60526016 16.29247054 5.98416482 16.35891774 7.36303711 16.42602539 C8.05333008 16.44858398 8.74362305 16.47114258 9.45483398 16.49438477 C14.5735951 16.76639623 14.5735951 16.76639623 16.98803711 18.52368164 C19.88629344 22.86041079 19.55515601 29.08504229 19.05053711 34.11352539 C17.49782513 38.18015201 16.68774309 39.68872141 13.05053711 42.11352539 C10.87402344 42.34057617 10.87402344 42.34057617 8.38256836 42.30883789 C7.48989258 42.30239258 6.5972168 42.29594727 5.67749023 42.28930664 C4.7487207 42.27254883 3.81995117 42.25579102 2.86303711 42.23852539 C1.92266602 42.22950195 0.98229492 42.22047852 0.01342773 42.21118164 C-2.30779257 42.18761595 -4.62849933 42.15471655 -6.94946289 42.11352539 C-6.37678917 38.00936375 -5.52257749 35.04631189 -3.94946289 31.11352539 C1.66053711 31.11352539 7.27053711 31.11352539 13.05053711 31.11352539 C13.05053711 29.13352539 13.05053711 27.15352539 13.05053711 25.11352539 C7.77053711 25.11352539 2.49053711 25.11352539 -2.94946289 25.11352539 C-6.52708149 19.076294 -8.16158718 14.16267539 -6.94946289 7.11352539 C-5.5294614 3.96150414 -3.69004764 0.21488693 0 0 Z " fill="#515A6A" transform="translate(404.949462890625,81.886474609375)"/>
<path d="M0 0 C0.85078125 0.00322266 1.7015625 0.00644531 2.578125 0.00976562 C3.46757812 0.01814453 4.35703125 0.02652344 5.2734375 0.03515625 C6.170625 0.03966797 7.0678125 0.04417969 7.9921875 0.04882812 C10.21100398 0.06063034 12.42968768 0.0770947 14.6484375 0.09765625 C14.07576378 4.20181789 13.2215521 7.16486975 11.6484375 11.09765625 C6.6984375 11.09765625 1.7484375 11.09765625 -3.3515625 11.09765625 C-3.3515625 13.07765625 -3.3515625 15.05765625 -3.3515625 17.09765625 C-2.31515625 17.03964844 -1.27875 16.98164062 -0.2109375 16.921875 C1.15880906 16.87496587 2.52860442 16.82946693 3.8984375 16.78515625 C4.58035156 16.74326172 5.26226562 16.70136719 5.96484375 16.65820312 C9.5874055 16.57027687 11.31059657 16.81335588 14.11328125 19.171875 C16.00340516 22.77417222 16.08561341 25.17283883 15.9609375 29.22265625 C15.93644531 30.44210938 15.91195312 31.6615625 15.88671875 32.91796875 C15.6201983 36.47448756 15.4626065 38.38629474 12.73046875 40.7734375 C8.2567655 42.69559897 4.14646857 42.41774333 -0.6640625 42.28515625 C-2.06108398 42.26485352 -2.06108398 42.26485352 -3.48632812 42.24414062 C-5.77498962 42.20893045 -8.06335179 42.15512759 -10.3515625 42.09765625 C-9.3615625 38.46765625 -8.3715625 34.83765625 -7.3515625 31.09765625 C-1.7415625 31.09765625 3.8684375 31.09765625 9.6484375 31.09765625 C9.6484375 29.11765625 9.6484375 27.13765625 9.6484375 25.09765625 C8.60042969 25.13246094 7.55242187 25.16726562 6.47265625 25.203125 C5.09376603 25.23126562 3.71485848 25.25856549 2.3359375 25.28515625 C1.30049805 25.32286133 1.30049805 25.32286133 0.24414062 25.36132812 C-4.86247324 25.43533702 -4.86247324 25.43533702 -7.26953125 23.7734375 C-10.44654315 18.85308332 -9.78120275 12.71260983 -9.3515625 7.09765625 C-7.25247674 1.46828988 -5.8840485 -0.03922699 0 0 Z " fill="#4F5968" transform="translate(129.3515625,81.90234375)"/>
<path d="M0 0 C1.82904452 0.03976184 3.65762141 0.11115684 5.484375 0.2109375 C6.42023438 0.23800781 7.35609375 0.26507812 8.3203125 0.29296875 C10.6273474 0.36359227 12.92968269 0.46213171 15.234375 0.5859375 C14.54720434 4.47990456 13.51104159 7.75593772 12.234375 11.5859375 C7.284375 11.5859375 2.334375 11.5859375 -2.765625 11.5859375 C-2.765625 13.5659375 -2.765625 15.5459375 -2.765625 17.5859375 C-1.71761719 17.55113281 -0.66960937 17.51632813 0.41015625 17.48046875 C1.78904647 17.45232813 3.16795402 17.42502826 4.546875 17.3984375 C5.23716797 17.37330078 5.92746094 17.34816406 6.63867188 17.32226562 C11.74528574 17.24825673 11.74528574 17.24825673 14.15234375 18.91015625 C17.31920696 23.81479278 16.78799164 29.99071871 16.234375 35.5859375 C14.97024411 38.78520713 13.38427082 41.01098959 10.234375 42.5859375 C8.71289174 42.66966409 7.18781722 42.69323777 5.6640625 42.68359375 C4.76816406 42.68037109 3.87226563 42.67714844 2.94921875 42.67382812 C1.54349609 42.66125977 1.54349609 42.66125977 0.109375 42.6484375 C-0.83550781 42.64392578 -1.78039062 42.63941406 -2.75390625 42.63476562 C-5.0911727 42.62296125 -7.42840669 42.60502549 -9.765625 42.5859375 C-8.775625 38.9559375 -7.785625 35.3259375 -6.765625 31.5859375 C1.649375 31.0909375 1.649375 31.0909375 10.234375 30.5859375 C10.564375 28.9359375 10.894375 27.2859375 11.234375 25.5859375 C10.19796875 25.63234375 9.1615625 25.67875 8.09375 25.7265625 C6.72398721 25.76409025 5.35419318 25.80048934 3.984375 25.8359375 C2.96150391 25.88621094 2.96150391 25.88621094 1.91796875 25.9375 C-1.58067293 26.00543479 -3.39030101 25.87893236 -6.1875 23.6953125 C-8.86219146 20.12022986 -8.98161859 17.78539085 -9.078125 13.3359375 C-9.11550781 12.21703125 -9.15289062 11.098125 -9.19140625 9.9453125 C-8.39982783 3.69983142 -6.47064924 0.29599844 0 0 Z " fill="#C64D36" transform="translate(128.765625,22.4140625)"/>
<path d="M0 0 C3.14581423 -0.02888514 6.29159469 -0.04675923 9.4375 -0.0625 C10.33533203 -0.07087891 11.23316406 -0.07925781 12.15820312 -0.08789062 C13.01220703 -0.09111328 13.86621094 -0.09433594 14.74609375 -0.09765625 C15.93223267 -0.10551147 15.93223267 -0.10551147 17.14233398 -0.11352539 C19 0 19 0 20 1 C20.86426412 8.40917683 18.45307474 12.63675497 14.5625 18.8125 C13.54096325 20.48445341 12.52134449 22.15758061 11.50390625 23.83203125 C11.04830322 24.56139893 10.5927002 25.2907666 10.12329102 26.04223633 C8.856669 28.10026096 8.856669 28.10026096 8 31 C12.29 31 16.58 31 21 31 C20.22714361 34.86428195 19.28980123 38.30256981 18 42 C14.68751813 42.02888146 11.37506833 42.04675799 8.0625 42.0625 C7.11697266 42.07087891 6.17144531 42.07925781 5.19726562 42.08789062 C3.84858398 42.09272461 3.84858398 42.09272461 2.47265625 42.09765625 C1.22367554 42.10551147 1.22367554 42.10551147 -0.05053711 42.11352539 C-2 42 -2 42 -3 41 C-3.92184514 32.77747063 -1.4260804 28.23113467 3 21.4375 C3.57234375 20.52419922 4.1446875 19.61089844 4.734375 18.66992188 C6.13834716 16.43526619 7.56675032 14.21599169 9 12 C4.71 11.67 0.42 11.34 -4 11 C-1.125 2.25 -1.125 2.25 0 0 Z " fill="#C74831" transform="translate(288,23)"/>
<path d="M0 0 C2.34959886 0.68486065 3.70222194 1.54514609 5.04785156 3.60058594 C6.13017588 5.66909687 7.13980459 7.75851556 8.125 9.875 C8.47175781 10.59558594 8.81851562 11.31617187 9.17578125 12.05859375 C9.82344276 13.40602747 10.46612489 14.75587478 11.10205078 16.10888672 C12.04073365 18.08578653 13.02130103 20.04260206 14 22 C14.33 15.07 14.66 8.14 15 1 C16.98 1 18.96 1 21 1 C21.04940929 6.49925421 21.08572395 11.99837942 21.10986328 17.49780273 C21.11992567 19.36891938 21.13357691 21.24002028 21.15087891 23.11108398 C21.17511684 25.79935591 21.18648063 28.48742006 21.1953125 31.17578125 C21.20563507 32.01337479 21.21595764 32.85096832 21.22659302 33.71394348 C21.22774341 39.65838488 21.22774341 39.65838488 19 43 C17.68 43 16.36 43 15 43 C14.73783691 42.44014404 14.47567383 41.88028809 14.20556641 41.3034668 C13.01453452 38.76363475 11.81981069 36.22555644 10.625 33.6875 C10.2125 32.80642578 9.8 31.92535156 9.375 31.01757812 C8.97539062 30.17001953 8.57578125 29.32246094 8.1640625 28.44921875 C7.61419678 27.27879028 7.61419678 27.27879028 7.05322266 26.0847168 C5.94495638 23.78753707 5.94495638 23.78753707 4 21 C3.67 28.26 3.34 35.52 3 43 C1.35 43 -0.3 43 -2 43 C-2.04934656 37.19760386 -2.08569402 31.39532919 -2.10986328 25.59277344 C-2.11993627 23.61781691 -2.13359521 21.64287534 -2.15087891 19.66796875 C-2.17507039 16.83329582 -2.18646991 13.99881962 -2.1953125 11.1640625 C-2.20563507 10.27756012 -2.21595764 9.39105774 -2.22659302 8.47769165 C-2.2269907 6.31714048 -2.12272534 4.15706282 -2 2 C-1.34 1.34 -0.68 0.68 0 0 Z " fill="#576170" transform="translate(365,81)"/>
<path d="M0 0 C1.98 0 3.96 0 6 0 C6.01458252 0.86802246 6.02916504 1.73604492 6.04418945 2.63037109 C6.10520111 5.84738879 6.17934391 9.06375663 6.26245117 12.28027344 C6.29572873 13.67306089 6.32375197 15.06598411 6.34643555 16.45898438 C6.37992689 18.45991378 6.43381305 20.46046921 6.48828125 22.4609375 C6.51446533 23.66540527 6.54064941 24.86987305 6.56762695 26.11083984 C6.71031006 27.0642627 6.85299316 28.01768555 7 29 C9.90585687 31.38798682 9.90585687 31.38798682 13.625 30.6875 C16.82504312 30.35886877 16.82504312 30.35886877 18 29 C18.15858842 26.85613343 18.25129298 24.70733162 18.31640625 22.55859375 C18.35830078 21.25341797 18.40019531 19.94824219 18.44335938 18.60351562 C18.48317608 17.2148467 18.52288825 15.82617478 18.5625 14.4375 C18.60567989 13.04490817 18.649294 11.65232972 18.69335938 10.25976562 C18.79985876 6.83995199 18.90186923 3.42006237 19 0 C20.98 0 22.96 0 25 0 C25.09961729 4.41074704 25.17181669 8.82088095 25.21972656 13.23242188 C25.23971919 14.7299339 25.26692299 16.22736908 25.30175781 17.72460938 C25.66040175 33.54713604 25.66040175 33.54713604 21 40 C16.73383047 42.48937796 12.84703152 42.81483892 8 42 C4.46264744 40.25749863 2.39837397 37.94366 0.85205078 34.28076172 C-0.10389854 30.59994597 -0.22672664 27.43392392 -0.1953125 23.6328125 C-0.1924826 22.95322479 -0.18965271 22.27363708 -0.18673706 21.57345581 C-0.17562964 19.42378392 -0.15054391 17.27454386 -0.125 15.125 C-0.11495795 13.65886023 -0.10583425 12.19271386 -0.09765625 10.7265625 C-0.07572159 7.15090369 -0.04125814 3.57549406 0 0 Z " fill="#535D6E" transform="translate(230,82)"/>
<path d="M0 0 C7.26 0 14.52 0 22 0 C21 6 21 6 19 11 C15.04 11 11.08 11 7 11 C7 12.65 7 14.3 7 16 C11.62 16 16.24 16 21 16 C20.22714361 19.86428195 19.28980123 23.30256981 18 27 C14.37 27 10.74 27 7 27 C7 31.95 7 36.9 7 42 C4.69 42 2.38 42 0 42 C0 28.14 0 14.28 0 0 Z " fill="#BE5244" transform="translate(197,23)"/>
<path d="M0 0 C7.26 0 14.52 0 22 0 C19.125 10.875 19.125 10.875 18 12 C16.02 12 14.04 12 12 12 C12 21.9 12 31.8 12 42 C9.69 42 7.38 42 5 42 C5 31.77 5 21.54 5 11 C2.36 11 -0.28 11 -3 11 C-2.42732628 6.89583836 -1.5731146 3.9327865 0 0 Z " fill="#5D6775" transform="translate(270,82)"/>
<path d="M0 0 C2.31 0 4.62 0 7 0 C7 10.23 7 20.46 7 31 C11.62 31 16.24 31 21 31 C19.125 39.75 19.125 39.75 18 42 C12.06 42 6.12 42 0 42 C0 28.14 0 14.28 0 0 Z " fill="#666E7C" transform="translate(197,82)"/>
<path d="M0 0 C7.26 0 14.52 0 22 0 C21.2817669 4.3093986 20.69268808 7.16324035 19 11 C16.69 11 14.38 11 12 11 C12 21.23 12 31.46 12 42 C10.02 42 8.04 42 6 42 C6 31.77 6 21.54 6 11 C3.36 11 0.72 11 -2 11 C-1.34 7.37 -0.68 3.74 0 0 Z " fill="#C1513D" transform="translate(232,23)"/>
<path d="M0 0 C0.33 0 0.66 0 1 0 C1.12117187 0.78503906 1.24234375 1.57007812 1.3671875 2.37890625 C2.27186083 8.05051213 3.2579299 13.52492254 5 19 C12.17542305 19.16317815 12.17542305 19.16317815 18.125 15.9375 C19.22158281 12.25611487 19.6754385 8.82982574 20 5 C20.99 4.67 21.98 4.34 23 4 C23.33 3.34 23.66 2.68 24 2 C24.11698258 5.20802233 24.18750607 8.41549025 24.25 11.625 C24.28351563 12.52863281 24.31703125 13.43226562 24.3515625 14.36328125 C24.43501666 20.07989096 24.00052367 23.56585314 20 28 C15.61374769 31.07932815 10.11882815 30.86546661 5 30 C1.37850565 27.77516723 -0.6470943 25.0587171 -2 21 C-2.12255168 18.1756113 -2.18512869 15.38673238 -2.1875 12.5625 C-2.19974609 11.79873047 -2.21199219 11.03496094 -2.22460938 10.24804688 C-2.24268746 3.32414149 -2.24268746 3.32414149 0 0 Z " fill="#4E5765" transform="translate(160,94)"/>
<path d="M0 0 C2.27024968 -0.08097324 4.54132075 -0.13917704 6.8125 -0.1875 C8.07707031 -0.22230469 9.34164062 -0.25710937 10.64453125 -0.29296875 C14 0 14 0 15.88671875 1.32421875 C19.11523905 6.18399141 18.55207018 12.42041069 18 18 C16.73586911 21.19926963 15.14989582 23.42505209 12 25 C10.47851674 25.08372659 8.95344222 25.10730027 7.4296875 25.09765625 C6.53378906 25.09443359 5.63789063 25.09121094 4.71484375 25.08789062 C3.77769531 25.07951172 2.84054688 25.07113281 1.875 25.0625 C0.93011719 25.05798828 -0.01476562 25.05347656 -0.98828125 25.04882812 C-3.3255477 25.03702375 -5.66278169 25.01908799 -8 25 C-6.515 19.555 -6.515 19.555 -5 14 C3.415 13.505 3.415 13.505 12 13 C12.33 11.35 12.66 9.7 13 8 C11.96359375 8.04640625 10.9271875 8.0928125 9.859375 8.140625 C8.48961221 8.17815275 7.11981818 8.21455184 5.75 8.25 C4.72712891 8.30027344 4.72712891 8.30027344 3.68359375 8.3515625 C0.07818187 8.4215705 -1.64068812 8.29151719 -4.484375 5.984375 C-4.98453125 5.32953125 -5.4846875 4.6746875 -6 4 C-5.01 4 -4.02 4 -3 4 C-3 4.66 -3 5.32 -3 6 C-1.95199219 5.98839844 -0.90398437 5.97679687 0.17578125 5.96484375 C1.55468572 5.95546345 2.93359211 5.9463635 4.3125 5.9375 C5.00279297 5.92912109 5.69308594 5.92074219 6.40429688 5.91210938 C9.5483025 5.89692094 11.99420019 5.99806673 15 7 C14.34 5.02 13.68 3.04 13 1 C8.71 1 4.42 1 0 1 C0 0.67 0 0.34 0 0 Z " fill="#BD513D" transform="translate(127,40)"/>
<path d="M0 0 C3.82159287 0.67439874 7.44526118 1.42011608 11 3 C13.79353179 7.68745164 13.36762285 13.02677147 13.375 18.3125 C13.39949219 19.22451172 13.42398437 20.13652344 13.44921875 21.07617188 C13.47447562 26.94839341 13.03869065 32.423369 9 37 C5.72265625 38.10546875 5.72265625 38.10546875 2.0625 38.1875 C0.25458984 38.27064453 0.25458984 38.27064453 -1.58984375 38.35546875 C-5.25571035 37.9733452 -7.12432969 37.27193842 -10 35 C-11 32 -11 32 -10.0625 29.8125 C-9.5365625 28.9153125 -9.5365625 28.9153125 -9 28 C-8.34 28.66 -7.68 29.32 -7 30 C-3.87185486 30.24360073 -3.87185486 30.24360073 -0.375 30.125 C0.81351562 30.10695313 2.00203125 30.08890625 3.2265625 30.0703125 C4.59941406 30.03550781 4.59941406 30.03550781 6 30 C6 29.34 6 28.68 6 28 C6.66 28 7.32 28 8 28 C8.02887814 24.52085059 8.04675687 21.04173169 8.0625 17.5625 C8.07087891 16.56927734 8.07925781 15.57605469 8.08789062 14.55273438 C8.09111328 13.60849609 8.09433594 12.66425781 8.09765625 11.69140625 C8.10289307 10.81685791 8.10812988 9.94230957 8.11352539 9.04125977 C8.22784809 7.00559794 8.22784809 7.00559794 7 6 C4.29891496 6.090916 1.63069689 6.23740766 -1.0625 6.4375 C-1.82111328 6.48970703 -2.57972656 6.54191406 -3.36132812 6.59570312 C-5.24121722 6.72575835 -7.12065685 6.86228038 -9 7 C-8.67 5.35 -8.34 3.7 -8 2 C-4 2 -4 2 -2.25 3.5 C-1.63125 4.2425 -1.63125 4.2425 -1 5 C-0.67 3.35 -0.34 1.7 0 0 Z " fill="#C9442B" transform="translate(335,25)"/>
<path d="M0 0 C1.14275391 0.00193359 1.14275391 0.00193359 2.30859375 0.00390625 C5.23655096 0.56717012 6.53976602 1.22428434 8.5625 3.4375 C9.05859375 6.65234375 9.05859375 6.65234375 9 10.375 C8.99871094 11.60089844 8.99742187 12.82679687 8.99609375 14.08984375 C8.54094269 17.60393797 8.19265222 19.08935535 5.5625 21.4375 C3.1875 22.00390625 3.1875 22.00390625 0.5625 22 C-0.30375 22.02191406 -1.17 22.04382813 -2.0625 22.06640625 C-4.4375 21.4375 -4.4375 21.4375 -6.2265625 19.28125 C-7.58352593 16.0945746 -7.83869191 13.82796655 -7.8125 10.375 C-7.82023438 9.35277344 -7.82796875 8.33054687 -7.8359375 7.27734375 C-7.12202577 2.18897286 -5.2154766 -0.13192605 0 0 Z " fill="#FBF6F2" transform="translate(170.4375,32.5625)"/>
<path d="M0 0 C0.7734375 -0.01417969 1.546875 -0.02835937 2.34375 -0.04296875 C4.5 0.1875 4.5 0.1875 7.5 2.1875 C7.828125 5.33984375 7.828125 5.33984375 7.75 9.125 C7.73453125 10.37152344 7.7190625 11.61804688 7.703125 12.90234375 C7.5 16.1875 7.5 16.1875 6.5 19.1875 C4.0558206 20.4095897 2.28970128 20.42391068 -0.4375 20.5 C-1.31277344 20.53738281 -2.18804687 20.57476562 -3.08984375 20.61328125 C-5.5 20.1875 -5.5 20.1875 -7.30078125 18.58203125 C-8.87727058 15.43418774 -8.82914539 13.06864082 -8.75 9.5625 C-8.73453125 8.41523437 -8.7190625 7.26796875 -8.703125 6.0859375 C-8.5 3.1875 -8.5 3.1875 -7.5 1.1875 C-4.71398777 0.25882926 -2.88933911 0.02407783 0 0 Z " fill="#F6F7F8" transform="translate(336.5,92.8125)"/>
<path d="M0 0 C2.2265625 1.01953125 2.2265625 1.01953125 4 3 C4.37891525 5.84335616 4.5150751 8.23225993 4.4375 11.0625 C4.44458984 11.79533203 4.45167969 12.52816406 4.45898438 13.28320312 C4.43359375 15.41015625 4.43359375 15.41015625 4 19 C0.74917327 21.16721782 -0.29232153 21.27221018 -4.0625 21.25 C-4.94035156 21.25515625 -5.81820313 21.2603125 -6.72265625 21.265625 C-9 21 -9 21 -11 19 C-11.22552238 16.30837575 -11.3243329 13.75330256 -11.3125 11.0625 C-11.32861328 10.33353516 -11.34472656 9.60457031 -11.36132812 8.85351562 C-11.36617143 3.56947519 -11.36617143 3.56947519 -9.7265625 1.01953125 C-6.73907814 -0.7445715 -3.32072184 -0.65012213 0 0 Z " fill="#FBFAF6" transform="translate(338,33)"/>
<path d="M0 0 C4.78138936 1.83899591 5.93307929 5.02151532 8.03125 9.4609375 C9.17535721 12.45960559 9.30310273 14.81742129 9 18 C9.43941523 20.26566343 9.43941523 20.26566343 10 22 C8.02 21.67 6.04 21.34 4 21 C3.67 28.26 3.34 35.52 3 43 C1.35 43 -0.3 43 -2 43 C-2.04934656 37.19760386 -2.08569402 31.39532919 -2.10986328 25.59277344 C-2.11993627 23.61781691 -2.13359521 21.64287534 -2.15087891 19.66796875 C-2.17507039 16.83329582 -2.18646991 13.99881962 -2.1953125 11.1640625 C-2.20563507 10.27756012 -2.21595764 9.39105774 -2.22659302 8.47769165 C-2.2269907 6.31714048 -2.12272534 4.15706282 -2 2 C-1.34 1.34 -0.68 0.68 0 0 Z " fill="#4E5968" transform="translate(365,81)"/>
<path d="M0 0 C2.31 0 4.62 0 7 0 C7 13.86 7 27.72 7 42 C4.69 42 2.38 42 0 42 C0 28.14 0 14.28 0 0 Z " fill="#606B78" transform="translate(303,82)"/>
<path d="M0 0 C2.31 0 4.62 0 7 0 C7 13.86 7 27.72 7 42 C4.69 42 2.38 42 0 42 C0 28.14 0 14.28 0 0 Z " fill="#C86856" transform="translate(266,23)"/>
<path d="M0 0 C0.78246094 -0.02578125 1.56492188 -0.0515625 2.37109375 -0.078125 C4.5625 0.25 4.5625 0.25 6.32421875 1.36328125 C8.14698429 4.14055492 7.95990919 6.39708408 7.9375 9.6875 C7.94523437 10.82058594 7.95296875 11.95367187 7.9609375 13.12109375 C7.52570388 16.53895778 7.15113662 17.98149328 4.5625 20.25 C1.86328125 20.640625 1.86328125 20.640625 -1.125 20.5 C-2.11886719 20.46390625 -3.11273438 20.4278125 -4.13671875 20.390625 C-5.27560547 20.32101563 -5.27560547 20.32101563 -6.4375 20.25 C-8.98296744 14.51259719 -9.32410136 9.2897761 -7.5625 3.25 C-5.691029 -0.07705955 -3.56426808 0.07023188 0 0 Z " fill="#F8FAFA" transform="translate(171.4375,92.75)"/>
<path d="M0 0 C1.43331965 2.36076177 1.34784319 4.03923972 1.0625 6.75 C-1.1381239 8.9506239 -6.17240742 8.13847018 -9.15234375 8.2734375 C-10.07144531 8.43070313 -10.99054688 8.58796875 -11.9375 8.75 C-14.20704631 12.15431947 -14.30299949 13.91524202 -14.5625 17.9375 C-14.63726562 19.02417969 -14.71203125 20.11085938 -14.7890625 21.23046875 C-14.83804687 22.06191406 -14.88703125 22.89335938 -14.9375 23.75 C-16.2575 23.75 -17.5775 23.75 -18.9375 23.75 C-19.2675 24.41 -19.5975 25.07 -19.9375 25.75 C-21.74542656 23.94207344 -21.19542366 21.31657313 -21.25 18.875 C-21.17071505 12.33038762 -20.50828417 6.37123446 -16.9375 0.75 C-12.03419352 -3.01522883 -5.25084569 -3.38764238 0 0 Z " fill="#4D5968" transform="translate(342.9375,84.25)"/>
<path d="M0 0 C3.93954721 3.93954721 3.18255952 9.58868826 3.1875 14.875 C3.19974609 15.55691406 3.21199219 16.23882812 3.22460938 16.94140625 C3.23808054 21.65631519 2.47921101 25.52144019 1 30 C0.34 30 -0.32 30 -1 30 C-1.268125 30.61875 -1.53625 31.2375 -1.8125 31.875 C-3 34 -3 34 -6 36 C-11.01669363 36.65868039 -15.53869317 37.08748415 -19.6875 34 C-20.120625 33.34 -20.55375 32.68 -21 32 C-20.34 31.67 -19.68 31.34 -19 31 C-18.34 31.309375 -17.68 31.61875 -17 31.9375 C-12.68044339 33.46734296 -8.53818885 33.15861631 -4 33 C-4.33 31.68 -4.66 30.36 -5 29 C-8.96 28.67 -12.92 28.34 -17 28 C-17 27.34 -17 26.68 -17 26 C-17.66 26 -18.32 26 -19 26 C-19.85298376 22.32612505 -20.10789471 18.9552607 -20.0625 15.1875 C-20.05347656 14.21167969 -20.04445312 13.23585938 -20.03515625 12.23046875 C-20.02355469 11.49441406 -20.01195312 10.75835937 -20 10 C-19.67 10 -19.34 10 -19 10 C-18.86722656 10.92683594 -18.73445312 11.85367188 -18.59765625 12.80859375 C-18.42105469 14.00613281 -18.24445313 15.20367187 -18.0625 16.4375 C-17.80146484 18.22994141 -17.80146484 18.22994141 -17.53515625 20.05859375 C-17.31014787 22.87955676 -17.31014787 22.87955676 -16 24 C-13.70384446 24.23819228 -13.70384446 24.23819228 -11.0625 24.25 C-9.71865234 24.28867187 -9.71865234 24.28867187 -8.34765625 24.328125 C-7.18556641 24.16570313 -7.18556641 24.16570313 -6 24 C-3.28810759 19.93216138 -3.66697277 16.51147872 -3.5390625 11.71484375 C-3 9 -3 9 -0.9609375 7.62890625 C-0.31382812 7.42136719 0.33328125 7.21382812 1 7 C0.67 4.69 0.34 2.38 0 0 Z " fill="#C85442" transform="translate(182,29)"/>
<path d="M0 0 C4.95 0 9.9 0 15 0 C14.67 2.31 14.34 4.62 14 7 C8.06 7.495 8.06 7.495 2 8 C2.33 10.64 2.66 13.28 3 16 C6.96 16 10.92 16 15 16 C15 17.65 15 19.3 15 21 C12.62283018 23.37716982 11.8160297 23.31140657 8.5625 23.5625 C5.76312913 23.78847887 3.69540966 24.10153011 1 25 C0.24636948 21.64908229 -0.11979937 18.56890188 -0.09765625 15.13671875 C-0.09443359 14.25048828 -0.09121094 13.36425781 -0.08789062 12.45117188 C-0.07951172 11.53916016 -0.07113281 10.62714844 -0.0625 9.6875 C-0.05798828 8.75615234 -0.05347656 7.82480469 -0.04882812 6.86523438 C-0.03709254 4.57679513 -0.01915861 2.28838914 0 0 Z " fill="#CA452B" transform="translate(200,25)"/>
<path d="M0 0 C0.66 0.99 1.32 1.98 2 3 C1.67 3.99 1.34 4.98 1 6 C8.91125443 5.91520978 16.82229444 5.82018096 24.73326683 5.71247292 C28.40758954 5.66276029 32.08188692 5.61643059 35.75634766 5.578125 C39.30968666 5.54095271 42.86279986 5.49451167 46.41594315 5.44193649 C48.41527092 5.41468495 50.41471894 5.39676279 52.41415405 5.37905884 C59.52412757 5.26517782 66.09036564 4.66177627 73 3 C74.66553294 2.66104732 76.33194358 2.32630763 78 2 C76.26524765 5.06132767 75.20903461 5.92609832 71.83592224 7.11862183 C67.97014768 8.00685915 64.64749416 8.24116754 60.68774414 8.22705078 C59.6474556 8.22748886 59.6474556 8.22748886 58.58615112 8.22793579 C56.31902059 8.22655474 54.05222858 8.21105222 51.78515625 8.1953125 C50.20332519 8.191578 48.6214918 8.18873309 47.03965759 8.18673706 C42.89518747 8.17913501 38.7508596 8.15951633 34.60644531 8.1373291 C30.36981124 8.11679647 26.13315397 8.10771954 21.89648438 8.09765625 C13.59759128 8.07626689 5.29881339 8.0421728 -3 8 C-2.31911019 5.08014819 -1.41898766 2.64877696 0 0 Z " fill="#B05B4C" transform="translate(14,117)"/>
<path d="M0 0 C0.99 0.33 1.98 0.66 3 1 C3.36783439 7.49840764 3.36783439 7.49840764 1.625 9.875 C-2.82156265 12.95338953 -7.76483485 12.56366822 -13 12 C-15.75 10.25 -15.75 10.25 -17 8 C-16.9375 5.875 -16.9375 5.875 -16 4 C-12.47320901 1.64880601 -10.97120515 1.78556548 -6.8125 1.875 C-5.72582031 1.89304687 -4.63914063 1.91109375 -3.51953125 1.9296875 C-2.27236328 1.96449219 -2.27236328 1.96449219 -1 2 C-0.67 1.34 -0.34 0.68 0 0 Z " fill="#495464" transform="translate(178,112)"/>
<path d="M0 0 C1.32 0 2.64 0 4 0 C4.25 2.8125 4.25 2.8125 4 6 C2.125 7.875 2.125 7.875 0 9 C-0.66 9 -1.32 9 -2 9 C-2 9.66 -2 10.32 -2 11 C-6.95 11 -11.9 11 -17 11 C-16.67 8.03 -16.34 5.06 -16 2 C-14.92878906 1.93941406 -13.85757813 1.87882812 -12.75390625 1.81640625 C-11.35675609 1.73201463 -9.95962143 1.64736594 -8.5625 1.5625 C-7.50192383 1.50352539 -7.50192383 1.50352539 -6.41992188 1.44335938 C-2.91309581 1.52375562 -2.91309581 1.52375562 0 0 Z " fill="#CF422C" transform="translate(139,53)"/>
<path d="M0 0 C5.49402131 1.56972037 8.3027423 4.95034573 10.98046875 9.76171875 C15.11307382 19.63728674 14.3896611 32.43823425 10.75 42.3125 C8.20833834 48.3136456 5.06175758 53.20226573 -1 56 C-1.99 55.67 -2.98 55.34 -4 55 C-3.113125 54.46375 -2.22625 53.9275 -1.3125 53.375 C2.09534774 51.02503864 5.2024043 48.81352285 7 45 C7.52806794 41.62369162 7.74909827 38.34042128 7.859375 34.92578125 C8 32 8 32 9 29 C9.12139491 26.54387046 9.17542192 24.08409804 9.1875 21.625 C9.20876953 19.66433594 9.20876953 19.66433594 9.23046875 17.6640625 C9.01345318 14.21388284 8.6479888 12.01127521 7 9 C6.01 8.34 5.02 7.68 4 7 C3.67 6.01 3.34 5.02 3 4 C2.01979625 2.9805881 1.02196992 1.97753644 0 1 C0 0.67 0 0.34 0 0 Z " fill="#624036" transform="translate(92,66)"/>
<path d="M0 0 C3.625 1.4375 3.625 1.4375 6 4 C6.7668133 7.01026032 6.98675267 9.90012476 7 13 C5.02 13.99 5.02 13.99 3 15 C2.525625 14.34 2.05125 13.68 1.5625 13 C-1.70617244 10.44884102 -3.81239869 10.37355465 -7.87109375 10.52734375 C-10.32232732 10.87551108 -10.32232732 10.87551108 -12.5625 13.5 C-13.036875 14.325 -13.51125 15.15 -14 16 C-14 14.02 -14 12.04 -14 10 C-9.8794254 8.00214565 -6.54805635 7.82164485 -2 8 C-2.66 6.35 -3.32 4.7 -4 3 C-8.19317311 2.65056891 -9.76995444 3.41596355 -13 6 C-13.99 6 -14.98 6 -16 6 C-12.84551037 -1.27959144 -7.04840737 -0.77421878 0 0 Z " fill="#C14B33" transform="translate(176,23)"/>
<path d="M0 0 C0.33 0 0.66 0 1 0 C1 1.98 1 3.96 1 6 C1.60062256 5.99476318 2.20124512 5.98952637 2.82006836 5.98413086 C5.52586838 5.96341986 8.23165177 5.95035875 10.9375 5.9375 C12.35579102 5.92493164 12.35579102 5.92493164 13.80273438 5.91210938 C15.15141602 5.90727539 15.15141602 5.90727539 16.52734375 5.90234375 C17.77632446 5.89448853 17.77632446 5.89448853 19.05053711 5.88647461 C21 6 21 6 22 7 C22.12602054 9.10131921 22.1757922 11.20743788 22.1875 13.3125 C22.20167969 14.46363281 22.21585938 15.61476563 22.23046875 16.80078125 C22.00735097 19.89795863 21.45217919 21.34780353 20 24 C19.11249557 23.99666908 19.11249557 23.99666908 18.20706177 23.99327087 C12.00946663 23.97102546 5.81188298 23.95601359 -0.38574219 23.94506836 C-2.69401511 23.94006161 -5.0022849 23.93325426 -7.31054688 23.92456055 C-10.64193499 23.91233395 -13.97328092 23.90673495 -17.3046875 23.90234375 C-18.32488983 23.89718246 -19.34509216 23.89202118 -20.39620972 23.88670349 C-26.65857806 23.88622096 -32.78265344 24.24637091 -39 25 C-38.505 23.515 -38.505 23.515 -38 22 C-37.31761765 21.99191315 -36.63523529 21.98382629 -35.93217468 21.97549438 C-28.8433436 21.8895772 -21.75479631 21.79007931 -14.66625977 21.68261719 C-12.01917275 21.64428421 -9.37203287 21.60943906 -6.72485352 21.578125 C-2.92444944 21.53256855 0.87558932 21.47455803 4.67578125 21.4140625 C6.45714226 21.39673569 6.45714226 21.39673569 8.27449036 21.37905884 C9.37540512 21.35918915 10.47631989 21.33931946 11.6105957 21.31884766 C13.06620659 21.29886215 13.06620659 21.29886215 14.55122375 21.2784729 C17.25530402 21.15994947 17.25530402 21.15994947 20 19 C20.43827201 17.09542071 20.43827201 17.09542071 20.3125 15 C20.30669922 13.948125 20.30669922 13.948125 20.30078125 12.875 C20.14912946 10.7583423 20.14912946 10.7583423 18 9 C15.87139338 8.63047951 15.87139338 8.63047951 13.4296875 8.5859375 C12.53378906 8.54726562 11.63789062 8.50859375 10.71484375 8.46875 C9.77769531 8.4378125 8.84054688 8.406875 7.875 8.375 C6.45767578 8.31699219 6.45767578 8.31699219 5.01171875 8.2578125 C2.67467625 8.16338654 0.33764499 8.07781606 -2 8 C-2.495 7.01 -2.495 7.01 -3 6 C-2.06553465 3.96855359 -1.06775224 1.96466413 0 0 Z " fill="#BA5C4D" transform="translate(62,76)"/>
<path d="M0 0 C1.32 0 2.64 0 4 0 C4.33 11.55 4.66 23.1 5 35 C4.34 35 3.68 35 3 35 C2.505 37.475 2.505 37.475 2 40 C1.34 40 0.68 40 0 40 C0 26.8 0 13.6 0 0 Z " fill="#465363" transform="translate(199,83)"/>
<path d="M0 0 C0.33 0 0.66 0 1 0 C1 13.53 1 27.06 1 41 C2.65 41 4.3 41 6 41 C5.98839844 39.92878906 5.97679687 38.85757813 5.96484375 37.75390625 C5.95546701 36.35677257 5.94636669 34.95963701 5.9375 33.5625 C5.92493164 32.50192383 5.92493164 32.50192383 5.91210938 31.41992188 C5.90346412 29.61306441 5.94779989 27.80612397 6 26 C7.58272601 24.41727399 9.38034003 24.65264253 11.5625 24.4375 C12.80193359 24.31181641 12.80193359 24.31181641 14.06640625 24.18359375 C14.70449219 24.12300781 15.34257812 24.06242187 16 24 C16.66 22.02 17.32 20.04 18 18 C15.03 18 12.06 18 9 18 C8.67 18.66 8.34 19.32 8 20 C8 19.34 8 18.68 8 18 C7.34 18 6.68 18 6 18 C5.67 15.36 5.34 12.72 5 10 C9.62 10 14.24 10 19 10 C19 10.33 19 10.66 19 11 C15.04 11 11.08 11 7 11 C7 12.65 7 14.3 7 16 C11.62 16 16.24 16 21 16 C20.22714361 19.86428195 19.28980123 23.30256981 18 27 C14.37 27 10.74 27 7 27 C7 31.95 7 36.9 7 42 C4.69 42 2.38 42 0 42 C0 28.14 0 14.28 0 0 Z " fill="#D08276" transform="translate(197,23)"/>
<path d="M0 0 C2 3.75 2 3.75 2 6 C2.66 6 3.32 6 4 6 C4.33 7.32 4.66 8.64 5 10 C9.455 9.505 9.455 9.505 14 9 C14.04254356 10.99954746 14.04080783 13.00041636 14 15 C12.22631653 16.77368347 9.71104575 16.1727488 7.3125 16.1875 C2.82256034 16.16074231 -0.83908027 15.84929766 -5 14 C-5.25 11.25 -5.25 11.25 -5 8 C-3.0625 5.875 -3.0625 5.875 -1 4 C-0.2127322 1.8618034 -0.2127322 1.8618034 0 0 Z " fill="#CA4427" transform="translate(291,47)"/>
<path d="M0 0 C0 0.99 0 1.98 0 3 C1.32 3.66 2.64 4.32 4 5 C3.625 6.9375 3.625 6.9375 3 9 C0.55028376 10.22485812 -1.14234461 10.16722808 -3.875 10.1875 C-5.17050781 10.20876953 -5.17050781 10.20876953 -6.4921875 10.23046875 C-9.19111813 9.98243618 -10.73785306 9.47382301 -13 8 C-15 5 -15 5 -14.625 2.8125 C-14.41875 2.214375 -14.2125 1.61625 -14 1 C-9.23692563 0.04738513 -4.8333472 -0.08333357 0 0 Z " fill="#4A5564" transform="translate(340,114)"/>
<path d="M0 0 C1.65 0 3.3 0 5 0 C5 9.9 5 19.8 5 30 C1 28 1 28 0 25 C-0.08266486 23.08093083 -0.10740663 21.15910526 -0.09765625 19.23828125 C-0.09443359 18.12001953 -0.09121094 17.00175781 -0.08789062 15.84960938 C-0.07951172 14.68236328 -0.07113281 13.51511719 -0.0625 12.3125 C-0.05573242 10.54422852 -0.05573242 10.54422852 -0.04882812 8.74023438 C-0.03703273 5.82677211 -0.0205727 2.91341137 0 0 Z " fill="#495362" transform="translate(230,83)"/>
<path d="M0 0 C1.65 0 3.3 0 5 0 C5.04939662 3.95096978 5.08571755 7.9018203 5.10986328 11.85302734 C5.12488107 13.8591136 5.15028981 15.86511324 5.17578125 17.87109375 C5.18222656 19.12792969 5.18867188 20.38476562 5.1953125 21.6796875 C5.20578613 22.84226074 5.21625977 24.00483398 5.22705078 25.20263672 C5 28 5 28 3 30 C-0.06192834 26.65200915 -0.35882691 24.40022965 -0.29296875 19.921875 C-0.2784668 18.18164062 -0.2784668 18.18164062 -0.26367188 16.40625 C-0.23853516 15.1996875 -0.21339844 13.993125 -0.1875 12.75 C-0.17396484 11.52796875 -0.16042969 10.3059375 -0.14648438 9.046875 C-0.1111398 6.03080502 -0.0617956 3.01562513 0 0 Z " fill="#495262" transform="translate(250,83)"/>
<path d="M0 0 C2.6881249 -0.08164159 5.373723 -0.14079668 8.0625 -0.1875 C8.81466797 -0.21263672 9.56683594 -0.23777344 10.34179688 -0.26367188 C15.66631856 -0.33282151 19.24346434 0.59330666 24 3 C21.4628926 3.87822948 19.9614289 3.99334981 17.28125 3.53125 C13.8332244 2.97299824 10.61482098 2.90188958 7.125 2.9375 C5.97257812 2.94652344 4.82015625 2.95554688 3.6328125 2.96484375 C2.76398438 2.97644531 1.89515625 2.98804688 1 3 C-3.11148944 10.97108169 -3.11148944 10.97108169 -6.6875 19.1875 C-7.120625 20.115625 -7.55375 21.04375 -8 22 C-8.99 22.33 -9.98 22.66 -11 23 C-11.66 22.67 -12.32 22.34 -13 22 C-11.55676531 17.26210835 -9.62773267 13.01141849 -7.375 8.625 C-6.88773438 7.66400391 -6.88773438 7.66400391 -6.390625 6.68359375 C-5.59742593 5.12052499 -4.79922969 3.55999378 -4 2 C-2.68 2 -1.36 2 0 2 C0 1.34 0 0.68 0 0 Z " fill="#F7E6DC" transform="translate(68,61)"/>
<path d="M0 0 C8.25 0 16.5 0 25 0 C24.67 0.99 24.34 1.98 24 3 C24 2.34 24 1.68 24 1 C16.74 1 9.48 1 2 1 C1.34 4.63 0.68 8.26 0 12 C2.64 12 5.28 12 8 12 C8 22.23 8 32.46 8 43 C7.34 43 6.68 43 6 43 C4.94872072 39.61608422 4.95912402 36.66796575 5.12109375 33.140625 C5.16943359 32.02558594 5.21777344 30.91054688 5.26757812 29.76171875 C5.35168945 28.02341797 5.35168945 28.02341797 5.4375 26.25 C5.48970703 25.07566406 5.54191406 23.90132812 5.59570312 22.69140625 C5.72526224 19.79399336 5.86022447 16.89693507 6 14 C3.36 14.33 0.72 14.66 -2 15 C-2 12.36 -2 9.72 -2 7 C-1.34 7 -0.68 7 0 7 C0 4.69 0 2.38 0 0 Z " fill="#FAE7DB" transform="translate(230,22)"/>
<path d="M0 0 C2.57051954 3.85577932 2.25824956 7.03905423 2.1875 11.5 C2.18685547 12.27214844 2.18621094 13.04429688 2.18554688 13.83984375 C2.15983488 17.13669339 2.04886 19.85341999 1 23 C0.34 23 -0.32 23 -1 23 C-1 23.66 -1 24.32 -1 25 C-3.59458106 26.29729053 -5.60447598 26.2042812 -8.5 26.25 C-9.96953125 26.28867187 -9.96953125 26.28867187 -11.46875 26.328125 C-12.3040625 26.21984375 -13.139375 26.1115625 -14 26 C-16.16926659 22.74610012 -16.24080049 21.86604043 -16.1953125 18.11328125 C-16.18886719 17.17548828 -16.18242187 16.23769531 -16.17578125 15.27148438 C-16.15902344 14.29501953 -16.14226562 13.31855469 -16.125 12.3125 C-16.11597656 11.32443359 -16.10695313 10.33636719 -16.09765625 9.31835938 C-16.07408566 6.87880294 -16.03821469 4.43937099 -16 2 C-10.72 1.34 -5.44 0.68 0 0 Z M-13.7265625 4.01953125 C-15.74429614 7.15754032 -15.39217833 10.4578524 -15.3125 14.0625 C-15.31572266 14.79533203 -15.31894531 15.52816406 -15.32226562 16.28320312 C-15.41458604 20.60787661 -15.41458604 20.60787661 -13 24 C-10.66439849 24.31923475 -10.66439849 24.31923475 -8.0625 24.25 C-7.18722656 24.25515625 -6.31195313 24.2603125 -5.41015625 24.265625 C-2.73894366 24.15833837 -2.73894366 24.15833837 0 22 C0.33132997 19.25682667 0.46401854 16.80355321 0.4375 14.0625 C0.45748047 13.33353516 0.47746094 12.60457031 0.49804688 11.85351562 C0.49501002 8.54030969 0.4845495 6.54111585 -1.7734375 4.01953125 C-5.58641604 2.27358844 -9.96133958 1.79617564 -13.7265625 4.01953125 Z " fill="#C1604B" transform="translate(342,30)"/>
<path d="M0 0 C4.62 0 9.24 0 14 0 C14.66 1.32 15.32 2.64 16 4 C15.34 4 14.68 4 14 4 C13.67 5.32 13.34 6.64 13 8 C8.05 7.67 3.1 7.34 -2 7 C-1.34 4.69 -0.68 2.38 0 0 Z " fill="#495464" transform="translate(127,99)"/>
<path d="M0 0 C1.9375 1.25 1.9375 1.25 3 3 C3.25 5.625 3.25 5.625 3 8 C2 9 2 9 -0.94140625 9.09765625 C-2.73384766 9.08025391 -2.73384766 9.08025391 -4.5625 9.0625 C-6.35880859 9.04896484 -6.35880859 9.04896484 -8.19140625 9.03515625 C-9.11824219 9.02355469 -10.04507812 9.01195313 -11 9 C-10.01 7.68 -9.02 6.36 -8 5 C-8.66 4.34 -9.32 3.68 -10 3 C-10.33 3.99 -10.66 4.98 -11 6 C-11.66 5.34 -12.32 4.68 -13 4 C-9.36704597 -1.44943104 -6.26113098 -1.47990369 0 0 Z " fill="#485262" transform="translate(341,83)"/>
<path d="M0 0 C0.50015625 0.48082031 1.0003125 0.96164063 1.515625 1.45703125 C4.83671397 3.51965726 7.94817916 3.56173088 11.75 3.6875 C12.79607422 3.73874023 12.79607422 3.73874023 13.86328125 3.79101562 C15.57497108 3.87308295 17.2874576 3.93822919 19 4 C19.042721 5.66611905 19.04063832 7.33382885 19 9 C18 10 18 10 14.40234375 10.09765625 C12.91403133 10.0909822 11.42573568 10.07902183 9.9375 10.0625 C8.79958008 10.05573242 8.79958008 10.05573242 7.63867188 10.04882812 C5.75908129 10.0370068 3.87953101 10.01907078 2 10 C1.33333333 6.66666667 0.66666667 3.33333333 0 0 Z " fill="#F8E7E1" transform="translate(121,44)"/>
<path d="M0 0 C3.14581423 -0.02888514 6.29159469 -0.04675923 9.4375 -0.0625 C10.33533203 -0.07087891 11.23316406 -0.07925781 12.15820312 -0.08789062 C13.01220703 -0.09111328 13.86621094 -0.09433594 14.74609375 -0.09765625 C15.93223267 -0.10551147 15.93223267 -0.10551147 17.14233398 -0.11352539 C19 0 19 0 20 1 C20.27314815 6.73611111 20.27314815 6.73611111 20 9 C19.34 9.66 18.68 10.32 18 11 C18 8.03 18 5.06 18 2 C12.39 2 6.78 2 1 2 C0.67 4.31 0.34 6.62 0 9 C2.97 9 5.94 9 9 9 C9.33 9.66 9.66 10.32 10 11 C5.38 11 0.76 11 -4 11 C-1.125 2.25 -1.125 2.25 0 0 Z " fill="#B75544" transform="translate(288,23)"/>
<path d="M0 0 C0.66 1.98 1.32 3.96 2 6 C-1.63 6.66 -5.26 7.32 -9 8 C-9.33 10.31 -9.66 12.62 -10 15 C-10.66 15 -11.32 15 -12 15 C-12.33 17.64 -12.66 20.28 -13 23 C-13.33 23 -13.66 23 -14 23 C-14.05451714 20.95863605 -14.09302485 18.91684144 -14.125 16.875 C-14.14820313 15.73804688 -14.17140625 14.60109375 -14.1953125 13.4296875 C-13.95918284 9.28325059 -13.5887362 5.49669355 -10.44921875 2.5390625 C-6.82622073 0.65928082 -4.20096244 -0.50920757 0 0 Z " fill="#CF422F" transform="translate(172,25)"/>
<path d="M0 0 C3.87284225 2.04602987 6.7829942 4.18182335 9 8 C9 8.99 9 9.98 9 11 C6 12 6 12 5 12 C5 17.61 5 23.22 5 29 C4.34 29.33 3.68 29.66 3 30 C3 24.72 3 19.44 3 14 C0.35541621 12.67770811 -1.67761301 12.90322806 -4.625 12.9375 C-6.12933594 12.95103516 -6.12933594 12.95103516 -7.6640625 12.96484375 C-8.82035156 12.98224609 -8.82035156 12.98224609 -10 13 C-9.67 12.34 -9.34 11.68 -9 11 C-5.89613835 10.60299444 -2.81247932 10.49115468 0.3125 10.34375 C1.199375 10.2303125 2.08625 10.116875 3 10 C3.33 9.34 3.66 8.68 4 8 C3.34 7.67 2.68 7.34 2 7 C2.66 7 3.32 7 4 7 C4 6.34 4 5.68 4 5 C3.01 4.67 2.02 4.34 1 4 C1 3.34 1 2.68 1 2 C-2.3 2 -5.6 2 -9 2 C-9.33 2.66 -9.66 3.32 -10 4 C-10.66 3.34 -11.32 2.68 -12 2 C-8.28309709 -0.47793527 -4.31303312 -0.68144261 0 0 Z " fill="#6E7680" transform="translate(340,81)"/>
<path d="M0 0 C3.54905382 0.60840923 6.80087037 1.31157047 10 3 C11.62484302 6.37467396 11.07068911 10.32416633 11 14 C10.34 14 9.68 14 9 14 C8.855625 12.865625 8.71125 11.73125 8.5625 10.5625 C8.38828522 7.19222799 8.38828522 7.19222799 7 6 C4.29891496 6.090916 1.63069689 6.23740766 -1.0625 6.4375 C-1.82111328 6.48970703 -2.57972656 6.54191406 -3.36132812 6.59570312 C-5.24121722 6.72575835 -7.12065685 6.86228038 -9 7 C-8.67 5.35 -8.34 3.7 -8 2 C-4 2 -4 2 -2.25 3.5 C-1.8375 3.995 -1.425 4.49 -1 5 C-0.67 3.35 -0.34 1.7 0 0 Z " fill="#CE4328" transform="translate(335,25)"/>
<path d="M0 0 C2.0625 0.4375 2.0625 0.4375 4 1 C4.14554346 4.08283443 4.23413821 7.16478439 4.3125 10.25 C4.35439453 11.12269531 4.39628906 11.99539062 4.43945312 12.89453125 C4.48651075 15.36035094 4.47326916 17.57820612 4 20 C1.48046875 22.609375 1.48046875 22.609375 -1 24 C-1.5625 22.0625 -1.5625 22.0625 -2 20 C-1.67 19.67 -1.34 19.34 -1 19 C-0.92570175 17.66857536 -0.91666667 16.33333333 -0.9375 15 C-0.94523437 14.195625 -0.95296875 13.39125 -0.9609375 12.5625 C-0.97382813 11.716875 -0.98671875 10.87125 -1 10 C-1.02540554 8.33339676 -1.04647385 6.66671982 -1.0625 5 C-1.07410156 4.2575 -1.08570313 3.515 -1.09765625 2.75 C-1 1 -1 1 0 0 Z " fill="#475261" transform="translate(345,91)"/>
<path d="M0 0 C2.46008778 0.08679142 4.91643517 0.19360955 7.375 0.3125 C8.07367188 0.33505859 8.77234375 0.35761719 9.4921875 0.38085938 C11.5234375 0.48828125 11.5234375 0.48828125 15 1 C17 4 17 4 17 7 C11.06 6.67 5.12 6.34 -1 6 C-0.67 4.02 -0.34 2.04 0 0 Z " fill="#C8452B" transform="translate(125,40)"/>
<path d="M0 0 C0.98120464 3.05263664 0.98120464 4.94736336 0 8 C-0.66 8 -1.32 8 -2 8 C-2.33 9.65 -2.66 11.3 -3 13 C-4.32 13 -5.64 13 -7 13 C-7 13.66 -7 14.32 -7 15 C-10.67424345 15.92185319 -13.41587295 15.99863115 -17.125 15.25 C-18.39730469 15.01023437 -18.39730469 15.01023437 -19.6953125 14.765625 C-22.96568073 13.67919759 -24.37984475 11.9791925 -26.1875 9.125 C-27.14098047 6.63128186 -27.14711318 4.6480372 -27 2 C-25.14372515 3.85627485 -24.21824575 5.28304798 -23 7.5625 C-21.40543648 11.02569668 -21.40543648 11.02569668 -19 12 C-15.28660438 12.41857922 -11.7064185 12.50347303 -8 12 C-4.93275543 9.68743996 -4.93275543 9.68743996 -3 7 C-2.34 7 -1.68 7 -1 7 C-0.67 4.69 -0.34 2.38 0 0 Z " fill="#FEF6ED" transform="translate(184,52)"/>
<path d="M0 0 C0.33 0 0.66 0 1 0 C1.3396019 1.87387477 1.67138691 3.74916697 2 5.625 C2.185625 6.66914062 2.37125 7.71328125 2.5625 8.7890625 C3.68942361 17.05987689 3.68942361 17.05987689 1.625 19.875 C0 21 0 21 -2 21 C-2.05404449 18.24973583 -2.09369306 15.50053797 -2.125 12.75 C-2.14175781 11.97269531 -2.15851563 11.19539063 -2.17578125 10.39453125 C-2.23662606 3.27568856 -2.23662606 3.27568856 0 0 Z " fill="#485365" transform="translate(160,94)"/>
<path d="M0 0 C4.69027895 1.3400797 7.55964179 3.84191664 10 8 C12.38590585 14.64928735 12.03081798 20.96476091 11.25 27.875 C11.11851563 29.27878906 11.11851563 29.27878906 10.984375 30.7109375 C10.27264031 37.59103954 10.27264031 37.59103954 8 41 C7.97287934 39.56260487 7.95354933 38.12506137 7.9375 36.6875 C7.92589844 35.88699219 7.91429688 35.08648437 7.90234375 34.26171875 C8 32 8 32 9 29 C9.12139491 26.54387046 9.17542192 24.08409804 9.1875 21.625 C9.20876953 19.66433594 9.20876953 19.66433594 9.23046875 17.6640625 C9.01345318 14.21388284 8.6479888 12.01127521 7 9 C6.01 8.34 5.02 7.68 4 7 C3.67 6.01 3.34 5.02 3 4 C2.01979625 2.9805881 1.02196992 1.97753644 0 1 C0 0.67 0 0.34 0 0 Z " fill="#924334" transform="translate(92,66)"/>
<path d="M0 0 C2.12472576 -0.05386629 4.24983652 -0.09273071 6.375 -0.125 C7.55835938 -0.14820313 8.74171875 -0.17140625 9.9609375 -0.1953125 C13 0 13 0 15 2 C14.67 2.99 14.34 3.98 14 5 C12.39679026 5.19551338 10.79237014 5.38111983 9.1875 5.5625 C8.29417969 5.66691406 7.40085938 5.77132812 6.48046875 5.87890625 C4 6 4 6 1 5 C0.67 3.35 0.34 1.7 0 0 Z " fill="#CD4329" transform="translate(164,57)"/>
<path d="M0 0 C4.33964767 0.56595992 8.7248123 0.52063128 13.09542847 0.5942688 C14.12873795 0.6150499 15.16204742 0.63583099 16.22666931 0.65724182 C19.50707756 0.72229733 22.78756157 0.78141659 26.06808472 0.84036255 C28.30051423 0.88358966 30.53293626 0.92720526 32.76535034 0.97122192 C38.22034983 1.07793326 43.67542364 1.17977899 49.13058472 1.27786255 C49.13058472 1.60786255 49.13058472 1.93786255 49.13058472 2.27786255 C48.10368027 2.28999283 48.10368027 2.28999283 47.05603027 2.30236816 C39.95113066 2.38821262 32.84651655 2.48770669 25.74191284 2.59524536 C23.08799014 2.63360436 20.43401421 2.66844481 17.77999878 2.69973755 C13.97218762 2.74523791 10.16474514 2.80325704 6.35714722 2.86380005 C5.16441193 2.87535126 3.97167664 2.88690247 2.74279785 2.89880371 C1.64180756 2.9186734 0.54081726 2.93854309 -0.59353638 2.95901489 C-1.56616425 2.97233856 -2.53879211 2.98566223 -3.54089355 2.99938965 C-6.0611101 3.05746559 -6.0611101 3.05746559 -7.86941528 5.27786255 C-7.86941528 3.62786255 -7.86941528 1.97786255 -7.86941528 0.27786255 C-4.76013601 -0.75856388 -3.15164869 -0.51381377 0 0 Z " fill="#FDEEE3" transform="translate(29.869415283203125,95.72213745117188)"/>
<path d="M0 0 C0.33 0 0.66 0 1 0 C1.22126178 2.45779976 1.42750395 4.91527648 1.625 7.375 C1.68945312 8.07367188 1.75390625 8.77234375 1.8203125 9.4921875 C1.96119739 11.32369111 1.98761659 13.16312748 2 15 C-0.70858148 17.70858148 -2.74176034 17.93336425 -6.5078125 18.1328125 C-7.37148437 18.13023438 -8.23515625 18.12765625 -9.125 18.125 C-10.42824219 18.12886719 -10.42824219 18.12886719 -11.7578125 18.1328125 C-14 18 -14 18 -16 17 C-17.02273507 13.37861734 -17.10762232 9.93265244 -17.0625 6.1875 C-17.05347656 5.21167969 -17.04445312 4.23585938 -17.03515625 3.23046875 C-17.02355469 2.49441406 -17.01195312 1.75835937 -17 1 C-16.67 1 -16.34 1 -16 1 C-15.86722656 1.92683594 -15.73445312 2.85367188 -15.59765625 3.80859375 C-15.42105469 5.00613281 -15.24445313 6.20367187 -15.0625 7.4375 C-14.88847656 8.63246094 -14.71445313 9.82742187 -14.53515625 11.05859375 C-14.31014787 13.87955676 -14.31014787 13.87955676 -13 15 C-10.70384446 15.23819228 -10.70384446 15.23819228 -8.0625 15.25 C-7.16660156 15.27578125 -6.27070313 15.3015625 -5.34765625 15.328125 C-4.57292969 15.21984375 -3.79820312 15.1115625 -3 15 C-0.73045369 11.59568053 -0.63450051 9.83475798 -0.375 5.8125 C-0.30023438 4.72582031 -0.22546875 3.63914063 -0.1484375 2.51953125 C-0.09945312 1.68808594 -0.05046875 0.85664062 0 0 Z " fill="#C76A58" transform="translate(179,38)"/>
<path d="M0 0 C2.31 0 4.62 0 7 0 C6.02885254 0.54394409 6.02885254 0.54394409 5.03808594 1.09887695 C2.72467265 2.88013147 2.72467265 2.88013147 2.45410156 5.91088867 C2.4331543 7.0682251 2.41220703 8.22556152 2.390625 9.41796875 C2.35839844 10.67158203 2.32617188 11.92519531 2.29296875 13.21679688 C2.27878906 14.52712891 2.26460937 15.83746094 2.25 17.1875 C2.22184019 18.52282536 2.19191271 19.8581147 2.16015625 21.19335938 C2.08934884 24.46230149 2.03670367 27.73052579 2 31 C1.34 31 0.68 31 0 31 C0 20.77 0 10.54 0 0 Z " fill="#FDE3D8" transform="translate(244,34)"/>
<path d="M0 0 C1.98 0 3.96 0 6 0 C6.01458252 0.86278564 6.02916504 1.72557129 6.04418945 2.61450195 C6.10527754 5.81849647 6.17943549 9.02184625 6.26245117 12.2253418 C6.29568549 13.61129377 6.32372226 14.99738061 6.34643555 16.38354492 C6.38000617 18.37706843 6.43388 20.37021741 6.48828125 22.36328125 C6.51446533 23.56251221 6.54064941 24.76174316 6.56762695 25.99731445 C6.74238071 29.00973205 6.74238071 29.00973205 8.53198242 30.91479492 C9.01642822 31.2729126 9.50087402 31.63103027 10 32 C8.35 31.67 6.7 31.34 5 31 C5 21.1 5 11.2 5 1 C3.35 1 1.7 1 0 1 C0 0.67 0 0.34 0 0 Z M0 26 C4.875 30.625 4.875 30.625 6 34 C4.5625 36.1875 4.5625 36.1875 3 38 C-0.42857143 30.71428571 -0.42857143 30.71428571 0 26 Z " fill="#6B7581" transform="translate(230,82)"/>
<path d="M0 0 C0.5775 0.825 1.155 1.65 1.75 2.5 C3.85845994 4.6822253 4.92376489 4.99157349 8.00390625 5.33203125 C11.01605179 5.31424999 13.99585197 5.21560871 17 5 C17.33 5.99 17.66 6.98 18 8 C17.2265625 7.97679688 16.453125 7.95359375 15.65625 7.9296875 C9.36674562 7.82071094 4.01659801 8.14873907 -2 10 C-2.6875 6.6875 -2.6875 6.6875 -3 3 C-1.5625 1.0625 -1.5625 1.0625 0 0 Z " fill="#5D6472" transform="translate(326,107)"/>
<path d="M0 0 C4.14329125 4.14329125 3.25601405 9.69329961 3.3125 15.1875 C3.35600586 16.56905273 3.35600586 16.56905273 3.40039062 17.97851562 C3.45999808 24.43904622 2.31088812 28.44267103 -1 34 C-1.66 33.01 -2.32 32.02 -3 31 C-2.01 30.67 -1.02 30.34 0 30 C0 27.36 0 24.72 0 22 C0.33 22 0.66 22 1 22 C1 19.03 1 16.06 1 13 C0.01 14.485 0.01 14.485 -1 16 C-1 14.35 -1 12.7 -1 11 C-0.34 11 0.32 11 1 11 C0.67 7.37 0.34 3.74 0 0 Z " fill="#BF503F" transform="translate(345,28)"/>
<path d="M0 0 C0.93423645 3.01031744 1.04449911 3.86650268 0 7 C-2.57211322 8.28605661 -4.56906966 8.21043941 -7.4453125 8.31640625 C-8.52167969 8.35830078 -9.59804687 8.40019531 -10.70703125 8.44335938 C-11.83496094 8.48267578 -12.96289062 8.52199219 -14.125 8.5625 C-15.26066406 8.60568359 -16.39632812 8.64886719 -17.56640625 8.69335938 C-20.37747768 8.7996604 -23.18863945 8.90169405 -26 9 C-26 8.34 -26 7.68 -26 7 C-26.66 7 -27.32 7 -28 7 C-27.67 5.02 -27.34 3.04 -27 1 C-25.02 1.495 -25.02 1.495 -23 2 C-23.66 3.65 -24.32 5.3 -25 7 C-21.74870364 6.94805091 -18.50004935 6.852963 -15.25 6.75 C-13.86941406 6.72873047 -13.86941406 6.72873047 -12.4609375 6.70703125 C-7.06342434 6.5789809 -7.06342434 6.5789809 -2.421875 4.078125 C-0.97723549 2.06778766 -0.97723549 2.06778766 0 0 Z " fill="#FCF3EC" transform="translate(144,58)"/>
<path d="M0 0 C0.33 0 0.66 0 1 0 C1 1.98 1 3.96 1 6 C5.51815281 6.88277755 9.77512694 7.10589503 14.375 7.0625 C15.62023437 7.05347656 16.86546875 7.04445313 18.1484375 7.03515625 C19.08945312 7.02355469 20.03046875 7.01195312 21 7 C21 7.99 21 8.98 21 10 C17.68751813 10.02888146 14.37506833 10.04675799 11.0625 10.0625 C10.11697266 10.07087891 9.17144531 10.07925781 8.19726562 10.08789062 C6.84858398 10.09272461 6.84858398 10.09272461 5.47265625 10.09765625 C4.64000244 10.10289307 3.80734863 10.10812988 2.94946289 10.11352539 C1 10 1 10 0 9 C-0.07179964 7.48071962 -0.08392007 5.95832518 -0.0625 4.4375 C-0.05347656 3.61121094 -0.04445313 2.78492188 -0.03515625 1.93359375 C-0.02355469 1.29550781 -0.01195312 0.65742187 0 0 Z " fill="#C56B5B" transform="translate(285,55)"/>
<path d="M0 0 C7.26 0 14.52 0 22 0 C21.2817669 4.3093986 20.69268808 7.16324035 19 11 C16.69 11 14.38 11 12 11 C12.33 10.01 12.66 9.02 13 8 C14.65 8 16.3 8 18 8 C18 7.01 18 6.02 18 5 C18.66 5 19.32 5 20 5 C20 3.68 20 2.36 20 1 C13.73 1 7.46 1 1 1 C0.67 2.32 0.34 3.64 0 5 C-0.33 4.34 -0.66 3.68 -1 3 C-0.67 2.01 -0.34 1.02 0 0 Z " fill="#B76250" transform="translate(232,23)"/>
<path d="M0 0 C0.66 0 1.32 0 2 0 C2.625 1.8125 2.625 1.8125 3 4 C2.01 5.485 2.01 5.485 1 7 C0.34 7 -0.32 7 -1 7 C-0.67 7.99 -0.34 8.98 0 10 C-0.33 10.66 -0.66 11.32 -1 12 C-5.29 12 -9.58 12 -14 12 C-14 12.99 -14 13.98 -14 15 C-9.71 15 -5.42 15 -1 15 C-1 15.33 -1 15.66 -1 16 C-5.62 16 -10.24 16 -15 16 C-15 14.35 -15 12.7 -15 11 C-11.04 11 -7.08 11 -3 11 C-2.67 9.35 -2.34 7.7 -2 6 C-1.35610218 3.99255385 -0.69437747 1.99054876 0 0 Z " fill="#FDE8E0" transform="translate(219,23)"/>
<path d="M0 0 C1.32 0.33 2.64 0.66 4 1 C3.72285156 1.60328125 3.44570312 2.2065625 3.16015625 2.828125 C2.79792969 3.62734375 2.43570313 4.4265625 2.0625 5.25 C1.70285156 6.03890625 1.34320313 6.8278125 0.97265625 7.640625 C0.09966721 9.75823698 -0.51338508 11.76669362 -1 14 C-2.65 13.67 -4.3 13.34 -6 13 C-4.58707905 8.1725201 -2.57025846 4.2837641 0 0 Z " fill="#DDC8BF" transform="translate(61,70)"/>
<path d="M0 0 C6.92520726 0.25587774 13.48451239 0.85702013 20.21484375 2.55859375 C20.21484375 2.88859375 20.21484375 3.21859375 20.21484375 3.55859375 C12.95484375 3.55859375 5.69484375 3.55859375 -1.78515625 3.55859375 C-2.44515625 5.20859375 -3.10515625 6.85859375 -3.78515625 8.55859375 C-4.44515625 8.55859375 -5.10515625 8.55859375 -5.78515625 8.55859375 C-5.78515625 9.21859375 -5.78515625 9.87859375 -5.78515625 10.55859375 C-6.44515625 10.55859375 -7.10515625 10.55859375 -7.78515625 10.55859375 C-4.17435784 0.83721342 -4.17435784 0.83721342 0 0 Z " fill="#BB5D4C" transform="translate(71.78515625,62.44140625)"/>
<path d="M0 0 C8.77578475 -0.76681614 8.77578475 -0.76681614 11.77734375 1.11328125 C13.125 2.5 13.125 2.5 15 5 C11.7 4.34 8.4 3.68 5 3 C4.67 4.32 4.34 5.64 4 7 C3.01 6.67 2.02 6.34 1 6 C1 5.34 1 4.68 1 4 C0.01 4 -0.98 4 -2 4 C-1.34 2.68 -0.68 1.36 0 0 Z " fill="#C74935" transform="translate(330,23)"/>
<path d="M0 0 C3.96 0 7.92 0 12 0 C11.67 0.66 11.34 1.32 11 2 C10.360625 2.12375 9.72125 2.2475 9.0625 2.375 C6.80148727 2.80939427 6.80148727 2.80939427 5.75 5.0625 C5.5025 5.701875 5.255 6.34125 5 7 C3.02 7 1.04 7 -1 7 C-0.67 4.69 -0.34 2.38 0 0 Z " fill="#CE4329" transform="translate(289,25)"/>
<path d="M0 0 C0.33 0 0.66 0 1 0 C1.19406478 1.64507218 1.38007935 3.29109594 1.5625 4.9375 C1.66691406 5.85402344 1.77132812 6.77054687 1.87890625 7.71484375 C1.91886719 8.46894531 1.95882812 9.22304687 2 10 C1.67 10.33 1.34 10.66 1 11 C4.96 11.33 8.92 11.66 13 12 C13 12.33 13 12.66 13 13 C10.72975032 13.08097324 8.45867925 13.13917704 6.1875 13.1875 C4.29064453 13.23970703 4.29064453 13.23970703 2.35546875 13.29296875 C-1 13 -1 13 -2.94921875 11.48828125 C-3.29597656 10.99714844 -3.64273438 10.50601563 -4 10 C-2.8905928 6.51329166 -1.73662334 3.22515763 0 0 Z " fill="#586272" transform="translate(125,94)"/>
<path d="M0 0 C5.28 0 10.56 0 16 0 C16 0.33 16 0.66 16 1 C11.05 1 6.1 1 1 1 C0.67 3.97 0.34 6.94 0 10 C5.61 10 11.22 10 17 10 C17 10.33 17 10.66 17 11 C10.4 11 3.8 11 -3 11 C-2.01 7.37 -1.02 3.74 0 0 Z " fill="#C87668" transform="translate(122,54)"/>
<path d="M0 0 C0.33 0 0.66 0 1 0 C1.0984702 4.13574827 0.77403558 7.93631321 0 12 C-4.94660369 12.89038866 -7.87361891 12.85439685 -13 12 C-13 16.29 -13 20.58 -13 25 C-13.33 25 -13.66 25 -14 25 C-14 20.38 -14 15.76 -14 11 C-10.37 11 -6.74 11 -3 11 C-2.87625 10.113125 -2.7525 9.22625 -2.625 8.3125 C-2.05587264 5.29612498 -1.23385564 2.79673946 0 0 Z " fill="#FEF6EB" transform="translate(218,39)"/>
<path d="M0 0 C0.66 0.33 1.32 0.66 2 1 C1.360625 1.721875 0.72125 2.44375 0.0625 3.1875 C-1.98673535 5.98191184 -2.61332946 7.61663274 -3 11 C-3.66 11 -4.32 11 -5 11 C-5.33 17.27 -5.66 23.54 -6 30 C-6.33 30 -6.66 30 -7 30 C-7.08166849 26.99943916 -7.14081551 24.0011461 -7.1875 21 C-7.21263672 20.16082031 -7.23777344 19.32164063 -7.26367188 18.45703125 C-7.33184684 12.59398405 -6.47734478 8.33581952 -4 3 C-1.8125 1 -1.8125 1 0 0 Z " fill="#BE594B" transform="translate(328,23)"/>
<path d="M0 0 C5.61 0 11.22 0 17 0 C16.01 0.495 16.01 0.495 15 1 C15 1.66 15 2.32 15 3 C14.01257813 3.06058594 13.02515625 3.12117188 12.0078125 3.18359375 C10.72648437 3.26738281 9.44515625 3.35117188 8.125 3.4375 C6.84882813 3.51871094 5.57265625 3.59992188 4.2578125 3.68359375 C1.11699848 3.79206027 1.11699848 3.79206027 -1 5 C-0.67 3.35 -0.34 1.7 0 0 Z " fill="#48515E" transform="translate(270,83)"/>
<path d="M0 0 C0 0.33 0 0.66 0 1 C-0.928125 1.0825 -1.85625 1.165 -2.8125 1.25 C-5.99409538 1.70350377 -5.99409538 1.70350377 -7.65625 3.65625 C-9.34700156 6.60523528 -9.50377078 8.86938234 -9.6875 12.25 C-9.75324219 13.32765625 -9.81898438 14.4053125 -9.88671875 15.515625 C-9.92410156 16.33546875 -9.96148437 17.1553125 -10 18 C-9.34 18 -8.68 18 -8 18 C-8 18.66 -8 19.32 -8 20 C-5.03 20 -2.06 20 1 20 C1 20.33 1 20.66 1 21 C-0.62463842 21.05395478 -2.24978541 21.09277195 -3.875 21.125 C-4.77992188 21.14820312 -5.68484375 21.17140625 -6.6171875 21.1953125 C-9 21 -9 21 -11 19 C-11.22552238 16.30837575 -11.3243329 13.75330256 -11.3125 11.0625 C-11.32861328 10.33353516 -11.34472656 9.60457031 -11.36132812 8.85351562 C-11.36616183 3.57994575 -11.36616183 3.57994575 -9.7421875 1.0078125 C-6.57692998 -0.82321091 -3.58127264 -0.17612816 0 0 Z " fill="#F9DFD3" transform="translate(338,33)"/>
<path d="M0 0 C-0.33 1.98 -0.66 3.96 -1 6 C-7.625 6.25 -7.625 6.25 -11 4 C-10.67 3.01 -10.34 2.02 -10 1 C-6.56484998 0.37542727 -3.50935186 0 0 0 Z " fill="#D0442B" transform="translate(251,25)"/>
<path d="M0 0 C0 3.63 0 7.26 0 11 C-0.99 11.33 -1.98 11.66 -3 12 C-3 8.7 -3 5.4 -3 2 C-9.27 1.67 -15.54 1.34 -22 1 C-22.33 1.66 -22.66 2.32 -23 3 C-23 2.01 -23 1.02 -23 0 C-19.91722144 -0.1974877 -16.8337715 -0.38123332 -13.75 -0.5625 C-12.87730469 -0.61857422 -12.00460937 -0.67464844 -11.10546875 -0.73242188 C-10.26113281 -0.78076172 -9.41679687 -0.82910156 -8.546875 -0.87890625 C-7.77182617 -0.9260376 -6.99677734 -0.97316895 -6.19824219 -1.02172852 C-4 -1 -4 -1 0 0 Z " fill="#F5DED2" transform="translate(310,22)"/>
<path d="M0 0 C1.40907283 2.81814566 0.50872691 4.17277204 -0.4375 7.125 C-0.72496094 8.03507812 -1.01242187 8.94515625 -1.30859375 9.8828125 C-1.53675781 10.58148438 -1.76492188 11.28015625 -2 12 C-1.34 12.33 -0.68 12.66 0 13 C0.99 12.01 1.98 11.02 3 10 C3.625 12.375 3.625 12.375 4 15 C3.34 15.66 2.68 16.32 2 17 C1.30251417 18.31747324 0.63040043 19.64914193 0 21 C-3.31736116 15.7475115 -3.78473119 11.04645444 -3 5 C-1.5 1.875 -1.5 1.875 0 0 Z " fill="#515B6A" transform="translate(401,84)"/>
<path d="M0 0 C2 3 2 3 2 5 C3.79206547 4.85915204 5.58364917 4.71216299 7.375 4.5625 C8.37273437 4.48128906 9.37046875 4.40007812 10.3984375 4.31640625 C12.97927613 4.15034374 12.97927613 4.15034374 15 3 C15 4.32 15 5.64 15 7 C14.09636719 6.98839844 13.19273437 6.97679688 12.26171875 6.96484375 C10.49248047 6.95130859 10.49248047 6.95130859 8.6875 6.9375 C7.51574219 6.92589844 6.34398437 6.91429688 5.13671875 6.90234375 C1.96940805 6.85100102 1.96940805 6.85100102 -1 8 C-1.33 8.99 -1.66 9.98 -2 11 C-2.66 10.67 -3.32 10.34 -4 10 C-3.67 8.68 -3.34 7.36 -3 6 C-2.34 6 -1.68 6 -1 6 C-0.67 4.02 -0.34 2.04 0 0 Z M11 7 C13 8 13 8 13 8 Z " fill="#676E7D" transform="translate(163,108)"/>
<path d="M0 0 C0.66 0 1.32 0 2 0 C2 0.66 2 1.32 2 2 C6.04479388 3.96611502 8.86885748 4.11331236 13.3125 3.625 C14.38113281 3.51414063 15.44976562 3.40328125 16.55078125 3.2890625 C17.76314453 3.14597656 17.76314453 3.14597656 19 3 C19 3.99 19 4.98 19 6 C15.06237991 7.96881005 10.29233883 7.45834498 6 7 C2.38308725 4.90219061 1.31708591 3.95125774 0 0 Z " fill="#C05F50" transform="translate(323,58)"/>
<path d="M0 0 C5.61 0 11.22 0 17 0 C16.01 0.495 16.01 0.495 15 1 C15 1.66 15 2.32 15 3 C10.05 3 5.1 3 0 3 C0 2.01 0 1.02 0 0 Z " fill="#C2492A" transform="translate(122,61)"/>
<path d="M0 0 C2 3.75 2 3.75 2 6 C2.66 6 3.32 6 4 6 C4.33 7.65 4.66 9.3 5 11 C4.01 11 3.02 11 2 11 C2 10.01 2 9.02 2 8 C1.01 8 0.02 8 -1 8 C-1 8.66 -1 9.32 -1 10 C-1.66 10 -2.32 10 -3 10 C-3.66 11.32 -4.32 12.64 -5 14 C-5.25 11.25 -5.25 11.25 -5 8 C-3.0625 5.875 -3.0625 5.875 -1 4 C-0.2127322 1.8618034 -0.2127322 1.8618034 0 0 Z " fill="#C2482D" transform="translate(291,47)"/>
<path d="M0 0 C0.33 0 0.66 0 1 0 C1.06058594 1.07121094 1.12117188 2.14242187 1.18359375 3.24609375 C1.26798537 4.64324391 1.35263406 6.04037857 1.4375 7.4375 C1.47681641 8.14455078 1.51613281 8.85160156 1.55664062 9.58007812 C1.47624438 13.08690419 1.47624438 13.08690419 3 16 C5.01964199 16.07244053 7.04167124 16.08377188 9.0625 16.0625 C10.16722656 16.05347656 11.27195312 16.04445313 12.41015625 16.03515625 C13.26480469 16.02355469 14.11945313 16.01195313 15 16 C15 16.66 15 17.32 15 18 C12.40541894 19.29729053 10.39552402 19.2042812 7.5 19.25 C6.03046875 19.28867187 6.03046875 19.28867187 4.53125 19.328125 C3.6959375 19.21984375 2.860625 19.1115625 2 19 C-0.52775351 15.20836973 -0.22443035 12.19125969 -0.125 7.8125 C-0.11597656 7.06291016 -0.10695313 6.31332031 -0.09765625 5.54101562 C-0.07412578 3.69387346 -0.03825561 1.84689588 0 0 Z " fill="#C87160" transform="translate(326,37)"/>
<path d="M0 0 C1.08571289 -0.01836914 1.08571289 -0.01836914 2.19335938 -0.03710938 C4.06789471 -0.04234064 5.9419635 0.06501204 7.8125 0.1875 C8.4725 0.8475 9.1325 1.5075 9.8125 2.1875 C8.92727661 2.20937378 8.92727661 2.20937378 8.02416992 2.23168945 C5.34878771 2.30618844 2.67465108 2.40283995 0 2.5 C-0.92876953 2.52255859 -1.85753906 2.54511719 -2.81445312 2.56835938 C-3.70712891 2.60380859 -4.59980469 2.63925781 -5.51953125 2.67578125 C-6.34171143 2.70196533 -7.1638916 2.72814941 -8.01098633 2.75512695 C-10.61356532 3.27213956 -11.52660717 4.16952695 -13.1875 6.1875 C-13.1875 4.5375 -13.1875 2.8875 -13.1875 1.1875 C-8.79790324 0.10950472 -4.49449277 0.00406741 0 0 Z " fill="#F9E7DD" transform="translate(134.1875,20.8125)"/>
<path d="M0 0 C0.33 0.66 0.66 1.32 1 2 C0.01 3.485 0.01 3.485 -1 5 C-2.94033542 5.06577408 -4.88433718 5.11708333 -6.82421875 5.0390625 C-9.96683316 4.98264213 -12.90410844 5.48401807 -16 6 C-16 4.68 -16 3.36 -16 2 C-14.92878906 1.93941406 -13.85757813 1.87882812 -12.75390625 1.81640625 C-11.35675609 1.73201463 -9.95962143 1.64736594 -8.5625 1.5625 C-7.50192383 1.50352539 -7.50192383 1.50352539 -6.41992188 1.44335938 C-2.91309581 1.52375562 -2.91309581 1.52375562 0 0 Z " fill="#C34635" transform="translate(139,53)"/>
<path d="M0 0 C0.33 0 0.66 0 1 0 C2.95317239 8.47424793 3.30736061 17.28264557 -1 25 C-1.66 25 -2.32 25 -3 25 C-2.68289063 24.03964844 -2.36578125 23.07929687 -2.0390625 22.08984375 C-0.75872164 17.60865075 -0.55434226 13.19924466 -0.375 8.5625 C-0.33632813 7.73556641 -0.29765625 6.90863281 -0.2578125 6.05664062 C-0.16446908 4.03808927 -0.08119039 2.01907669 0 0 Z " fill="#F2CFC1" transform="translate(348,36)"/>
<path d="M0 0 C0.66 0.66 1.32 1.32 2 2 C1.625 4.625 1.625 4.625 1 7 C3.97 7 6.94 7 10 7 C10.33 7.66 10.66 8.32 11 9 C6.38 9 1.76 9 -3 9 C-2.01 6.03 -1.02 3.06 0 0 Z " fill="#BE6252" transform="translate(287,25)"/>
<path d="M0 0 C2 3 2 3 1.609375 5.2265625 C1.32578125 6.01804687 1.0421875 6.80953125 0.75 7.625 C0.47671875 8.42164063 0.2034375 9.21828125 -0.078125 10.0390625 C-1 12 -1 12 -3 13 C-4.52388763 13.01605041 -6.04880674 12.9655743 -7.5703125 12.87890625 C-8.91416016 12.80639648 -8.91416016 12.80639648 -10.28515625 12.73242188 C-11.22230469 12.67634766 -12.15945313 12.62027344 -13.125 12.5625 C-14.06988281 12.51029297 -15.01476562 12.45808594 -15.98828125 12.40429688 C-18.3258419 12.27443239 -20.66299545 12.1394613 -23 12 C-23 11.67 -23 11.34 -23 11 C-16.4 11 -9.8 11 -3 11 C-2.67 9.02 -2.34 7.04 -2 5 C-1.37774395 3.31624835 -0.72455635 1.64232772 0 0 Z " fill="#FEF6EF" transform="translate(309,54)"/>
<path d="M0 0 C0.33 0 0.66 0 1 0 C1.33 1.65 1.66 3.3 2 5 C2.99 5.33 3.98 5.66 5 6 C4.67 6.66 4.34 7.32 4 8 C12.25 8.33 20.5 8.66 29 9 C29 9.33 29 9.66 29 10 C24.72929442 10.08692074 20.45881542 10.14036515 16.1875 10.1875 C14.36508789 10.22520508 14.36508789 10.22520508 12.50585938 10.26367188 C10.76079102 10.27817383 10.76079102 10.27817383 8.98046875 10.29296875 C7.90692139 10.3086792 6.83337402 10.32438965 5.72729492 10.34057617 C3 10 3 10 1.13793945 8.7121582 C-0.69995818 5.946834 -0.18197979 3.21497625 0 0 Z " fill="#D8DCE0" transform="translate(35,53)"/>
<path d="M0 0 C0.763125 0.825 1.52625 1.65 2.3125 2.5 C6.10163132 5.67565291 9.6389375 5.58386104 14.4296875 5.375 C17.51371263 4.92505104 19.59730971 3.98843334 22 2 C21.875 3.875 21.875 3.875 21 6 C15.6391351 9.04265305 8.85157219 8.25813024 3 7 C1.13671875 5.69921875 1.13671875 5.69921875 0 4 C0 2.68 0 1.36 0 0 Z " fill="#F4D8D0" transform="translate(323,59)"/>
<path d="M0 0 C0.66 0 1.32 0 2 0 C2.95261487 4.76307437 3.08333357 9.1666528 3 14 C1.68 13.34 0.36 12.68 -1 12 C-1.02687279 10.18757948 -1.04633715 8.37504767 -1.0625 6.5625 C-1.07410156 5.55316406 -1.08570313 4.54382812 -1.09765625 3.50390625 C-1 1 -1 1 0 0 Z " fill="#C5472E" transform="translate(181,36)"/>
<path d="M0 0 C0.66 0 1.32 0 2 0 C0.6077541 4.62675657 -1.29520984 8.64686231 -3.625 12.875 C-4.25664063 14.02742188 -4.88828125 15.17984375 -5.5390625 16.3671875 C-6.02117188 17.23601562 -6.50328125 18.10484375 -7 19 C-7.66 19 -8.32 19 -9 19 C-7 14 -5 9 -3 4 C-2.34 4 -1.68 4 -1 4 C-0.67 2.68 -0.34 1.36 0 0 Z " fill="#2E383D" transform="translate(62,64)"/>
<path d="M0 0 C0.33 0 0.66 0 1 0 C1 9.57 1 19.14 1 29 C1.66 29 2.32 29 3 29 C3 29.99 3 30.98 3 32 C2.01 31.67 1.02 31.34 0 31 C0 20.77 0 10.54 0 0 Z " fill="#CC4030" transform="translate(268,30)"/>
<path d="M0 0 C1.32 0.33 2.64 0.66 4 1 C4.85305168 3.90669462 5.07289715 6.31048873 4.87890625 9.328125 C4.83056641 10.12734375 4.78222656 10.9265625 4.73242188 11.75 C4.67634766 12.575 4.62027344 13.4 4.5625 14.25 C4.51029297 15.09046875 4.45808594 15.9309375 4.40429688 16.796875 C4.27504311 18.8649352 4.13825726 20.9325222 4 23 C3.67 23 3.34 23 3 23 C2.92652344 21.515 2.92652344 21.515 2.8515625 20 C2.47596893 13.14476671 2.02153511 6.60368135 0 0 Z " fill="#F9E9DE" transform="translate(182,28)"/>
<path d="M0 0 C0.98120464 3.05263664 0.98120464 4.94736336 0 8 C-0.66 8 -1.32 8 -2 8 C-2.33 9.65 -2.66 11.3 -3 13 C-6.15506142 13.93619813 -8.96586502 14.1057123 -12.25 14.0625 C-13.14203125 14.05347656 -14.0340625 14.04445313 -14.953125 14.03515625 C-15.62859375 14.02355469 -16.3040625 14.01195313 -17 14 C-17 13.67 -17 13.34 -17 13 C-16.40832031 12.98582031 -15.81664062 12.97164062 -15.20703125 12.95703125 C-10.67286212 12.68335383 -8.59612452 12.52002352 -5.0625 9.4375 C-4.381875 8.633125 -3.70125 7.82875 -3 7 C-2.34 7 -1.68 7 -1 7 C-0.67 4.69 -0.34 2.38 0 0 Z " fill="#F1D0C6" transform="translate(184,52)"/>
<path d="M0 0 C1.485 0.99 1.485 0.99 3 2 C2 8 1 14 0 20 C-0.33 20 -0.66 20 -1 20 C-1.02703562 17.41659616 -1.04685611 14.83347692 -1.0625 12.25 C-1.07087891 11.52039063 -1.07925781 10.79078125 -1.08789062 10.0390625 C-1.10391684 6.51329442 -0.95292713 3.38965084 0 0 Z " fill="#4B535F" transform="translate(364,84)"/>
<path d="M0 0 C0.33 0 0.66 0 1 0 C1.6878206 11.807587 1.6878206 11.807587 -0.75 15.75 C-1.4925 16.4925 -2.235 17.235 -3 18 C-4.32 18 -5.64 18 -7 18 C-7 17.34 -7 16.68 -7 16 C-3.53846154 13 -3.53846154 13 -1 13 C-0.67 8.71 -0.34 4.42 0 0 Z " fill="#B65D4C" transform="translate(144,46)"/>
<path d="M0 0 C0.83583327 2.37607949 1.1842383 3.54449627 0.22265625 5.921875 C-0.8515625 7.61458333 -1.92578125 9.30729167 -3 11 C-3.66 11 -4.32 11 -5 11 C-5.33 12.65 -5.66 14.3 -6 16 C-6.66 16 -7.32 16 -8 16 C-6.42986223 10.03347646 -3.24970218 5.17090975 0 0 Z " fill="#F4D8CE" transform="translate(306,34)"/>
<path d="M0 0 C1.47546199 3.83620117 0.54503604 6.2919135 -1 10 C-2.5 12.375 -2.5 12.375 -4 14 C-4.66 14 -5.32 14 -6 14 C-4.45941767 8.98491285 -2.97068161 4.3852919 0 0 Z " fill="#BF5F4E" transform="translate(22,101)"/>
<path d="M0 0 C0.74958984 0.00902344 1.49917969 0.01804687 2.27148438 0.02734375 C4.11862654 0.05087422 5.96560412 0.08674439 7.8125 0.125 C7.8125 0.785 7.8125 1.445 7.8125 2.125 C6.94367188 2.06699219 6.07484375 2.00898438 5.1796875 1.94921875 C-2.44190163 1.37918206 -2.44190163 1.37918206 -9 4.625 C-9.721875 5.45 -10.44375 6.275 -11.1875 7.125 C-11.375 4.75 -11.375 4.75 -11.1875 2.125 C-7.39586973 -0.40275351 -4.37875969 -0.09943035 0 0 Z " fill="#F1CDC4" transform="translate(170.1875,21.875)"/>
<path d="M0 0 C5.01009707 1.43145631 7.10619424 3.82951522 10 8 C9.67 8.99 9.34 9.98 9 11 C4.125 7.375 4.125 7.375 3 4 C2.01979625 2.9805881 1.02196992 1.97753644 0 1 C0 0.67 0 0.34 0 0 Z " fill="#92574D" transform="translate(92,66)"/>
<path d="M0 0 C0.33 0 0.66 0 1 0 C1.13277344 0.90363281 1.26554688 1.80726562 1.40234375 2.73828125 C1.66724609 4.50751953 1.66724609 4.50751953 1.9375 6.3125 C2.11152344 7.48425781 2.28554687 8.65601563 2.46484375 9.86328125 C2.92093031 13.01641403 2.92093031 13.01641403 4 16 C6.97 16 9.94 16 13 16 C13 16.33 13 16.66 13 17 C11.37509046 17.02698189 9.75005367 17.04638757 8.125 17.0625 C6.76761719 17.07990234 6.76761719 17.07990234 5.3828125 17.09765625 C3 17 3 17 1 16 C-0.02273507 12.37861734 -0.10762232 8.93265244 -0.0625 5.1875 C-0.05347656 4.21167969 -0.04445312 3.23585937 -0.03515625 2.23046875 C-0.02355469 1.49441406 -0.01195312 0.75835937 0 0 Z " fill="#C0604E" transform="translate(162,39)"/>
<path d="M0 0 C0.33 0.66 0.66 1.32 1 2 C0.01 3.485 0.01 3.485 -1 5 C-3.24658203 5.2487793 -3.24658203 5.2487793 -6.0078125 5.07421875 C-6.99394531 5.01943359 -7.98007813 4.96464844 -8.99609375 4.90820312 C-10.02863281 4.83537109 -11.06117188 4.76253906 -12.125 4.6875 C-13.16527344 4.62626953 -14.20554687 4.56503906 -15.27734375 4.50195312 C-17.85273 4.34837505 -20.42638232 4.18048829 -23 4 C-23 3.67 -23 3.34 -23 3 C-22.40985107 2.98018066 -21.81970215 2.96036133 -21.21166992 2.93994141 C-18.53649904 2.84465341 -15.86210502 2.73499061 -13.1875 2.625 C-12.25873047 2.5940625 -11.32996094 2.563125 -10.37304688 2.53125 C-9.48037109 2.49257812 -8.58769531 2.45390625 -7.66796875 2.4140625 C-6.43469849 2.36693115 -6.43469849 2.36693115 -5.17651367 2.31884766 C-2.71047063 2.11626378 -2.71047063 2.11626378 0 0 Z " fill="#E3E6E8" transform="translate(142,121)"/>
<path d="M0 0 C0.33 1.32 0.66 2.64 1 4 C-3.62 4 -8.24 4 -13 4 C-13 3.34 -13 2.68 -13 2 C-12.14535156 1.93941406 -11.29070312 1.87882812 -10.41015625 1.81640625 C-8.75306641 1.69072266 -8.75306641 1.69072266 -7.0625 1.5625 C-5.96035156 1.48128906 -4.85820312 1.40007813 -3.72265625 1.31640625 C-1.08890097 1.29581916 -1.08890097 1.29581916 0 0 Z " fill="#B96049" transform="translate(140,30)"/>
<path d="M0 0 C0.33 0 0.66 0 1 0 C1 1.98 1 3.96 1 6 C0.25234375 6.06058594 -0.4953125 6.12117188 -1.265625 6.18359375 C-2.25046875 6.26738281 -3.2353125 6.35117188 -4.25 6.4375 C-5.71179688 6.55931641 -5.71179688 6.55931641 -7.203125 6.68359375 C-9.92074826 6.91773749 -9.92074826 6.91773749 -12.171875 7.59765625 C-14 8 -14 8 -17 7 C-17 6.34 -17 5.68 -17 5 C-11.39 5 -5.78 5 0 5 C0 3.35 0 1.7 0 0 Z " fill="#656B79" transform="translate(139,108)"/>
<path d="M0 0 C1.65 0 3.3 0 5 0 C3.6875 2.9375 3.6875 2.9375 2 6 C1.01 6.33 0.02 6.66 -1 7 C-1.33 7.66 -1.66 8.32 -2 9 C-1.51421457 5.87709365 -1.0013988 3.00419641 0 0 Z " fill="#ECDFD8" transform="translate(64,63)"/>
<path d="M0 0 C2.31 0.66 4.62 1.32 7 2 C7 2.33 7 2.66 7 3 C10.3 3 13.6 3 17 3 C14.41600594 5.58399406 13.21629635 5.3268593 9.625 5.375 C4.41599439 5.29990293 4.41599439 5.29990293 1.3125 3.0625 C0 1 0 1 0 0 Z " fill="#C16959" transform="translate(161,60)"/>
<path d="M0 0 C0.33 0 0.66 0 1 0 C1.06058594 1.08539063 1.12117188 2.17078125 1.18359375 3.2890625 C1.26806064 4.73438486 1.35270551 6.17969682 1.4375 7.625 C1.47681641 8.33785156 1.51613281 9.05070312 1.55664062 9.78515625 C1.80309681 13.91803682 2.23470053 17.92269024 3 22 C2.01 21.67 1.02 21.34 0 21 C0 14.07 0 7.14 0 0 Z " fill="#EDC8BC" transform="translate(320,37)"/>
<path d="M0 0 C0.66 0.33 1.32 0.66 2 1 C1.01 2.98 0.02 4.96 -1 7 C3.29 7 7.58 7 12 7 C11.67 7.99 11.34 8.98 11 10 C11 9.34 11 8.68 11 8 C6.71 8 2.42 8 -2 8 C-2 5.69 -2 3.38 -2 1 C-1.34 0.67 -0.68 0.34 0 0 Z " fill="#C76A5F" transform="translate(297,47)"/>
<path d="M0 0 C0.33 0 0.66 0 1 0 C1.08119503 2.24940295 1.13927819 4.49964871 1.1875 6.75 C1.22230469 8.00296875 1.25710937 9.2559375 1.29296875 10.546875 C0.98827695 14.1381757 0.57265731 15.533239 -2 18 C-2.66 18 -3.32 18 -4 18 C-4 17.01 -4 16.02 -4 15 C-3.01 15 -2.02 15 -1 15 C-0.67 10.05 -0.34 5.1 0 0 Z " fill="#F4D2C8" transform="translate(178,36)"/>
<path d="M0 0 C0.33 1.32 0.66 2.64 1 4 C0.01 4.495 0.01 4.495 -1 5 C-1.474375 6.155 -1.94875 7.31 -2.4375 8.5 C-3.2109375 10.2325 -3.2109375 10.2325 -4 12 C-4.99 12.33 -5.98 12.66 -7 13 C-5.35821735 8.22390502 -2.73453298 4.20617096 0 0 Z " fill="#C66655" transform="translate(293,42)"/>
<path d="M0 0 C0.33 0 0.66 0 1 0 C0.67 2.64 0.34 5.28 0 8 C-0.99 8.33 -1.98 8.66 -3 9 C-3.66 7.35 -4.32 5.7 -5 4 C-4.360625 3.71125 -3.72125 3.4225 -3.0625 3.125 C-0.84793921 2.17176549 -0.84793921 2.17176549 0 0 Z " fill="#5A6374" transform="translate(144,113)"/>
<path d="M0 0 C0.66 0 1.32 0 2 0 C1.67 4.95 1.34 9.9 1 15 C0.67 15 0.34 15 0 15 C-1.18893275 10.39288558 -1.33243079 5.73225005 -1 1 C-0.67 0.67 -0.34 0.34 0 0 Z " fill="#FEF8EB" transform="translate(319,34)"/>
<path d="M0 0 C1.32 0.99 2.64 1.98 4 3 C-3.26 3 -10.52 3 -18 3 C-18 2.67 -18 2.34 -18 2 C-16.86820313 1.93941406 -15.73640625 1.87882812 -14.5703125 1.81640625 C-13.08852855 1.73200083 -11.6067584 1.64735283 -10.125 1.5625 C-9.37863281 1.52318359 -8.63226563 1.48386719 -7.86328125 1.44335938 C-3.80013136 1.28426376 -3.80013136 1.28426376 0 0 Z " fill="#FFFAEF" transform="translate(250,19)"/>
<path d="M0 0 C1.9375 0.75 1.9375 0.75 4 2 C4.75 4.125 4.75 4.125 5 6 C2.525 5.01 2.525 5.01 0 4 C-0.66 4.99 -1.32 5.98 -2 7 C-2.125 4.625 -2.125 4.625 -2 2 C-1.34 1.34 -0.68 0.68 0 0 Z " fill="#6E747F" transform="translate(365,81)"/>
<path d="M0 0 C0.99 0 1.98 0 3 0 C2.67 1.98 2.34 3.96 2 6 C0.35 6 -1.3 6 -3 6 C-2.67 4.68 -2.34 3.36 -2 2 C-1.34 2 -0.68 2 0 2 C0 1.34 0 0.68 0 0 Z " fill="#D3422E" transform="translate(290,55)"/>
<path d="M0 0 C-1.65 2.64 -3.3 5.28 -5 8 C-6.04449911 4.86650268 -5.93423645 4.01031744 -5 1 C-5.66 0.67 -6.32 0.34 -7 0 C-4 -1 -4 -1 0 0 Z " fill="#F9E7DB" transform="translate(298,35)"/>
<path d="M0 0 C0.70189453 0.00451172 1.40378906 0.00902344 2.12695312 0.01367188 C3.85550538 0.02543073 5.58401365 0.04336546 7.3125 0.0625 C7.3125 0.7225 7.3125 1.3825 7.3125 2.0625 C6.34828125 2.03929688 5.3840625 2.01609375 4.390625 1.9921875 C3.12734375 1.97414063 1.8640625 1.95609375 0.5625 1.9375 C-1.31695312 1.90269531 -1.31695312 1.90269531 -3.234375 1.8671875 C-6.41570492 2.04712698 -8.05271896 2.37251418 -10.6875 4.0625 C-10.6875 3.0725 -10.6875 2.0825 -10.6875 1.0625 C-7.06882441 -0.1437252 -3.76243749 -0.04566918 0 0 Z " fill="#F0C9BE" transform="translate(334.6875,21.9375)"/>
<path d="M0 0 C4.95 0 9.9 0 15 0 C14.67 1.98 14.34 3.96 14 6 C13.34 5.34 12.68 4.68 12 4 C12 3.01 12 2.02 12 1 C8.04 1 4.08 1 0 1 C0 0.67 0 0.34 0 0 Z " fill="#5B616C" transform="translate(203,113)"/>
<path d="M0 0 C2.15502531 3.23253796 2.46856135 4.25150923 2 8 C0.48046875 9.65625 0.48046875 9.65625 -1 11 C-1.22174933 9.54364629 -1.42698698 8.08477044 -1.625 6.625 C-1.74101562 5.81289062 -1.85703125 5.00078125 -1.9765625 4.1640625 C-1.98429687 3.44992188 -1.99203125 2.73578125 -2 2 C-1.34 1.34 -0.68 0.68 0 0 Z " fill="#47515F" transform="translate(401,89)"/>
<path d="M0 0 C0.33 0 0.66 0 1 0 C1.125 2.875 1.125 2.875 1 6 C0.34 6.66 -0.32 7.32 -1 8 C-1.6425235 10.06874034 -1.6425235 10.06874034 -2 12 C-2.99 11.67 -3.98 11.34 -5 11 C-4.34 11 -3.68 11 -3 11 C-3.061875 10.113125 -3.12375 9.22625 -3.1875 8.3125 C-2.98002096 4.64703692 -2.15087824 2.92519441 0 0 Z " fill="#BD533D" transform="translate(297,35)"/>
<path d="M0 0 C1.32 0 2.64 0 4 0 C4 1.32 4 2.64 4 4 C1.69 4.33 -0.62 4.66 -3 5 C-1.125 1.125 -1.125 1.125 0 0 Z " fill="#CF4328" transform="translate(235,26)"/>
<path d="M0 0 C2.31 0.33 4.62 0.66 7 1 C6.67 2.32 6.34 3.64 6 5 C3.5625 4.1875 3.5625 4.1875 1 3 C0.67 2.01 0.34 1.02 0 0 Z M-2 3 C-1.01 3 -0.02 3 1 3 C0.67 3.66 0.34 4.32 0 5 C-0.66 4.34 -1.32 3.68 -2 3 Z " fill="#434F60" transform="translate(235,113)"/>
<path d="M0 0 C0.99 0 1.98 0 3 0 C3 2.97 3 5.94 3 9 C2.34 9 1.68 9 1 9 C0.67 6.03 0.34 3.06 0 0 Z " fill="#CD4228" transform="translate(199,53)"/>
<path d="M0 0 C0.33 0 0.66 0 1 0 C1.36923077 7.50769231 1.36923077 7.50769231 -0.5 10 C-0.995 10.33 -1.49 10.66 -2 11 C-2.95465783 8.83032311 -3.14401212 7.43671207 -2.3984375 5.17578125 C-1.64129615 3.4315257 -0.82390802 1.71372869 0 0 Z " fill="#F2D4C9" transform="translate(144,23)"/>
<path d="M0 0 C1 3 1 3 0.29296875 5.0078125 C-0.25423828 6.05582031 -0.25423828 6.05582031 -0.8125 7.125 C-1.34810547 8.18074219 -1.34810547 8.18074219 -1.89453125 9.2578125 C-3 11 -3 11 -5 12 C-5.33 10.68 -5.66 9.36 -6 8 C-5.071875 7.4121875 -5.071875 7.4121875 -4.125 6.8125 C-1.67503632 4.72282509 -0.98120002 3.02536673 0 0 Z " fill="#5C6470" transform="translate(254,111)"/>
<path d="M0 0 C2.00993705 2.00993705 2.89940919 3.59211232 4.125 6.125 C4.47820312 6.84945312 4.83140625 7.57390625 5.1953125 8.3203125 C5.46085938 8.87460937 5.72640625 9.42890625 6 10 C5.01 10.33 4.02 10.66 3 11 C0.84694043 7.14243493 -0.39253254 4.44870215 0 0 Z " fill="#F9E3D9" transform="translate(157,54)"/>
<path d="M0 0 C-0.3125 1.875 -0.3125 1.875 -1 4 C-4 6 -4 6 -7 6 C-5.52522876 2.59668175 -4.14385429 0 0 0 Z " fill="#BB5B4A" transform="translate(167,23)"/>
<path d="M0 0 C2.26979665 -0.10794277 4.54105196 -0.18556176 6.8125 -0.25 C8.07707031 -0.29640625 9.34164062 -0.3428125 10.64453125 -0.390625 C14 0 14 0 15.94921875 2.015625 C16.29597656 2.67046875 16.64273438 3.3253125 17 4 C15.68 3.67 14.36 3.34 13 3 C13 2.34 13 1.68 13 1 C8.71 1 4.42 1 0 1 C0 0.67 0 0.34 0 0 Z " fill="#B35843" transform="translate(127,40)"/>
<path d="M0 0 C3.82097239 0.53069061 6.06171403 1.49701566 9 4 C8.67 4.66 8.34 5.32 8 6 C6.02 5.34 4.04 4.68 2 4 C2 3.01 2 2.02 2 1 C1.34 0.67 0.68 0.34 0 0 Z " fill="#BA5644" transform="translate(173,23)"/>
<path d="M0 0 C0.66 0 1.32 0 2 0 C1.55090939 1.48199902 1.09043436 2.96055236 0.625 4.4375 C0.36976562 5.26121094 0.11453125 6.08492188 -0.1484375 6.93359375 C-1 9 -1 9 -3 10 C-3.2295711 6.63295715 -3.33943529 4.58629732 -1.625 1.625 C-1.08875 1.08875 -0.5525 0.5525 0 0 Z " fill="#F8E2D9" transform="translate(20,101)"/>
<path d="M0 0 C0.33 0.66 0.66 1.32 1 2 C0.71125 2.70125 0.4225 3.4025 0.125 4.125 C-1.30624915 7.78263671 -1.60300314 11.09619753 -2 15 C-2.33 15 -2.66 15 -3 15 C-3.55353075 4.44191344 -3.55353075 4.44191344 0 0 Z " fill="#7A8087" transform="translate(401,84)"/>
<path d="M0 0 C2.475 0.495 2.475 0.495 5 1 C5 1.66 5 2.32 5 3 C5.99 3.33 6.98 3.66 8 4 C8 4.66 8 5.32 8 6 C7.34 6 6.68 6 6 6 C6 5.34 6 4.68 6 4 C4.02 4 2.04 4 0 4 C0 2.66666667 0 1.33333333 0 0 Z " fill="#BA4B33" transform="translate(88,66)"/>
<path d="M0 0 C2.19726562 1.85546875 2.19726562 1.85546875 4.39453125 3.7109375 C5.8655046 4.89201099 7.43037794 5.95358529 9 7 C3.54545455 7.36363636 3.54545455 7.36363636 1.125 5.75 C0 4 0 4 0 0 Z " fill="#FAE4DA" transform="translate(323,59)"/>
<path d="M0 0 C0.93423645 3.01031744 1.04449911 3.86650268 0 7 C-2.31 7.33 -4.62 7.66 -7 8 C-6.21625 7.4225 -5.4325 6.845 -4.625 6.25 C-2.19952756 4.17102363 -1.14305583 2.90959667 0 0 Z " fill="#F8E0DA" transform="translate(144,58)"/>
<path d="M0 0 C0.99 0 1.98 0 3 0 C1.54984894 3.74622356 1.54984894 3.74622356 -0.625 4.75 C-4.09737727 5.1155134 -7.50864298 5.05818928 -11 5 C-11 4.67 -11 4.34 -11 4 C-5.555 3.505 -5.555 3.505 0 3 C0 2.01 0 1.02 0 0 Z " fill="#BC4D39" transform="translate(178,59)"/>
<path d="M0 0 C0.99 0 1.98 0 3 0 C3 1.98 3 3.96 3 6 C2.01 6.33 1.02 6.66 0 7 C0 4.69 0 2.38 0 0 Z " fill="#F4FEF6" transform="translate(274,59)"/>
<path d="M0 0 C2 1.375 2 1.375 4 3 C4 3.66 4 4.32 4 5 C6.64 5 9.28 5 12 5 C12 5.33 12 5.66 12 6 C10.5629191 6.05422947 9.12524538 6.09289723 7.6875 6.125 C6.88699219 6.14820313 6.08648437 6.17140625 5.26171875 6.1953125 C3 6 3 6 0 4 C0 2.68 0 1.36 0 0 Z " fill="#FBE9E9" transform="translate(121,44)"/>
<path d="M0 0 C2.475 0.99 2.475 0.99 5 2 C5 2.99 5 3.98 5 5 C2.83125748 4.49396008 1.00032373 4.00016187 -1 3 C-0.67 2.01 -0.34 1.02 0 0 Z " fill="#D54028" transform="translate(137,42)"/>
<path d="M0 0 C0.66 0 1.32 0 2 0 C2.33 2.64 2.66 5.28 3 8 C1.68 7.67 0.36 7.34 -1 7 C-1.04254356 5.00045254 -1.04080783 2.99958364 -1 1 C-0.67 0.67 -0.34 0.34 0 0 Z " fill="#43505E" transform="translate(372,95)"/>
<path d="M0 0 C0.66 0 1.32 0 2 0 C1.25 4.75 1.25 4.75 -1 7 C-1.66 7 -2.32 7 -3 7 C-1.125 1.125 -1.125 1.125 0 0 Z " fill="#57626F" transform="translate(327,84)"/>
<path d="M0 0 C0.1875 2.875 0.1875 2.875 0 6 C-0.99 6.66 -1.98 7.32 -3 8 C-3.6875 5.6875 -3.6875 5.6875 -4 3 C-1.72413793 0 -1.72413793 0 0 0 Z " fill="#F6EDE5" transform="translate(285,56)"/>
<path d="M0 0 C0.33 0.99 0.66 1.98 1 3 C1.99 3.33 2.98 3.66 4 4 C2.02 4.66 0.04 5.32 -2 6 C-2.33 4.35 -2.66 2.7 -3 1 C-2.01 0.67 -1.02 0.34 0 0 Z " fill="#C74628" transform="translate(163,28)"/>
<path d="M0 0 C0.33 0 0.66 0 1 0 C1 1.98 1 3.96 1 6 C3.97 6.495 3.97 6.495 7 7 C7 7.33 7 7.66 7 8 C4.69 8.33 2.38 8.66 0 9 C0 6.03 0 3.06 0 0 Z " fill="#C5684E" transform="translate(285,55)"/>
<path d="M0 0 C0.66 0.99 1.32 1.98 2 3 C0.61410019 6.09162264 -0.49183541 7.49183541 -3 10 C-2.01 6.7 -1.02 3.4 0 0 Z " fill="#FAE0D3" transform="translate(309,54)"/>
<path d="M0 0 C1.33332095 2.6666419 0.67102033 4.16680303 0 7 C-0.66 7 -1.32 7 -2 7 C-2.33 5.02 -2.66 3.04 -3 1 C-2.01 0.67 -1.02 0.34 0 0 Z " fill="#D63E2C" transform="translate(295,46)"/>
<path d="M0 0 C0.66 0.66 1.32 1.32 2 2 C1.625 4.125 1.625 4.125 1 6 C-0.32 6 -1.64 6 -3 6 C-1.125 1.125 -1.125 1.125 0 0 Z " fill="#5B6871" transform="translate(20,30)"/>
<path d="M0 0 C0.66 0 1.32 0 2 0 C2.625 1.8125 2.625 1.8125 3 4 C2.01 5.485 2.01 5.485 1 7 C0.34 7 -0.32 7 -1 7 C-0.67 4.69 -0.34 2.38 0 0 Z " fill="#FCF2ED" transform="translate(219,23)"/>
<path d="M0 0 C2.3828125 -0.29296875 2.3828125 -0.29296875 5.125 -0.1875 C6.03507812 -0.16042969 6.94515625 -0.13335938 7.8828125 -0.10546875 C8.58148438 -0.07066406 9.28015625 -0.03585938 10 0 C10 0.33 10 0.66 10 1 C8.4221875 1.2165625 8.4221875 1.2165625 6.8125 1.4375 C3.84539451 1.87526966 0.93205634 2.37804866 -2 3 C-1.34 2.01 -0.68 1.02 0 0 Z " fill="#B74F37" transform="translate(330,23)"/>
<path d="M0 0 C2 3 2 3 2 7 C0.68 7 -0.64 7 -2 7 C-1.125 2.25 -1.125 2.25 0 0 Z " fill="#B65546" transform="translate(14,117)"/>
<path d="M0 0 C0.33 0 0.66 0 1 0 C1.3125 2.1875 1.3125 2.1875 1 5 C-1.5 7.8125 -1.5 7.8125 -4 10 C-2.8905928 6.51329166 -1.73662334 3.22515763 0 0 Z " fill="#5E6A77" transform="translate(125,94)"/>
<path d="M0 0 C0.33 1.98 0.66 3.96 1 6 C-0.65 5.67 -2.3 5.34 -4 5 C-3.625 3.0625 -3.625 3.0625 -3 1 C-1 0 -1 0 0 0 Z " fill="#E7DCD1" transform="translate(59,78)"/>
<path d="M0 0 C0.33 0 0.66 0 1 0 C1.25 2.75 1.25 2.75 1 6 C-1 8.375 -1 8.375 -3 10 C-2.01 6.7 -1.02 3.4 0 0 Z " fill="#FCE8E1" transform="translate(218,39)"/>
<path d="M0 0 C0.66 0 1.32 0 2 0 C2 2.31 2 4.62 2 7 C1.34 7 0.68 7 0 7 C-0.38133299 5.0085944 -0.71325582 3.00720923 -1 1 C-0.67 0.67 -0.34 0.34 0 0 Z " fill="#D14233" transform="translate(344,32)"/>
</svg>
