<?xml version="1.0" standalone="no"?>
<!DOCTYPE svg PUBLIC "-//W3C//DTD SVG 20010904//EN"
 "http://www.w3.org/TR/2001/REC-SVG-20010904/DTD/svg10.dtd">
<svg version="1.0" xmlns="http://www.w3.org/2000/svg"
 width="100" height="100" viewBox="0 0 450.000000 389.000000"
 preserveAspectRatio="xMidYMid meet">
<metadata>
Created by potrace 1.10, written by Peter Selinger 2001-2011
</metadata>
<g transform="translate(0.000000,389.000000) scale(0.100000,-0.100000)"
fill="#000000" stroke="none">
<path d="M2570 2889 c-16 -4 -19 -7 -7 -8 9 -1 17 -5 17 -10 0 -6 -12 -6 -27
-2 -16 4 -45 3 -65 -3 -33 -10 -36 -13 -20 -23 16 -11 15 -12 -5 -12 -12 -1
-23 4 -25 10 -2 6 -11 7 -22 3 -19 -7 -19 -8 0 -15 13 -5 5 -8 -26 -8 -43 0
-123 -18 -87 -20 9 -1 17 -5 17 -11 0 -13 -33 -13 -47 1 -8 8 -22 1 -51 -26
-36 -32 -40 -40 -35 -71 4 -22 2 -34 -6 -34 -6 0 -11 11 -11 25 0 14 -4 25
-10 25 -16 0 -12 -50 5 -56 8 -4 15 -14 15 -23 0 -13 2 -13 9 -2 5 8 11 9 15
3 3 -6 2 -13 -2 -16 -10 -6 -8 -73 2 -83 3 -3 7 11 7 33 2 31 3 33 6 11 3 -16
1 -36 -3 -45 -8 -18 -10 -26 -14 -52 -1 -11 -4 -9 -10 5 -6 14 -7 6 -4 -25 5
-38 3 -43 -8 -29 -7 9 -19 14 -25 12 -8 -3 -13 5 -14 19 -1 23 -1 23 -8 -2 -4
-15 -10 -20 -14 -13 -4 6 -3 22 2 36 5 14 7 35 3 48 -6 23 -6 23 -13 -6 -6
-26 -7 -24 -8 17 -1 54 19 117 27 83 2 -10 -1 -21 -7 -23 -6 -2 -11 -13 -11
-25 0 -27 14 -12 29 32 8 26 8 36 0 42 -7 4 -10 20 -6 42 5 29 1 39 -24 63
-16 15 -29 22 -29 16 0 -7 5 -12 12 -12 6 0 9 -3 5 -6 -3 -3 -15 1 -27 9 -15
10 -17 16 -8 19 7 3 3 7 -10 10 -12 4 -22 2 -22 -3 0 -5 -7 -9 -15 -9 -18 0
-20 16 -2 24 6 3 -6 3 -27 -1 -26 -4 -37 -2 -32 5 4 7 -5 10 -24 10 -17 -1
-33 2 -37 5 -3 4 5 7 18 8 l24 0 -25 10 c-17 7 -26 7 -28 0 -2 -6 -11 -11 -19
-11 -8 0 -13 6 -10 13 3 9 -5 12 -32 10 -31 -2 -33 -1 -11 6 22 8 22 9 5 11
-11 1 -24 1 -30 0 -38 -8 -45 -8 -45 0 0 5 8 11 18 13 9 3 -10 3 -43 0 -33 -4
-63 -10 -66 -16 -4 -5 -9 -5 -13 2 -13 20 -25 2 -32 -45 -4 -31 -9 -42 -15
-33 -10 17 -9 21 -13 -64 -2 -38 -8 -73 -15 -80 -6 -6 -11 -27 -12 -46 0 -20
-3 -30 -6 -23 -10 26 -18 10 -16 -35 2 -42 1 -44 -7 -18 -6 22 -7 14 -3 -27 3
-37 2 -58 -5 -58 -6 0 -13 8 -16 18 -3 9 -3 -8 -1 -38 3 -41 2 -49 -5 -30 -8
22 -9 20 -9 -15 1 -57 0 -62 -10 -46 -6 10 -8 0 -4 -27 4 -28 2 -42 -6 -42 -6
0 -11 -15 -12 -32 -1 -31 -1 -31 -8 -8 l-8 25 -4 -25 c-3 -14 0 -36 5 -49 8
-18 8 -25 -2 -29 -6 -2 -12 -18 -13 -35 0 -18 -3 -26 -6 -19 -10 25 -19 11
-16 -25 2 -31 1 -33 -5 -13 l-8 25 -7 -25 c-3 -13 -2 -29 3 -34 15 -15 12 -39
-3 -33 -9 3 -12 -5 -9 -29 3 -21 0 -34 -7 -34 -6 0 -11 -10 -11 -22 0 -19 -2
-20 -10 -8 -7 11 -10 7 -10 -17 0 -17 -4 -34 -8 -37 -5 -3 -7 -20 -6 -38 3
-31 3 -31 -6 -8 -8 21 -9 19 -6 -15 1 -23 -3 -49 -11 -62 -8 -12 -11 -28 -7
-34 5 -8 2 -10 -7 -7 -12 5 -15 -1 -12 -26 2 -29 2 -30 -7 -6 -8 23 -9 23 -8
-10 1 -54 -12 -94 -39 -126 -13 -16 -19 -30 -14 -32 13 -4 15 -32 2 -32 -5 0
-11 6 -13 12 -3 7 -7 2 -10 -10 -4 -12 -2 -22 3 -22 5 0 9 -8 9 -17 0 -15 -2
-16 -10 -3 -5 8 -10 13 -10 10 -1 -3 -2 -27 -4 -53 -4 -53 -13 -69 -25 -48
-11 18 -24 -21 -23 -69 0 -25 -2 -30 -7 -16 -7 17 -8 18 -14 3 -3 -9 -2 -19 3
-22 16 -10 11 -28 -6 -21 -13 5 -14 1 -9 -24 4 -19 3 -30 -4 -30 -6 0 -11 -12
-11 -27 0 -22 2 -25 10 -13 8 12 10 11 10 -7 0 -13 4 -23 10 -23 5 0 7 -7 4
-15 -5 -11 -2 -13 12 -8 11 4 15 3 11 -4 -5 -7 0 -9 13 -6 22 6 28 -12 8 -21
-7 -3 5 -3 27 1 35 5 38 4 27 -9 -10 -13 -5 -17 38 -25 35 -7 51 -7 54 1 3 7
10 5 18 -6 9 -11 23 -14 41 -11 20 4 27 2 25 -8 -2 -10 6 -13 26 -11 20 3 26
0 21 -8 -5 -9 -1 -10 14 -5 12 4 27 2 34 -3 19 -15 97 -20 97 -5 0 6 9 15 20
18 12 4 20 15 20 28 0 18 2 19 10 7 7 -11 10 -3 11 30 0 36 2 41 10 25 6 -14
7 -7 3 23 -4 33 -3 42 8 40 9 -2 13 9 11 42 -2 40 -1 41 6 15 8 -29 9 -29 11
-5 2 25 2 30 -7 63 -3 9 -1 17 5 17 6 0 13 -8 16 -18 3 -9 3 7 0 36 -5 42 -3
51 8 47 11 -4 13 3 11 32 -2 34 -1 35 7 13 7 -19 8 -14 4 23 -3 30 -1 47 5 47
6 0 11 -6 12 -12 0 -7 6 3 13 22 7 19 10 42 6 50 -3 8 -5 21 -4 28 1 6 2 18 3
25 2 6 7 3 12 -8 7 -15 8 -9 4 23 -3 25 -1 42 5 42 5 0 10 -6 10 -12 1 -18 40
62 40 81 0 11 3 12 11 4 8 -8 7 -16 -2 -30 -7 -12 -9 -28 -4 -39 7 -17 8 -17
15 6 4 15 7 -4 7 -49 0 -51 4 -76 14 -82 12 -7 12 -9 -1 -10 -10 0 -8 -3 5 -9
11 -5 15 -9 8 -9 -8 -1 -7 -13 4 -41 11 -28 19 -37 25 -28 4 7 8 10 9 6 1 -5
2 -11 3 -15 1 -5 5 -14 10 -22 7 -10 6 -12 -4 -6 -9 5 -11 4 -6 -3 4 -7 14
-12 22 -12 8 0 12 -4 9 -10 -6 -10 11 -15 80 -24 25 -3 33 -2 21 3 -27 11 -4
23 28 15 33 -8 69 4 62 22 -4 10 2 14 22 13 17 -1 20 -3 10 -6 -35 -9 -18 -24
20 -18 28 5 33 4 22 -4 -12 -9 -10 -11 10 -11 14 0 43 -3 65 -6 34 -4 44 -1
68 21 15 14 27 37 27 50 0 31 17 33 24 3 2 -13 4 -6 2 14 -1 26 4 40 16 50 10
7 16 18 13 25 -2 7 2 13 9 13 11 0 14 21 12 103 -2 56 0 89 3 72 9 -42 21 -9
16 42 -4 35 -4 36 4 8 5 -16 9 -25 10 -20 1 6 6 0 11 -12 5 -13 17 -23 25 -23
13 0 15 -8 12 -42 -2 -24 -2 -35 0 -25 5 18 23 24 23 6 0 -6 -4 -18 -9 -27 -5
-10 -6 -31 -3 -47 l6 -30 6 30 6 30 5 -37 c3 -20 1 -34 -3 -32 -4 3 -8 -2 -8
-10 0 -10 6 -13 16 -9 13 5 15 -1 10 -43 -4 -37 -3 -41 3 -19 8 27 9 25 10
-20 1 -38 4 -47 12 -35 8 11 9 2 6 -35 -3 -27 -3 -42 0 -33 9 36 25 18 18 -21
-3 -22 -3 -60 0 -85 7 -43 9 -45 22 -29 13 16 14 11 9 -42 -2 -33 -2 -50 1
-37 8 37 24 13 17 -25 -5 -28 -4 -34 6 -28 10 6 12 4 7 -9 -5 -12 2 -22 23
-35 17 -10 28 -20 26 -22 -3 -2 13 -3 35 -1 22 2 39 0 39 -6 0 -6 10 -8 22 -4
21 5 21 6 2 13 -19 7 -19 7 0 15 12 5 21 3 23 -3 3 -7 16 -9 31 -7 38 7 40 14
6 15 -25 0 -26 2 -9 8 11 5 28 4 38 -1 23 -12 37 -1 17 12 -11 7 -8 10 13 10
15 0 27 4 27 10 0 5 20 8 48 5 37 -4 42 -3 22 5 -20 8 -17 9 20 5 25 -2 39 -2
33 1 -29 12 -12 26 25 21 20 -3 31 -3 25 0 -23 9 -13 22 15 20 20 -1 27 2 26
15 -1 10 4 14 12 11 9 -3 11 2 7 19 -3 17 -2 19 5 9 8 -11 10 -7 10 15 0 65
-8 93 -24 87 -13 -5 -14 1 -10 33 3 22 3 33 0 27 -3 -7 -10 -13 -15 -13 -6 0
-5 8 1 20 10 18 7 24 -12 21 -5 0 -8 8 -8 20 0 11 4 17 10 14 6 -3 7 1 4 9 -3
9 -13 16 -20 16 -11 0 -12 5 -5 18 5 10 6 24 1 31 -6 11 -9 10 -14 -5 -3 -10
-4 -4 -2 14 2 24 -1 31 -11 28 -9 -4 -13 3 -13 19 0 13 -4 26 -9 30 -5 3 -7
20 -4 39 6 40 -14 87 -28 65 -6 -10 -9 -8 -9 9 0 12 4 22 9 22 5 0 7 10 3 22
-5 21 -6 21 -13 2 -6 -17 -8 -17 -14 -2 -3 9 -2 25 3 35 11 22 -7 72 -25 66
-14 -5 -18 23 -5 29 5 2 5 14 1 28 -4 16 -7 19 -8 8 -1 -10 -5 -18 -11 -18
-12 0 -13 12 -1 43 6 14 6 29 0 38 -6 11 -9 8 -10 -11 -1 -20 -2 -21 -6 -5 -2
11 -9 31 -16 44 -9 17 -9 25 -1 28 6 2 9 15 6 31 -5 24 -6 25 -14 7 -6 -15 -7
-10 -5 18 3 36 -6 50 -16 25 -3 -8 -6 -6 -6 5 -1 9 3 17 8 17 5 0 7 9 4 19 -3
12 -11 17 -19 14 -9 -3 -14 2 -14 16 0 12 4 21 9 21 4 0 6 12 3 28 l-6 27 -7
-25 c-6 -19 -7 -14 -5 18 3 37 2 41 -12 30 -13 -11 -15 -9 -9 19 5 23 3 32 -6
30 -8 -1 -11 14 -10 53 1 44 0 49 -7 25 l-8 -30 -1 33 c0 17 -6 32 -12 32 -8
0 -9 16 -6 48 4 28 3 37 -2 22 l-7 -25 -6 27 c-2 14 -1 33 4 41 5 9 4 18 -2
22 -5 3 -11 -2 -11 -12 -1 -18 -6 0 -32 110 -7 32 -16 55 -20 51 -4 -4 -7 9
-7 29 0 21 -4 37 -9 37 -6 0 -9 26 -8 58 2 50 0 57 -16 55 -15 -1 -18 4 -15
27 3 18 0 27 -6 23 -5 -4 -7 1 -3 11 8 20 -27 36 -78 36 -18 0 -35 4 -37 8 -1
5 -14 5 -28 1z m-850 -38 c0 -5 19 -11 42 -15 23 -4 47 -11 53 -15 5 -5 24
-11 40 -14 45 -8 119 -31 125 -38 3 -3 21 -9 41 -13 53 -9 89 -41 89 -77 0
-16 -4 -29 -9 -29 -5 0 -12 -17 -16 -37 -4 -21 -12 -41 -18 -45 -8 -5 -8 -10
0 -20 6 -7 14 -39 17 -70 4 -32 12 -58 17 -58 5 0 9 -16 9 -35 0 -19 4 -35 9
-35 5 0 12 -24 15 -53 8 -64 26 -98 26 -50 0 17 4 35 10 38 5 3 12 28 16 55 4
28 10 50 15 50 5 0 9 13 9 29 0 17 4 32 9 35 5 4 12 25 16 49 4 23 12 48 18
55 7 8 7 16 1 20 -10 8 -33 63 -41 100 -8 33 30 69 81 78 22 3 43 9 46 13 6 8
83 31 128 38 17 3 32 9 32 13 0 5 23 11 50 15 28 4 50 11 50 16 0 16 54 9 78
-10 14 -12 22 -30 22 -50 0 -17 4 -31 9 -31 5 0 12 -25 16 -55 3 -30 11 -57
16 -60 5 -4 9 -19 9 -35 0 -16 4 -31 9 -34 5 -4 12 -29 16 -56 4 -28 11 -50
16 -50 5 0 9 -14 9 -30 0 -17 7 -47 15 -67 8 -19 15 -46 15 -59 0 -13 4 -24 9
-24 5 0 12 -22 16 -50 4 -27 11 -50 16 -50 5 0 9 -15 9 -34 0 -19 4 -37 9 -40
5 -3 12 -26 15 -51 4 -24 11 -47 17 -50 5 -4 9 -17 9 -30 0 -13 4 -27 10 -30
5 -3 12 -28 16 -55 4 -28 10 -50 14 -50 5 0 11 -22 15 -50 4 -27 11 -50 16
-50 5 0 9 -11 9 -25 0 -14 4 -25 9 -25 5 0 11 -22 15 -50 4 -27 11 -52 16 -55
6 -3 10 -17 10 -31 0 -13 4 -24 9 -24 5 0 12 -22 16 -50 4 -27 11 -50 16 -50
5 0 9 -11 9 -25 0 -14 5 -25 10 -25 6 0 9 -3 8 -7 -3 -15 14 -83 22 -88 5 -3
11 -23 15 -45 4 -22 11 -40 16 -40 5 0 9 -11 9 -25 0 -14 5 -25 10 -25 17 0
11 -68 -7 -90 -10 -11 -25 -20 -35 -20 -10 0 -18 -4 -18 -10 0 -5 -13 -10 -30
-10 -16 0 -30 -4 -30 -9 0 -5 -22 -12 -50 -16 -27 -4 -50 -11 -50 -16 0 -5
-11 -9 -24 -9 -13 0 -37 -7 -52 -15 -16 -8 -39 -15 -51 -15 -12 0 -25 -4 -28
-10 -8 -13 -55 -13 -55 -1 0 5 -8 12 -18 15 -19 6 -37 66 -49 164 -3 23 -9 42
-13 42 -4 0 -11 26 -15 57 -4 32 -10 63 -15 68 -4 6 -10 24 -13 40 -14 72 -32
140 -38 145 -3 3 -9 27 -13 55 -3 27 -11 54 -16 59 -6 6 -10 23 -10 38 0 15
-4 28 -9 28 -5 0 -12 22 -16 50 -4 27 -11 52 -16 56 -5 3 -9 20 -9 38 0 18 -7
41 -15 52 -13 18 -14 17 -15 -18 0 -20 -4 -40 -10 -43 -6 -3 -10 -19 -10 -34
0 -15 -5 -32 -10 -37 -6 -6 -13 -34 -17 -62 -3 -29 -9 -52 -13 -52 -17 0 -19
-75 -3 -99 11 -17 13 -26 5 -29 -7 -2 -12 -10 -12 -18 0 -8 -4 -14 -10 -14 -5
0 -12 -11 -16 -25 -3 -14 -10 -25 -15 -25 -5 0 -9 -9 -9 -21 0 -29 -18 -59
-35 -59 -8 0 -15 -4 -15 -10 0 -5 -7 -10 -15 -10 -8 0 -15 4 -15 9 0 5 -18 12
-40 16 -22 4 -40 11 -40 16 0 5 -22 9 -50 9 -27 0 -50 -4 -50 -9 0 -5 -18 -12
-40 -16 -22 -4 -40 -11 -40 -16 0 -5 -7 -9 -15 -9 -8 0 -15 5 -15 10 0 6 -7
10 -15 10 -9 0 -20 10 -25 23 -34 85 -45 107 -52 107 -4 0 -8 7 -8 15 0 8 -5
15 -12 15 -9 0 -9 3 0 12 14 14 16 78 2 78 -5 0 -10 11 -10 25 0 14 -7 42 -15
62 -8 19 -15 46 -15 59 0 13 -4 24 -10 24 -5 0 -10 17 -10 37 0 35 -1 36 -15
17 -8 -10 -15 -34 -15 -51 0 -18 -4 -33 -9 -33 -5 0 -12 -22 -16 -50 -4 -27
-10 -50 -15 -50 -4 0 -10 -15 -13 -32 -6 -38 -26 -114 -37 -143 -10 -25 -30
-100 -37 -140 -3 -16 -9 -35 -14 -40 -4 -6 -11 -34 -15 -63 -3 -28 -10 -52
-15 -52 -5 0 -9 -16 -9 -35 0 -19 -4 -35 -9 -35 -5 0 -11 -22 -15 -49 -5 -37
-11 -51 -26 -56 -11 -4 -20 -11 -20 -16 0 -5 -11 -9 -25 -9 -14 0 -25 4 -25 9
0 4 -19 11 -42 14 -24 3 -44 11 -46 16 -2 6 -19 11 -38 11 -19 0 -34 4 -34 9
0 5 -22 12 -50 16 -27 4 -50 11 -50 16 0 5 -13 9 -30 9 -16 0 -30 5 -30 10 0
6 -8 10 -17 10 -30 0 -53 31 -53 72 0 21 5 38 10 38 6 0 10 9 10 19 0 11 4 22
9 26 5 3 12 19 16 36 4 17 13 42 21 57 8 15 14 35 14 44 0 9 5 20 10 23 6 3
10 17 10 31 0 13 4 24 9 24 5 0 12 18 16 40 4 22 10 40 15 40 4 0 10 12 13 28
9 45 31 117 38 122 3 3 9 16 12 30 12 51 32 115 37 120 7 7 30 87 37 128 3 17
9 32 13 32 5 0 11 23 15 50 4 28 11 50 16 50 5 0 9 13 9 29 0 17 4 32 9 35 5
4 12 25 16 49 3 23 10 51 14 62 19 45 41 129 41 156 0 16 5 29 10 29 6 0 10 9
10 21 0 25 29 147 41 170 4 9 11 44 15 78 3 33 11 61 15 61 5 0 9 14 9 32 0
41 34 78 72 78 15 0 28 -4 28 -9z m740 -1306 c0 -46 -14 -46 -17 0 -1 19 3 35
8 35 5 0 9 -16 9 -35z"/>
<path d="M1663 2783 c-6 -16 -14 -52 -18 -80 -4 -29 -11 -55 -16 -59 -5 -3 -9
-23 -9 -44 0 -21 -4 -41 -9 -45 -5 -3 -13 -30 -16 -60 -4 -30 -11 -55 -16 -55
-5 0 -9 -13 -9 -29 0 -16 -7 -45 -15 -64 -8 -20 -15 -50 -15 -67 0 -16 -4 -30
-9 -30 -5 0 -12 -25 -16 -55 -3 -30 -11 -55 -16 -55 -5 0 -9 -13 -9 -29 0 -17
-4 -32 -9 -36 -6 -3 -13 -26 -17 -50 -3 -25 -10 -45 -15 -45 -5 0 -9 -16 -9
-35 0 -19 -4 -35 -9 -35 -5 0 -12 -22 -16 -50 -4 -27 -11 -50 -16 -50 -5 0 -9
-8 -9 -19 0 -10 -7 -32 -15 -47 -8 -16 -15 -41 -15 -56 0 -16 -4 -28 -9 -28
-6 0 -13 -20 -17 -45 -3 -25 -10 -45 -15 -45 -5 0 -9 -11 -9 -25 0 -14 -4 -25
-10 -25 -5 0 -10 -10 -10 -22 0 -13 -7 -36 -15 -52 -8 -15 -15 -34 -15 -41 0
-7 -7 -26 -15 -41 -8 -16 -15 -39 -15 -51 0 -13 -4 -23 -10 -23 -5 0 -10 -6
-10 -14 0 -7 -7 -27 -15 -42 -8 -16 -15 -39 -15 -51 0 -12 -5 -23 -11 -25 -6
-2 -11 -19 -12 -38 -2 -32 1 -35 28 -38 17 -2 35 -7 40 -12 6 -4 28 -11 50
-15 22 -4 42 -11 46 -16 3 -5 25 -10 50 -11 24 -1 50 -7 57 -15 7 -7 24 -13
38 -13 13 0 24 -4 24 -10 0 -5 14 -10 30 -10 25 0 30 4 30 24 0 14 5 28 10 31
6 3 10 22 10 41 0 19 4 34 9 34 5 0 12 27 16 60 4 33 11 60 15 60 4 0 10 15
14 33 14 83 31 147 38 147 4 0 8 10 8 21 0 21 25 108 40 139 4 9 11 35 15 58
4 23 11 44 16 48 5 3 9 18 9 34 0 16 4 31 9 35 6 3 13 26 17 50 3 25 10 45 15
45 5 0 9 15 9 34 0 21 6 36 15 40 10 4 15 -1 15 -14 0 -11 5 -20 10 -20 6 0
10 -15 10 -34 0 -19 4 -37 9 -41 6 -3 13 -26 17 -50 3 -25 10 -45 15 -45 5 0
9 -11 9 -25 0 -14 7 -42 15 -62 8 -19 15 -46 15 -59 0 -13 5 -24 10 -24 6 0
10 -9 10 -20 0 -11 -4 -20 -10 -20 -17 0 -11 -20 15 -48 14 -15 25 -39 25 -54
0 -42 10 -58 36 -58 13 0 24 4 24 9 0 6 20 13 45 17 25 3 45 10 45 15 0 14 55
10 86 -6 16 -8 37 -15 46 -15 9 0 20 -5 23 -10 10 -16 42 -12 49 6 3 9 6 33 6
54 0 29 4 39 20 43 23 6 39 39 22 45 -14 4 -16 82 -2 82 6 0 10 13 10 29 0 16
7 45 15 64 8 20 15 50 15 67 0 16 4 30 9 30 5 0 12 20 15 45 4 24 11 47 17 50
5 4 9 19 9 36 0 16 5 29 10 29 6 0 10 11 10 25 0 16 6 25 15 25 11 0 15 -11
15 -40 0 -22 4 -40 9 -40 5 0 12 -20 15 -45 4 -24 11 -47 17 -50 5 -4 9 -19 9
-35 0 -16 4 -32 10 -35 5 -3 12 -28 16 -55 4 -28 10 -50 14 -50 4 0 11 -25 15
-55 3 -30 11 -55 16 -55 5 0 9 -16 9 -35 0 -19 4 -35 9 -35 5 0 12 -25 16 -55
3 -30 11 -55 16 -55 5 0 9 -18 9 -40 0 -22 4 -40 9 -40 5 0 13 -29 16 -65 4
-36 11 -65 16 -65 5 0 9 -18 9 -39 0 -22 5 -43 10 -46 6 -3 10 -19 10 -36 0
-26 3 -29 30 -29 17 0 30 4 30 9 0 5 23 12 50 16 28 4 50 11 50 16 0 5 15 9
33 9 18 0 42 8 53 18 10 10 27 16 38 14 10 -2 28 1 40 7 11 5 32 11 46 13 29
4 35 24 19 64 -27 65 -48 130 -49 147 0 9 -4 17 -10 17 -5 0 -10 10 -10 23 0
12 -7 35 -15 51 -8 15 -15 36 -15 46 0 10 -7 31 -15 46 -8 16 -15 39 -15 52 0
12 -4 22 -10 22 -5 0 -10 11 -10 24 0 13 -7 37 -15 52 -8 16 -15 39 -15 52 0
12 -4 22 -10 22 -5 0 -10 11 -10 25 0 14 -7 42 -15 62 -8 19 -15 46 -15 59 0
13 -4 24 -10 24 -5 0 -10 12 -10 28 0 15 -7 40 -15 56 -8 15 -15 39 -15 52 0
13 -4 24 -9 24 -5 0 -12 21 -16 46 -4 26 -10 54 -15 63 -14 28 -40 122 -40
147 0 13 -4 24 -9 24 -5 0 -12 25 -16 55 -3 30 -11 55 -16 55 -5 0 -9 13 -9
29 0 17 -4 32 -9 35 -4 3 -11 28 -15 55 -4 28 -11 53 -16 56 -6 3 -10 19 -10
35 0 16 -4 31 -9 35 -5 3 -13 30 -16 60 -4 30 -11 55 -16 55 -5 0 -9 7 -9 16
0 13 -7 15 -32 11 -44 -7 -122 -30 -128 -38 -3 -3 -26 -9 -52 -13 -27 -4 -48
-11 -48 -17 0 -5 -16 -9 -35 -9 -19 0 -35 -4 -35 -9 0 -5 -12 -11 -27 -13 -35
-4 -41 -33 -18 -82 21 -43 12 -117 -25 -221 -24 -68 -40 -125 -40 -144 0 -11
-4 -21 -9 -21 -5 0 -12 -22 -16 -50 -4 -27 -11 -50 -16 -50 -5 0 -9 -7 -9 -15
0 -32 -20 -13 -26 25 -4 22 -10 40 -15 40 -5 0 -9 15 -9 34 0 19 -4 38 -10 41
-5 3 -12 28 -16 55 -4 28 -10 50 -15 50 -5 0 -9 15 -9 33 -1 17 -7 50 -15 72
-19 52 -19 109 1 146 23 46 15 83 -18 87 -16 2 -28 8 -28 13 0 5 -13 9 -29 9
-17 0 -32 4 -35 9 -4 5 -25 12 -48 16 -23 4 -49 11 -58 15 -29 14 -118 40
-136 40 -11 0 -24 -11 -31 -27z m925 -20 c-10 -2 -18 -8 -18 -13 0 -5 7 -7 16
-3 11 4 22 -1 30 -12 13 -18 14 -17 14 5 0 18 3 21 12 12 6 -6 12 -40 12 -76
1 -36 3 -61 4 -56 14 39 34 -26 33 -102 -1 -25 3 -49 9 -53 6 -3 7 -12 3 -18
-4 -7 1 -5 11 3 18 14 18 12 13 -40 -4 -30 -3 -44 1 -30 5 17 10 21 15 13 5
-7 3 -21 -3 -32 -5 -11 -7 -27 -3 -37 6 -16 7 -16 15 2 5 12 6 2 3 -26 -3 -25
-2 -39 1 -32 13 28 25 10 20 -30 -4 -32 -3 -38 4 -23 8 17 9 15 9 -15 -1 -51
0 -57 12 -40 8 11 9 3 5 -30 -4 -30 -3 -40 3 -30 14 21 23 7 13 -21 -5 -13 -6
-33 -2 -44 8 -20 8 -20 12 0 3 12 5 9 3 -8 -1 -21 2 -26 13 -22 12 4 14 -2 9
-30 -4 -23 -2 -34 6 -32 7 1 10 -14 9 -43 -1 -38 0 -41 8 -20 8 22 9 20 6 -12
-4 -30 -2 -36 11 -31 13 5 14 -1 9 -38 -4 -32 -3 -39 4 -24 9 18 10 18 9 -5
-1 -14 0 -34 1 -45 1 -20 1 -20 11 0 8 17 9 16 5 -8 -2 -18 2 -31 10 -34 10
-4 12 -17 9 -47 -4 -31 -3 -36 5 -21 8 18 10 16 9 -10 -2 -45 0 -51 11 -35 8
12 10 10 10 -10 0 -15 6 -32 12 -38 10 -10 10 -15 1 -20 -7 -5 -10 -17 -6 -32
6 -22 7 -23 15 -4 6 14 7 10 4 -13 -3 -18 -1 -35 4 -38 6 -3 10 0 10 7 1 7 10
-12 21 -42 12 -32 18 -67 14 -84 -4 -25 -3 -27 10 -16 14 12 15 8 11 -31 -3
-24 -3 -36 0 -26 11 34 19 16 17 -40 -1 -40 -6 -59 -17 -65 -9 -5 -14 -13 -11
-18 3 -5 1 -11 -5 -15 -5 -3 -10 1 -10 10 0 12 -4 14 -19 5 -11 -5 -30 -10
-43 -11 -22 0 -22 -1 -3 -9 19 -8 19 -9 -2 -9 -13 -1 -23 -5 -23 -11 0 -5 -9
-10 -20 -10 -11 0 -20 4 -20 10 0 5 -7 7 -15 4 -8 -4 -12 -10 -9 -15 3 -5 -15
-9 -41 -9 -34 0 -47 4 -53 18 -5 13 -8 11 -14 -13 -6 -26 -7 -24 -6 15 0 66
-3 78 -12 50 -8 -24 -8 -24 -9 7 -1 17 -5 35 -11 38 -12 8 -13 55 -1 55 4 0 6
12 3 27 -5 25 -6 25 -13 8 -5 -14 -8 -7 -8 25 -1 34 -4 41 -12 30 -7 -11 -9 0
-5 40 4 40 3 49 -4 35 -8 -17 -9 -15 -9 15 1 19 0 46 -1 60 -2 24 -3 24 -11
-5 -7 -24 -8 -20 -5 20 2 28 2 42 -1 33 -7 -28 -23 -21 -23 10 0 15 -5 33 -10
38 -7 7 -7 19 -2 35 5 13 6 33 2 44 -8 20 -8 20 -12 0 -3 -11 -4 -5 -2 12 2
21 -2 32 -9 30 -8 -1 -11 12 -10 38 2 31 0 35 -7 20 -7 -17 -9 -15 -9 13 -1
17 -5 32 -11 32 -14 0 -12 28 2 32 8 3 5 9 -9 16 -18 10 -20 19 -17 54 3 33 2
38 -5 23 -8 -16 -10 -13 -8 18 2 66 -75 115 -90 57 -3 -11 -9 -20 -14 -20 -5
0 -9 -11 -9 -25 0 -14 -4 -25 -10 -25 -5 0 -10 -15 -11 -32 0 -29 -2 -30 -10
-13 -7 15 -8 11 -4 -17 6 -37 -9 -62 -19 -31 -2 10 -3 -4 -1 -32 3 -37 2 -44
-4 -25 -7 20 -9 15 -11 -30 -1 -43 -4 -51 -11 -35 -7 15 -8 8 -4 -24 5 -36 3
-42 -9 -38 -12 5 -14 -3 -11 -46 3 -44 3 -46 -4 -17 -8 33 -8 32 -10 -20 -3
-58 -18 -157 -20 -127 -1 21 -10 22 -26 0 -8 -11 -18 -14 -31 -9 -10 4 -55 9
-99 10 -44 1 -72 1 -62 -2 9 -2 17 -8 17 -13 0 -15 -73 2 -88 20 -8 9 -11 11
-8 6 2 -6 1 -17 -3 -24 -5 -8 -11 7 -15 38 -4 28 -11 51 -16 51 -6 0 -10 18
-10 40 0 23 -5 40 -11 40 -8 0 -10 13 -6 38 4 22 3 31 -2 23 -13 -21 -24 5
-11 28 6 12 6 22 1 25 -5 4 -12 0 -15 -6 -3 -7 -4 6 -2 29 3 30 1 40 -9 37
-13 -5 -25 36 -25 90 0 25 -2 28 -11 16 -8 -11 -9 -7 -5 17 4 22 2 32 -6 30
-7 -1 -12 4 -13 12 0 8 -8 19 -17 25 -24 15 -52 -3 -56 -37 -2 -18 -8 -24 -18
-20 -11 4 -13 -2 -9 -28 4 -27 3 -30 -4 -14 -8 16 -10 10 -10 -28 -1 -29 -5
-46 -11 -42 -6 4 -8 -7 -5 -27 4 -26 3 -29 -4 -13 -11 23 -13 16 -13 -35 1
-33 0 -33 -8 -10 -7 18 -8 11 -4 -27 4 -33 2 -53 -4 -53 -6 0 -12 6 -15 13 -3
6 -3 -8 -1 -33 3 -32 1 -38 -4 -20 -8 24 -8 24 -14 4 -3 -12 -2 -28 2 -34 5
-7 6 -20 2 -28 -4 -13 -7 -12 -13 4 -5 10 -5 0 -2 -25 3 -24 2 -46 -4 -50 -5
-3 -15 -28 -21 -56 -16 -75 -30 -122 -31 -107 -1 6 -5 12 -10 12 -5 0 -7 -21
-5 -47 3 -32 1 -41 -4 -29 -6 15 -11 16 -16 7 -5 -7 -3 -18 3 -24 13 -13 15
-47 2 -47 -5 0 -12 6 -15 13 -3 6 -3 -10 -1 -38 4 -36 2 -44 -4 -30 -11 23
-13 16 -13 -40 l0 -40 -8 35 c-5 25 -8 28 -9 12 0 -13 -5 -20 -11 -17 -5 3
-10 1 -10 -4 0 -6 -8 -11 -17 -11 -14 0 -15 2 -5 9 21 13 -14 25 -73 23 -27 0
-40 2 -27 5 12 2 22 8 22 13 0 11 -83 22 -113 15 -14 -4 -28 -2 -31 4 -4 6
-16 11 -28 11 -16 0 -18 3 -10 13 11 12 18 71 12 92 -6 19 13 66 24 62 8 -3
11 5 9 27 -2 29 -2 30 7 6 8 -23 9 -23 8 10 0 50 1 57 11 42 7 -11 9 -11 14 2
4 9 2 16 -3 16 -6 0 -10 9 -10 20 0 11 5 20 10 20 6 0 10 10 11 23 0 21 1 21
8 2 7 -17 8 -17 13 8 3 15 1 27 -3 27 -5 0 -9 7 -9 15 0 18 16 20 24 3 3 -7 4
5 1 27 -4 29 -3 36 4 25 11 -16 14 -10 12 30 -1 23 0 23 9 5 8 -16 9 -12 6 18
-3 24 0 37 8 37 8 0 11 12 9 33 -2 23 -1 27 5 13 7 -17 9 -16 19 10 20 54 22
64 13 64 -6 0 -10 9 -10 20 0 11 5 20 10 20 6 0 11 12 11 28 l1 27 9 -30 c6
-23 7 -19 4 23 -1 28 1 52 6 52 5 0 9 11 9 25 0 16 4 23 14 19 14 -5 27 25 25
61 -1 13 -4 10 -9 -10 -6 -23 -8 -25 -9 -8 0 12 4 34 10 50 10 26 12 27 20 8
6 -13 7 -4 4 30 -2 28 -2 42 1 32 10 -32 22 -8 18 36 -3 35 -2 38 6 17 8 -20
9 -15 5 23 -3 27 0 47 5 47 6 0 10 -6 11 -12 2 -29 19 50 18 82 -1 51 0 57 12
40 7 -11 8 -3 4 28 -6 40 6 60 18 30 3 -7 4 10 1 37 -3 40 -2 45 6 25 7 -20 8
-15 4 22 -6 57 7 88 18 43 4 -17 5 -4 2 29 -4 35 -2 56 4 52 5 -3 12 25 16 67
6 70 25 117 27 66 l0 -24 10 24 c7 18 15 22 34 18 14 -2 28 0 31 4 7 12 44 11
44 -1 0 -5 12 -10 28 -11 23 0 24 -2 8 -8 -19 -7 -18 -8 4 -14 14 -4 27 -1 31
5 4 6 15 8 25 4 14 -5 15 -9 5 -15 -10 -7 -9 -10 3 -14 9 -4 16 -2 16 3 0 6 9
10 20 10 22 0 27 -15 8 -24 -7 -3 5 -3 27 -1 22 3 33 2 25 -2 -16 -9 -24 -83
-9 -83 5 0 9 -7 9 -15 0 -18 -16 -20 -23 -2 -4 8 -6 9 -6 0 -1 -6 6 -19 15
-28 13 -12 15 -28 11 -73 -4 -40 -3 -50 3 -32 8 22 9 20 9 -15 -1 -68 2 -84
11 -50 8 30 8 30 9 -7 0 -21 6 -38 11 -38 7 0 9 -20 6 -52 -4 -41 -3 -46 4
-23 8 29 9 29 8 -10 0 -61 3 -73 13 -45 7 20 8 15 5 -20 -2 -25 -2 -39 1 -32
8 20 26 14 20 -8 -8 -31 24 -64 55 -57 20 5 27 15 33 44 6 31 9 34 15 18 6
-17 7 -16 12 8 3 15 1 27 -3 27 -5 0 -9 7 -9 15 0 18 16 20 24 3 3 -7 3 5 0
27 -4 26 -2 35 4 27 13 -19 21 5 15 44 -4 23 -2 26 7 14 8 -12 9 -6 4 23 -5
28 -3 37 8 37 11 0 13 9 10 31 -3 23 -1 30 7 24 8 -4 11 -2 10 6 -4 25 13 119
21 114 9 -6 24 45 15 53 -3 3 -5 -2 -5 -11 0 -10 -4 -17 -9 -17 -9 0 -23 71
-16 79 3 2 5 -3 5 -12 0 -9 4 -17 8 -17 15 0 8 45 -8 53 -8 4 4 5 28 3 23 -2
42 0 42 6 0 5 -4 7 -9 3 -5 -3 -13 0 -17 6 -5 9 3 10 31 5 25 -5 35 -4 30 3
-4 7 9 11 37 12 33 0 38 2 23 9 -18 8 -17 9 8 9 15 1 27 5 27 10 0 9 34 18 75
18 16 1 17 0 3 -4z m-1182 -1060 c-11 -11 -17 4 -9 23 7 18 8 18 11 1 2 -10 1
-21 -2 -24z"/>
<path d="M2642 2670 c0 -19 2 -27 5 -17 2 9 2 25 0 35 -3 9 -5 1 -5 -18z"/>
<path d="M1670 2650 c0 -16 2 -30 4 -30 2 0 6 14 8 30 3 17 1 30 -4 30 -4 0
-8 -13 -8 -30z"/>
<path d="M1558 2735 c-6 -30 -3 -43 8 -33 3 4 4 19 2 35 l-3 28 -7 -30z"/>
</g>
</svg>
